<?xml version="1.0" encoding="utf-8"?>
<!-- Generator: Adobe Illustrator 24.0.1, SVG Export Plug-In . SVG Version: 6.00 Build 0)  -->
<svg version="1.1" id="Layer_1" xmlns="http://www.w3.org/2000/svg" xmlns:xlink="http://www.w3.org/1999/xlink" x="0px" y="0px"
	 viewBox="0 0 20 20" style="enable-background:new 0 0 20 20;" xml:space="preserve">
<style type="text/css">
	.st0{fill:#FEDB41;}
	.st1{fill:#E2A63B;}
</style>
<g id="icon_battle_coin" transform="translate(-509.932 -380.352)">
	<g id="그룹_482" transform="translate(509.932 380.352)">
		<path id="패스_1259" class="st0" d="M19.8,8L19.8,8c-0.5-2.1-1.6-4.1-3.3-5.5c-1-0.9-2.2-1.6-3.5-1.9C12.1,0.2,11.1,0,10.1,0
			C4.6,0,0.1,4.4,0,9.9s4.4,10,9.9,10.1c4.4,0,8.3-2.8,9.7-7.1c0.3-1,0.5-2,0.5-3C20,9.3,19.8,8.6,19.8,8z"/>
	</g>
	<path id="패스_1260" class="st1" d="M520,389.1c-0.8,0-1.5-0.7-1.5-1.5c0-0.8,0.7-1.5,1.5-1.5c0.8,0,1.5,0.7,1.5,1.5c0,0,0,0,0,0
		c0,0.5,0.4,0.9,0.9,0.9c0.5,0,0.9-0.4,0.9-0.9c0-1.5-1-2.8-2.5-3.2v-0.4c0-0.5-0.4-0.9-0.9-1c-0.5,0-0.9,0.4-1,0.9c0,0,0,0,0,0.1
		v0.4c-1.5,0.4-2.5,1.7-2.5,3.2c0,1.9,1.5,3.4,3.4,3.4c0.8,0,1.5,0.7,1.5,1.6c0,0.8-0.7,1.5-1.5,1.5l0,0c-0.8,0-1.5-0.7-1.5-1.5
		c0-0.5-0.4-0.9-0.9-1c-0.5,0-0.9,0.4-1,0.9c0,0,0,0,0,0.1c0,1.5,1,2.8,2.5,3.2v0.7c0,0.5,0.4,0.9,0.9,1s0.9-0.4,1-0.9
		c0,0,0,0,0-0.1v-0.7c1.8-0.5,2.8-2.4,2.3-4.1c0,0,0-0.1,0-0.1C522.8,390.1,521.5,389.1,520,389.1z"/>
</g>
</svg>
