<?xml version="1.0" encoding="utf-8"?>
<!-- Generator: Adobe Illustrator 24.0.1, SVG Export Plug-In . SVG Version: 6.00 Build 0)  -->
<svg version="1.1" id="Layer_1" xmlns="http://www.w3.org/2000/svg" xmlns:xlink="http://www.w3.org/1999/xlink" x="0px" y="0px"
	 viewBox="0 0 73 73" style="enable-background:new 0 0 73 73;" xml:space="preserve">
<style type="text/css">
	.st0{fill:#F2F3F6;}
	.st1{fill:#CECCCD;}
</style>
<g id="user_1_" transform="translate(0.5 0.5)">
	<g id="그룹_159">
		<g id="그룹_155">
			<g id="타원_47">
				<circle class="st0" cx="36" cy="36" r="36"/>
				<path class="st1" d="M36,72.5C15.9,72.5-0.5,56.1-0.5,36C-0.5,15.9,15.9-0.5,36-0.5c20.1,0,36.5,16.4,36.5,36.5
					C72.5,56.1,56.1,72.5,36,72.5z M36,0.5C16.4,0.5,0.5,16.4,0.5,36S16.4,71.5,36,71.5S71.5,55.6,71.5,36S55.6,0.5,36,0.5z"/>
			</g>
		</g>
		<g id="그룹_157" transform="translate(8.663 48.425)">
			<g id="패스_879">
				<path class="st0" d="M54.7,10.8c-3-7-9.9-11.5-17.4-11.5h-20C9.7-0.7,2.9,3.9-0.1,10.8C12.7,26,35.4,27.8,50.6,15
					C52.1,13.7,53.5,12.3,54.7,10.8L54.7,10.8z"/>
				<path class="st1" d="M27.3,24C17,24,6.7,19.6-0.5,11.1l-0.2-0.2l0.1-0.3C2.5,3.5,9.5-1.2,17.3-1.2c0,0,0,0,0,0h20
					c7.5,0,14.3,4.3,17.6,11.1l0.4-0.4v1.3l-0.4,0.1l0.3,0.2c-1.3,1.5-2.7,2.9-4.2,4.2C44.1,21.2,35.7,24,27.3,24z M0.5,10.7
					c12.7,14.7,35,16.5,49.8,3.9c1.4-1.2,2.7-2.5,3.9-3.9c-3-6.6-9.6-10.9-16.9-10.9h-20c0,0,0,0,0,0C10-0.2,3.4,4.1,0.5,10.7z"/>
			</g>
		</g>
	</g>
	<g id="그룹_160" transform="translate(23.243 7.221)">
		<g id="패스_881">
			<path class="st0" d="M25.3,4.5l-3.2-3c-1.6-1.5-3.9-2-6-1.3L4.7,4.1c-3,1-5,3.8-5,7v5.3L0.2,18H26l0.6-1.6V7.6
				C26.6,6.5,26.1,5.3,25.3,4.5z"/>
			<path class="st1" d="M26.4,18.5H-0.1l-0.7-2.1v-5.3c0-3.4,2.2-6.4,5.4-7.5L16-0.3c2.3-0.8,4.7-0.2,6.5,1.4l3.2,3
				c0.9,0.9,1.5,2.1,1.5,3.4l0,8.9L26.4,18.5z M0.6,17.5h25.1l0.4-1.2V7.6c0-1-0.4-2-1.2-2.7l-3.2-3c-1.5-1.4-3.6-1.9-5.5-1.2
				L4.9,4.6c-2.8,1-4.7,3.6-4.7,6.5v5.2L0.6,17.5z"/>
		</g>
	</g>
	<g id="그룹_162" transform="translate(48.587 25.895)">
		<g id="패스_883">
			<path class="st0" d="M0.4,2.5C-1,5.5-1.1,9.4,0.6,10.2c1.7,0.8,4.7-1.8,6-4.7S7.1,0.8,5.4,0S1.8-0.4,0.4,2.5z"/>
			<path class="st1" d="M1.3,10.8c-0.3,0-0.6-0.1-0.9-0.2c-1-0.5-1.5-1.7-1.6-3.5c0-1.6,0.4-3.3,1.1-4.8l0,0c1.9-4,4.6-3.3,5.7-2.8
				c1.1,0.5,1.8,1.3,2.1,2.3C8,2.9,7.8,4.2,7.1,5.7c-0.7,1.5-1.8,2.9-3,3.9C3.1,10.4,2.2,10.8,1.3,10.8z M0.8,2.8
				c-0.6,1.4-1,3-1,4.4c0,1.3,0.4,2.3,1,2.6s1.6,0,2.6-0.9C4.5,8,5.6,6.6,6.2,5.3C6.8,4,7,3,6.7,2.1C6.5,1.4,6,0.8,5.2,0.5
				C3.4-0.4,1.9,0.4,0.8,2.8L0.8,2.8z"/>
		</g>
	</g>
	<g id="그룹_163" transform="translate(27.314 40.088)">
		<g id="패스_884">
			<path class="st0" d="M10.7,15.8H7.4c-4.3,0-7.8-3.5-7.8-7.8v-8.6h18.9V8C18.5,12.3,15,15.8,10.7,15.8z"/>
			<path class="st1" d="M10.7,16.3H7.4c-4.6,0-8.3-3.7-8.3-8.3V-1H19V8C19,12.6,15.3,16.3,10.7,16.3z M0.1-0.1V8
				c0,4,3.3,7.3,7.3,7.3h3.3c4,0,7.3-3.3,7.3-7.3v-8.1H0.1z"/>
		</g>
	</g>
	<g id="그룹_164" transform="translate(23.243 21.463)">
		<g id="패스_886">
			<path class="st0" d="M24.1-0.3h-22c-1.3,0-2.4,1.1-2.4,2.4c0,0,0,0,0,0v8.7C-0.3,15.6,2,20,6,22.6l3.9,2.6
				c0.4,0.3,0.8,0.5,1.3,0.6c0.9,0.1,1.8,0,2.7,0c1-0.2,2-0.5,2.9-0.9l3.5-2.4c3.9-2.6,6.3-7.1,6.3-11.8V2.1
				C26.6,0.8,25.5-0.3,24.1-0.3C24.1-0.3,24.1-0.3,24.1-0.3z"/>
			<path class="st1" d="M12.2,26.4c-0.4,0-0.7,0-1.1,0l-0.1,0c-0.5-0.2-0.9-0.4-1.4-0.7l-3.9-2.6c-4.1-2.7-6.5-7.3-6.5-12.2V2.1
				c0-1.6,1.3-2.9,2.9-2.9h22c1.6,0,2.9,1.3,2.9,2.9v8.7c0,4.9-2.4,9.5-6.5,12.2l-3.5,2.4C16,25.9,15,26.2,14,26.4
				C13.4,26.4,12.8,26.4,12.2,26.4z M11.2,25.4c0.9,0,1.7,0,2.6,0c0.9-0.2,1.9-0.5,2.8-0.8l3.4-2.3c3.8-2.6,6.1-6.8,6.1-11.4V2.1
				c0-1.1-0.9-2-2-2h-22c-1.1,0-2,0.9-2,2v8.7c0,4.6,2.3,8.8,6.1,11.4l3.9,2.6C10.5,25.1,10.9,25.3,11.2,25.4z"/>
		</g>
	</g>
	<g id="그룹_166" transform="translate(48.587 25.895)">
		<g id="패스_888">
			<path class="st0" d="M0.4,2.5C-1,5.5-1.1,9.4,0.6,10.2c1.7,0.8,4.7-1.8,6-4.7S7.1,0.8,5.4,0S1.8-0.4,0.4,2.5z"/>
			<path class="st1" d="M1.3,10.8c-0.3,0-0.6-0.1-0.9-0.2c-1-0.5-1.5-1.7-1.6-3.5c0-1.6,0.4-3.3,1.1-4.8l0,0c1.9-4,4.6-3.3,5.7-2.8
				c1.1,0.5,1.8,1.3,2.1,2.3C8,2.9,7.8,4.2,7.1,5.7c-0.7,1.5-1.8,2.9-3,3.9C3.1,10.4,2.2,10.8,1.3,10.8z M0.8,2.8
				c-0.6,1.4-1,3-1,4.4c0,1.3,0.4,2.3,1,2.6s1.6,0,2.6-0.9C4.5,8,5.6,6.6,6.2,5.3C6.8,4,7,3,6.7,2.1C6.5,1.4,6,0.8,5.2,0.5
				C3.4-0.4,1.9,0.4,0.8,2.8L0.8,2.8z"/>
		</g>
	</g>
	<g id="그룹_167" transform="translate(17.074 25.895)">
		<g id="패스_889">
			<path class="st0" d="M6.7,2.5c1.4,2.9,1.5,6.8-0.2,7.6c-1.7,0.8-4.7-1.8-6-4.7S-0.1,0.8,1.7,0S5.3-0.4,6.7,2.5z"/>
			<path class="st1" d="M5.8,10.8C4.9,10.8,4,10.4,3,9.6c-1.2-1-2.3-2.4-3-3.9c-0.7-1.5-0.9-2.8-0.6-3.9c0.3-1,1-1.8,2.1-2.3
				c1.1-0.5,3.8-1.3,5.7,2.8l0,0c0.7,1.5,1.1,3.3,1.1,4.8c0,1.8-0.6,3-1.6,3.5C6.4,10.8,6.1,10.8,5.8,10.8z M3.2,0.1
				c-0.4,0-0.9,0.1-1.3,0.3C1.1,0.8,0.6,1.4,0.4,2.1C0.1,3,0.3,4,0.9,5.3C1.5,6.6,2.6,8,3.6,8.9c1,0.8,2,1.2,2.6,0.9
				c0.6-0.3,1-1.2,1-2.6c0-1.4-0.4-3-1-4.4l0,0C5.4,1,4.4,0.1,3.2,0.1z"/>
		</g>
	</g>
	<g id="그룹_168" transform="translate(28.72 28.354)">
		<g id="타원_48">
			<circle class="st0" cx="1.2" cy="1.2" r="1.6"/>
			<path class="st1" d="M1.2,3.4c-1.2,0-2.1-1-2.1-2.1s1-2.1,2.1-2.1s2.1,1,2.1,2.1S2.4,3.4,1.2,3.4z M1.2,0.1
				c-0.6,0-1.1,0.5-1.1,1.1s0.5,1.1,1.1,1.1s1.1-0.5,1.1-1.1S1.9,0.1,1.2,0.1z"/>
		</g>
	</g>
	<g id="그룹_169" transform="translate(41.583 28.354)">
		<g id="타원_49">
			<circle class="st0" cx="1.1" cy="1.2" r="1.6"/>
			<path class="st1" d="M1.1,3.4c-1.2,0-2.1-1-2.1-2.1s1-2.1,2.1-2.1c1.2,0,2.1,1,2.1,2.1S2.2,3.4,1.1,3.4z M1.1,0.1
				c-0.6,0-1.1,0.5-1.1,1.1s0.5,1.1,1.1,1.1c0.6,0,1.1-0.5,1.1-1.1S1.7,0.1,1.1,0.1z"/>
		</g>
	</g>
	<g id="그룹_170" transform="translate(31.899 36.665)">
		<g id="패스_890">
			<path class="st0" d="M4.4,3.6c-1.9,0-3.6-0.9-4.7-2.4C-0.6,0.7-0.5,0,0-0.3c0.5-0.3,1.1-0.2,1.5,0.3c0,0,0,0,0,0
				c1.1,1.6,3.3,2,4.9,0.9C6.8,0.6,7.1,0.3,7.3,0c0.3-0.5,1-0.6,1.5-0.3c0.5,0.3,0.6,1,0.3,1.5c0,0,0,0,0,0C8,2.7,6.3,3.6,4.4,3.6z"
				/>
			<path class="st1" d="M4.4,4.1L4.4,4.1c-2,0-3.9-1-5.1-2.7C-0.9,1.1-1,0.7-0.9,0.3s0.3-0.8,0.6-1C0.4-1.2,1.4-1,1.9-0.3
				c1,1.4,2.9,1.8,4.2,0.8C6.4,0.2,6.7,0,6.9-0.3C7.4-1,8.4-1.2,9.1-0.7C9.8-0.3,10,0.7,9.5,1.4C8.3,3.1,6.4,4.1,4.4,4.1z M0.6,0
				C0.5,0,0.4,0,0.3,0.1C0.2,0.2,0.1,0.3,0.1,0.5c0,0.2,0,0.3,0.1,0.4c1,1.4,2.6,2.2,4.3,2.2c1.7,0,3.3-0.8,4.3-2.2
				c0.2-0.3,0.1-0.6-0.1-0.8C8.3-0.1,7.9,0,7.7,0.2c-0.3,0.4-0.6,0.8-1,1c-1.8,1.3-4.3,0.8-5.6-1C1,0.1,0.9,0,0.6,0
				C0.7,0,0.6,0,0.6,0z"/>
		</g>
	</g>
</g>
</svg>
