<?xml version="1.0" encoding="utf-8"?>
<!-- Generator: Adobe Illustrator 24.0.1, SVG Export Plug-In . SVG Version: 6.00 Build 0)  -->
<svg version="1.1" id="Layer_1" xmlns="http://www.w3.org/2000/svg" xmlns:xlink="http://www.w3.org/1999/xlink" x="0px" y="0px"
	 viewBox="0 0 44 44" style="enable-background:new 0 0 44 44;" xml:space="preserve">
<style type="text/css">
	.st0{fill:#F4A100;}
	.st1{fill:#303441;}
</style>
<g>
	<circle class="st0" cx="15.9" cy="34.8" r="7.9"/>
	<g id="XMLID_1322_">
		<g id="XMLID_881_">
			<path id="XMLID_1146_" class="st1" d="M43.3,0c-0.5-0.1-0.9,0.1-1.1,0.6l-5.2,19.4l-2.5-0.7l4.9-18.3c0.1-0.5-0.1-0.9-0.6-1.1
				c-0.5-0.1-0.9,0.1-1.1,0.6l-5,18.5c-1.1,0.1-2.1,0.9-2.4,2.1l-0.9,3.3c-0.2,0.7-0.6,1.2-1.3,1.5c-0.6,0.3-1.4,0.3-2,0l-15-6.8
				c-1.8-0.8-3.9-0.8-5.6,0c-1.8,0.8-3.1,2.4-3.6,4.3l-1.7,6.1c-0.7,2.6-0.2,5.3,1.4,7.4s4.1,3.4,6.8,3.4h0.2c1.6,2.1,4.1,3.4,7,3.4
				s5.4-1.3,7-3.4h6.5c3.5,0,6.6-2.4,7.5-5.8l3-11.1c0.2-0.7,0.1-1.5-0.3-2.1c-0.2-0.3-0.5-0.6-0.8-0.9l5.3-19.6
				C44.1,0.6,43.8,0.2,43.3,0L43.3,0z M33.5,20.9l3.8,1c0.3,0.1,0.5,0.3,0.7,0.5c0.1,0.2,0.2,0.5,0.1,0.8l-0.7,2.5l-5.9-1.6l0.7-2.5
				C32.3,21.1,32.9,20.7,33.5,20.9L33.5,20.9z M35.1,34.4c-0.7,2.6-3.1,4.5-5.8,4.5h-5.5c0.5-1.1,0.8-2.3,0.8-3.6
				c0-3.2-1.8-6.2-4.6-7.7c-0.4-0.2-0.9-0.1-1.2,0.3c-0.2,0.4-0.1,0.9,0.3,1.2c2.3,1.2,3.7,3.6,3.7,6.2c0,3.9-3.2,7-7,7s-7-3.2-7-7
				c0-2.6,1.4-5,3.7-6.2c0.4-0.2,0.6-0.7,0.3-1.2s-0.7-0.6-1.2-0.3C8.7,29.1,7,32,7,35.2c0,1.3,0.3,2.5,0.8,3.6
				c-1.8-0.2-3.5-1.2-4.6-2.6c-1.3-1.7-1.7-3.9-1.1-5.9l1.7-6.1c0.4-1.4,1.4-2.6,2.7-3.2s2.9-0.6,4.2,0l15,6.8
				c1.1,0.5,2.4,0.5,3.4,0c0.8-0.4,1.5-1,1.9-1.8l6,1.6L35.1,34.4z"/>
			<path id="XMLID_1151_" class="st1" d="M15.8,26.5c-0.2,0-0.4,0.1-0.6,0.3c-0.2,0.2-0.3,0.4-0.3,0.6s0.1,0.4,0.3,0.6
				c0.2,0.2,0.4,0.3,0.6,0.3c0.2,0,0.4-0.1,0.6-0.3s0.3-0.4,0.3-0.6s-0.1-0.4-0.3-0.6C16.2,26.6,16,26.5,15.8,26.5z"/>
		</g>
	</g>
</g>
</svg>
