<?xml version="1.0" encoding="utf-8"?>
<!-- Generator: Adobe Illustrator 24.0.1, SVG Export Plug-In . SVG Version: 6.00 Build 0)  -->
<svg version="1.1" id="Layer_1" xmlns="http://www.w3.org/2000/svg" xmlns:xlink="http://www.w3.org/1999/xlink" x="0px" y="0px"
	 viewBox="0 0 44 44" style="enable-background:new 0 0 44 44;" xml:space="preserve">
<style type="text/css">
	.st0{fill:#F4A100;}
	.st1{fill:#303441;}
</style>
<g>
	<g>
		<path class="st0" d="M30.6,36.7c-0.2,0.4,0,0.9,0.4,1.1c-0.3,0.6-0.7,1.1-1.1,1.6c-0.2-0.1-0.4-0.2-0.6-0.2
			c-0.5,0-0.9,0.4-0.9,0.9c0,0.2,0.1,0.4,0.2,0.6c-0.6,0.5-1.2,0.9-1.9,1.2c-0.2-0.4-0.7-0.5-1.1-0.3c-1.2,0.5-2.5,0.8-3.8,0.8
			c-5.2,0-9.5-4.2-9.5-9.5c0-5.4,4.4-9.5,9.5-9.5c5.2,0,9.5,4.2,9.5,9.5c0,0.8-0.1,1.6-0.3,2.4C31,35.8,30.8,36.2,30.6,36.7z"/>
	</g>
	<g>
		<circle class="st1" cx="27.2" cy="32.8" r="0.9"/>
		<circle class="st1" cx="24.6" cy="27.7" r="0.9"/>
		<circle class="st1" cx="22" cy="32.8" r="0.9"/>
		<path class="st1" d="M41.6,3.1c-2.3-1.3-5.2-0.5-6.5,1.7c-0.3,0.5-0.3,0.6-1.8,4.4c-0.9,2.4-2.7,4.3-4.9,5.6c-0.5,0.3-1,0.6-1.5,1
			c-0.9-2-1.3-4.2-1-6.4c0.6-4,0.6-4.1,0.6-4.7C26.7,2.1,24.6,0,22,0s-4.7,2.1-4.7,4.7c0,0.6,0.1,0.7,0.6,4.7c0.3,2.2-0.1,4.4-1,6.4
			c-0.5-0.3-1-0.7-1.5-1c-2.2-1.4-3.9-3.3-4.9-5.6C9.1,5.4,9.1,5.4,8.8,4.8c-1.3-2.3-4.2-3-6.5-1.7C0,4.4-0.7,7.3,0.6,9.6
			c0.3,0.5,0.4,0.6,2.9,3.7c1.6,2,2.4,4.4,2.4,7c0.2,5.6,2,10.9,5.2,15.5C12.6,40.6,17,44,22,44c1.5,0,3-0.3,4.4-0.9
			c0.4-0.2,0.6-0.7,0.4-1.1c0,0,0,0,0-0.1c-0.2-0.4-0.7-0.5-1.1-0.3c-1.2,0.5-2.5,0.8-3.8,0.8c-5.2,0-9.5-4.2-9.5-9.5
			c0-5.4,4.4-9.5,9.5-9.5c5.2,0,9.5,4.2,9.5,9.5c0,0.8-0.1,1.6-0.3,2.4c-0.1,0.5-0.3,0.9-0.5,1.4c-0.2,0.4,0,0.9,0.4,1.1h0
			c0.4,0.2,0.9,0,1.1-0.4c0.2-0.5,0.4-1,0.5-1.4c3.2-4.6,5.1-9.9,5.2-15.5c0.1-2.6,0.9-5,2.4-7c2.5-3.2,2.6-3.2,2.9-3.7
			C44.7,7.3,43.9,4.4,41.6,3.1z M22,1.7c1.7,0,3,1.3,3,3c0,0.4,0,0.3-0.6,4.4c-0.1,0.4-0.1,0.8-0.1,1.1h-4.5c0-0.4-0.1-0.8-0.1-1.1
			c-0.7-4-0.7-4-0.7-4.4C19,3.1,20.3,1.7,22,1.7z M19.7,12h4.6c0.1,1.2,0.3,2.3,0.7,3.4h-6C19.4,14.3,19.6,13.2,19.7,12z M18,17.5
			c0.1-0.1,0.1-0.2,0.2-0.3h7.6c0.1,0.1,0.1,0.2,0.2,0.4c1,1.9,1.8,3.9,2.3,6c-1.8-1.3-4-1.9-6.3-1.9s-4.5,0.7-6.3,1.9
			C16.3,21.2,17,19.5,18,17.5z M5.6,13.2c-0.2-0.3-0.4-0.6-0.7-0.9C2.3,8.9,2.3,9,2.1,8.7C1.3,7.3,1.8,5.4,3.2,4.6
			c1.4-0.8,3.3-0.3,4.1,1.1C7.5,6,7.4,5.9,9,9.9c0.1,0.4,0.3,0.7,0.5,1L5.6,13.2z M6.4,14.7l4-2.3c0.7,1,1.5,1.8,2.4,2.6l-5.3,3
			C7.2,16.8,6.9,15.7,6.4,14.7z M10.9,32c-1.9-3.6-3-7.6-3.2-11.7v-0.4l6.5-3.8c0.1,0.1,0.2,0.1,0.3,0.2c0.6,0.3,1.1,0.7,1.6,1.1
			c-1.2,2.6-2.1,5.3-2.5,8.1C12,27.3,11,29.6,10.9,32z M33.1,32c-0.2-2.4-1.1-4.7-2.7-6.5c-0.5-2.8-1.3-5.5-2.6-8.1
			c0.5-0.4,1.1-0.7,1.6-1.1c0.1-0.1,0.2-0.1,0.3-0.2l6.5,3.8c0.1,0.1,0.1,0.2,0.1,0.4C36.2,24.4,35.1,28.4,33.1,32z M36.5,18l-5.3-3
			c0.9-0.8,1.7-1.7,2.4-2.6l4,2.3C37.1,15.7,36.8,16.8,36.5,18z M41.9,8.7c-0.2,0.3-0.2,0.2-2.8,3.5c-0.2,0.3-0.5,0.6-0.7,0.9
			l-3.9-2.3c0.2-0.3,0.3-0.7,0.5-1c1.6-3.9,1.5-3.8,1.7-4.2c0.8-1.4,2.7-1.9,4.1-1.1C42.2,5.4,42.7,7.3,41.9,8.7z"/>
		<path class="st1" d="M30.2,40.1c0,0.5-0.4,0.9-0.9,0.9c-0.3,0-0.5-0.1-0.7-0.3c-0.1-0.2-0.2-0.4-0.2-0.6c0-0.5,0.4-0.9,0.9-0.9
			c0.2,0,0.4,0.1,0.6,0.2C30.1,39.6,30.2,39.8,30.2,40.1z"/>
	</g>
</g>
</svg>
