<?xml version="1.0" encoding="utf-8"?>
<!-- Generator: Adobe Illustrator 24.0.1, SVG Export Plug-In . SVG Version: 6.00 Build 0)  -->
<svg version="1.1" id="Layer_1" xmlns="http://www.w3.org/2000/svg" xmlns:xlink="http://www.w3.org/1999/xlink" x="0px" y="0px"
	 viewBox="0 0 44 44" style="enable-background:new 0 0 44 44;" xml:space="preserve">
<style type="text/css">
	.st0{fill:#F4A100;}
	.st1{fill:#303441;}
</style>
<g>
	<path class="st0" d="M3.6,31.3c-1.1,1-2.1,2.3-2.6,3.7s-0.4,3.1,0.3,4.4c0.6,1,1.5,1.8,2.5,2.4c1.6,1,3.6,1.5,5.4,0.9
		c1.5-0.5,2.7-1.6,3.8-2.7c0.3-0.3,0.6-0.6,0.7-1.1c0.2-0.7-0.3-1.4-0.8-1.9c-1.1-1.2-2.1-2.5-3.2-3.7c-0.9-1-1.8-2.1-2.9-2.8
		C5.6,29.7,4.7,30.3,3.6,31.3z"/>
	<g>
		<path class="st1" d="M12.5,41.9l2.7-2.7c0,0,18.6-10.4,18.6-10.4c0.4-0.2,0.6-0.7,0.3-1.2c-0.2-0.4-0.7-0.6-1.2-0.3l-3.7,2
			c-0.6-1.9-2-3.4-3.9-4.1l10.8-8.9c3.2,0.1,5.9,2.7,6.1,5.9l-2.5,1.4c-0.4,0.2-0.6,0.7-0.3,1.2c0.2,0.4,0.7,0.6,1.2,0.3l3-1.6
			c0.3-0.2,0.4-0.4,0.4-0.8c0-4.2-3.2-7.7-7.3-8.1c-0.4-3.8-3.4-6.9-7.3-7.3C29,3.2,25.5,0,21.3,0c-0.3,0-0.6,0.2-0.8,0.4
			c-9.4,17.1-0.7,1.7-15.7,28.4l-2.7,2.7c-2.9,2.9-2.9,7.5,0,10.3C5,44.7,9.6,44.7,12.5,41.9L12.5,41.9z M14.7,37.4l-8.2-8.2l1.8-3
			c4.8,4.8,0.7,0.7,9.4,9.4L14.7,37.4z M13.8,16.3c3.2,0.7,3.6,3.9,3.7,3.9l-5.7,7l-2.5-2.5L13.8,16.3z M22.6,25.2l-7,5.8L13,28.4
			l5.8-7C20.7,21.8,22.2,23.3,22.6,25.2L22.6,25.2z M27.7,30.2l-8.4,4.6l-2.5-2.5l6.9-5.7C23.8,26.5,27,27,27.7,30.2z M35,15
			l-10.9,9c-0.6-1.9-2.2-3.4-4.1-4.1L29,9C32.2,9.2,34.8,11.8,35,15z M21.8,1.7C25,2,27.5,4.6,27.7,7.9l-8.9,10.8
			c-0.7-1.9-2.2-3.3-4.2-3.9L21.8,1.7z M3.4,32.7l2.1-2.1l7.9,7.9l-2.1,2.1c-2.2,2.2-5.7,2.2-7.9,0C1.2,38.5,1.2,34.9,3.4,32.7z"/>
		<circle class="st1" cx="36.8" cy="26.3" r="0.9"/>
	</g>
</g>
</svg>
