<?xml version="1.0" encoding="utf-8"?>
<!-- Generator: Adobe Illustrator 24.0.1, SVG Export Plug-In . SVG Version: 6.00 Build 0)  -->
<svg version="1.1" id="Layer_1" xmlns="http://www.w3.org/2000/svg" xmlns:xlink="http://www.w3.org/1999/xlink" x="0px" y="0px"
	 viewBox="0 0 36 36" style="enable-background:new 0 0 36 36;" xml:space="preserve">
<style type="text/css">
	.st0{fill:#A5A5A5;}
	.st1{fill:#FFFFFF;}
	.st2{fill:#222430;}
</style>
<g id="그룹_301" transform="translate(-463 -389.779)">
	<ellipse id="타원_130" class="st0" cx="481" cy="421.7" rx="13.8" ry="4.1"/>
	<g id="그룹_300">
		<circle id="타원_131" class="st1" cx="481" cy="402.8" r="8.7"/>
		<g id="그룹_299">
			<g id="그룹_298">
				<path id="패스_1092" class="st2" d="M481.1,389.8c-6.8,0-12.3,5.5-12.3,12.3c0,9,11.3,19.8,11.8,20.3c0.3,0.2,0.7,0.2,0.9,0
					c0.5-0.5,11.8-11.2,11.8-20.3C493.3,395.3,487.9,389.8,481.1,389.8z M481.1,408.9c-3.8,0-6.8-3-6.8-6.8c0-3.8,3-6.8,6.8-6.8
					c3.8,0,6.8,3,6.8,6.8c0,0,0,0,0,0C487.9,405.8,484.9,408.9,481.1,408.9L481.1,408.9z"/>
			</g>
		</g>
	</g>
</g>
</svg>
