<?xml version="1.0" encoding="utf-8"?>
<!-- Generator: Adobe Illustrator 24.0.1, SVG Export Plug-In . SVG Version: 6.00 Build 0)  -->
<svg version="1.1" id="Layer_1" xmlns="http://www.w3.org/2000/svg" xmlns:xlink="http://www.w3.org/1999/xlink" x="0px" y="0px"
	 viewBox="0 0 44 44" style="enable-background:new 0 0 44 44;" xml:space="preserve">
<style type="text/css">
	.st0{fill:#FFFFFF;}
	.st1{fill:#425B72;}
	.st2{fill:#303441;}
	.st3{fill:#F4A100;}
</style>
<g id="icon_info" transform="translate(-193 -446)">
	<g id="Contract" transform="translate(193 446)">
		<path class="st0" d="M23.9,22c0,0.5-0.4,0.9-1,0.9H8.3c-0.1,0-0.2,0-0.2,0c0,0-0.1,0-0.1,0c-0.4-0.1-0.6-0.5-0.6-0.8
			c0-0.5,0.4-0.9,0.9-0.9h14.7c0.5,0,0.8,0.2,0.9,0.6c0,0,0,0,0,0C23.8,21.8,23.9,21.9,23.9,22z"/>
		<path class="st0" d="M29.4,17.4c0,0.5-0.5,0.9-1,0.9H8.3c-0.1,0-0.2,0-0.2,0c0,0-0.1,0-0.1,0c-0.4-0.1-0.6-0.5-0.6-0.8
			c0-0.5,0.4-0.9,0.9-0.9h20.2c0.1,0,0.2,0,0.2,0c0,0,0.1,0,0.1,0C29.1,16.7,29.4,17,29.4,17.4z"/>
		<path class="st0" d="M29.4,12.8c0,0.5-0.4,0.9-1,0.9H8.3c-0.1,0-0.2,0-0.2,0c-0.1,0-0.2-0.1-0.3-0.1c0,0-0.1-0.1-0.1-0.1
			c0,0-0.1-0.1-0.1-0.2c0-0.1-0.1-0.2-0.1-0.3c0-0.1-0.1-0.1-0.1-0.2c0-0.5,0.4-0.9,0.9-0.9h20.1c0.1,0,0.1,0,0.1,0
			c0.1,0,0.2,0,0.2,0c0,0,0.1,0,0.1,0C29.1,12.1,29.4,12.4,29.4,12.8z"/>
		<path class="st0" d="M29.4,8.3c0,0.2-0.1,0.3-0.2,0.5c0,0,0,0.1-0.1,0.1c-0.1,0.2-0.4,0.3-0.6,0.3c0,0-0.1,0-0.1,0H8.3
			c-0.1,0-0.2,0-0.2,0c-0.1,0-0.2-0.1-0.3-0.1C7.7,9,7.7,9,7.6,9c0,0-0.1-0.1-0.1-0.2c0-0.1-0.1-0.2-0.1-0.3c0-0.1-0.1-0.1-0.1-0.2
			c0-0.5,0.4-0.9,0.9-0.9h20.1c0.1,0,0.1,0,0.1,0c0.1,0,0.2,0,0.2,0c0,0,0.1,0,0.1,0C29.1,7.6,29.4,7.9,29.4,8.3z"/>
		<path class="st0" d="M27.5,32.3l-0.2,2.6l2.2-1.4C29,32.8,28.3,32.4,27.5,32.3z"/>
		<path class="st0" d="M23.9,22c0,0.5-0.4,0.9-1,0.9H8.3c-0.1,0-0.2,0-0.2,0c0,0-0.1,0-0.1,0c-0.4-0.1-0.6-0.5-0.6-0.8
			c0-0.5,0.4-0.9,0.9-0.9h14.7c0.5,0,0.8,0.2,0.9,0.6c0,0,0,0,0,0C23.8,21.8,23.9,21.9,23.9,22z"/>
		<path class="st0" d="M29.4,17.4c0,0.5-0.5,0.9-1,0.9H8.3c-0.1,0-0.2,0-0.2,0c0,0-0.1,0-0.1,0c-0.4-0.1-0.6-0.5-0.6-0.8
			c0-0.5,0.4-0.9,0.9-0.9h20.2c0.1,0,0.2,0,0.2,0c0,0,0.1,0,0.1,0C29.1,16.7,29.4,17,29.4,17.4z"/>
		<path class="st0" d="M29.4,12.8c0,0.5-0.4,0.9-1,0.9H8.3c-0.1,0-0.2,0-0.2,0c-0.1,0-0.2-0.1-0.3-0.1c0,0-0.1-0.1-0.1-0.1
			c0,0-0.1-0.1-0.1-0.2c0-0.1-0.1-0.2-0.1-0.3c0-0.1-0.1-0.1-0.1-0.2c0-0.5,0.4-0.9,0.9-0.9h20.1c0.1,0,0.1,0,0.1,0
			c0.1,0,0.2,0,0.2,0c0,0,0.1,0,0.1,0C29.1,12.1,29.4,12.4,29.4,12.8z"/>
		<path class="st0" d="M29.4,8.3c0,0.2-0.1,0.3-0.2,0.5c0,0,0,0.1-0.1,0.1c-0.1,0.2-0.4,0.3-0.6,0.3c0,0-0.1,0-0.1,0H8.3
			c-0.1,0-0.2,0-0.2,0c-0.1,0-0.2-0.1-0.3-0.1C7.7,9,7.7,9,7.6,9c0,0-0.1-0.1-0.1-0.2c0-0.1-0.1-0.2-0.1-0.3c0-0.1-0.1-0.1-0.1-0.2
			c0-0.5,0.4-0.9,0.9-0.9h20.1c0.1,0,0.1,0,0.1,0c0.1,0,0.2,0,0.2,0c0,0,0.1,0,0.1,0C29.1,7.6,29.4,7.9,29.4,8.3z"/>
		<path class="st0" d="M29.5,33.5l-2.2,1.4l0.2-2.6C28.3,32.4,29,32.8,29.5,33.5z"/>
		<g id="그룹_338" transform="translate(5.561 7.416)">
			<path class="st1" d="M23.8,10c0,0.5-0.5,0.9-1,0.9H2.7c-0.1,0-0.2,0-0.2,0c0,0-0.1,0-0.1,0C2,10.7,1.8,10.4,1.8,10
				c0-0.5,0.4-0.9,0.9-0.9h20.2c0.1,0,0.1,0,0.2,0c0,0,0.1,0,0.1,0C23.5,9.3,23.8,9.6,23.8,10z"/>
			<path class="st1" d="M18.3,14.6c0,0.5-0.4,0.9-1,0.9H2.7c-0.1,0-0.2,0-0.2,0c0,0-0.1,0-0.1,0C2,15.3,1.8,15,1.8,14.6
				c0-0.5,0.4-0.9,0.9-0.9h14.7c0.4,0,0.7,0.2,0.8,0.5c0,0,0,0,0,0C18.3,14.4,18.3,14.5,18.3,14.6z"/>
			<path class="st1" d="M23.8,5.4c0,0.5-0.4,0.9-1,0.9H2.7c-0.1,0-0.2,0-0.2,0c-0.1,0-0.2-0.1-0.3-0.1c0,0-0.1-0.1-0.1-0.1
				C2,6,2,5.9,1.9,5.9c0-0.1-0.1-0.2-0.1-0.3c0-0.1,0-0.1,0-0.2c0-0.5,0.4-0.9,0.9-0.9h20.2c0.1,0,0.1,0,0.2,0c0,0,0.1,0,0.1,0
				C23.5,4.7,23.8,5,23.8,5.4z"/>
			<path class="st1" d="M23.8,0.9c0,0.2-0.1,0.3-0.2,0.5c0,0,0,0.1-0.1,0.1c-0.1,0.1-0.4,0.2-0.6,0.3c0,0-0.1,0-0.1,0H2.7
				c-0.1,0-0.2,0-0.2,0c-0.1,0-0.2-0.1-0.3-0.1c0,0-0.1-0.1-0.1-0.1c0,0-0.1-0.1-0.1-0.2c0-0.1-0.1-0.2-0.1-0.3c0-0.1,0-0.1,0-0.2
				C1.8,0.4,2.2,0,2.7,0h20.2C23,0,23,0,23.1,0c0,0,0.1,0,0.1,0C23.5,0.2,23.8,0.5,23.8,0.9z"/>
		</g>
		<path class="st0" d="M40.3,4.5C40.3,4.5,40.3,4.5,40.3,4.5v2.9h-5.5V4.6c0-1.5,1.2-2.8,2.7-2.8S40.3,3,40.3,4.5z"/>
		<path class="st2" d="M29.3,17.4c0,0.5-0.4,0.9-0.9,0.9H8.2c-0.1,0-0.1,0-0.2,0c0,0-0.1,0-0.1,0c-0.4-0.1-0.6-0.5-0.6-0.8
			c0-0.5,0.4-0.9,0.9-0.9h20.2c0.1,0,0.2,0,0.2,0c0,0,0.1,0,0.1,0C29.1,16.7,29.3,17,29.3,17.4z"/>
		<path class="st2" d="M23.8,21.7c0,0.1,0,0.2,0,0.3c0,0.5-0.4,0.9-0.9,0.9H8.2c-0.1,0-0.1,0-0.2,0c0,0-0.1,0-0.1,0
			c-0.4-0.1-0.6-0.5-0.6-0.8c0-0.5,0.4-0.9,0.9-0.9h14.7C23.4,21.1,23.7,21.3,23.8,21.7C23.8,21.7,23.8,21.7,23.8,21.7z"/>
		<path class="st2" d="M29.3,12.8c0,0.5-0.4,0.9-0.9,0.9H8.2c-0.1,0-0.1,0-0.2,0c-0.1,0-0.2-0.1-0.3-0.1c0,0-0.1-0.1-0.1-0.1
			c0,0-0.1-0.1-0.1-0.2c0-0.1-0.1-0.2-0.1-0.3c0-0.1-0.1-0.1-0.1-0.2c0-0.5,0.4-0.9,0.9-0.9h20.1c0.1,0,0.1,0,0.1,0
			c0.1,0,0.2,0,0.2,0c0,0,0.1,0,0.1,0C29.1,12.1,29.3,12.4,29.3,12.8z"/>
		<path class="st2" d="M29.3,8.3c0,0.2-0.1,0.4-0.1,0.5c0,0,0,0.1-0.1,0.1c-0.1,0.2-0.4,0.3-0.6,0.3c0,0-0.1,0-0.1,0H8.2
			c-0.1,0-0.1,0-0.2,0c-0.1,0-0.2-0.1-0.3-0.1C7.7,9,7.7,9,7.6,9c0,0-0.1-0.1-0.1-0.2c0-0.1-0.1-0.2-0.1-0.3c0-0.1-0.1-0.1-0.1-0.2
			c0-0.5,0.4-0.9,0.9-0.9h20.1c0.1,0,0.1,0,0.1,0c0.1,0,0.2,0,0.2,0c0,0,0.1,0,0.1,0C29.1,7.6,29.3,7.9,29.3,8.3z"/>
		<path class="st2" d="M40.6,12.1c-1.5-0.9-3.5-0.4-4.4,1.1l-0.1,0.1l-1.3,2.3V9.2h6.4c0.5,0,0.9-0.4,0.9-0.9V4.6
			C42.1,2.1,40,0,37.5,0H6.4C3.9,0,1.8,2.1,1.8,4.6v38.5c0,0.5,0.4,0.9,0.9,0.9h31.2c0.5,0,0.9-0.4,0.9-0.9V28.4l6.9-11.9
			C42.6,15,42.1,13,40.6,12.1z M34.8,4.6c0-1.5,1.2-2.8,2.7-2.8s2.8,1.2,2.8,2.7c0,0,0,0,0,0.1v2.8h-5.5V4.6z M33,41.3l0,0.9H3.6
			V4.6c0-1.2,0.8-2.3,2-2.6C5.8,1.9,6,1.8,6.3,1.8h27.5C32.6,3.5,33,3.3,33,18.7l-7.1,12.4c-0.2,0.3-0.1,0-0.4,5.5
			c0,0.5,0.4,0.9,0.9,1h0.1c0.4,0,0.2,0,4.8-3c0.2-0.2,0.1-0.1,1.8-3L33,41.3z M27.5,32.3c0.8,0.1,1.5,0.5,2,1.2l-2.2,1.4L27.5,32.3
			z M33.9,26.3L30.6,32c-0.2-0.2-0.4-0.4-0.6-0.5c-0.5-0.4-1.2-0.7-1.8-0.9l5.7-9.9l1.7-2.9l1,0.6l1.4,0.8L33.9,26.3z M40.1,15.4
			l-1.1,2L36.7,16l1-1.9c0.4-0.6,1.2-0.9,1.9-0.5C40.2,14,40.4,14.8,40.1,15.4z"/>
		<path class="st2" d="M22,37.6c0,0.4-0.2,0.7-0.5,0.8c-0.1,0-0.1,0-0.2,0c0,0-0.1,0-0.2,0c-1.2,0-1.8-1-2.2-1.5
			c-0.1-0.2-0.3-0.3-0.4-0.3c0,0,0,0-0.1,0c-0.5,0.2-0.9,1.8-2.5,1.8c-1.7,0-2.1-1.8-2.6-1.8s-0.9,1.8-2.6,1.8s-2.1-1.8-2.6-1.8
			s-0.9-0.4-0.9-0.9s0.4-0.9,0.9-0.9c1.7,0,2.1,1.8,2.6,1.8s0.9-1.8,2.6-1.8s2.1,1.8,2.6,1.8c0.3,0,0.5-0.5,1-1
			c0.4-0.4,0.9-0.8,1.6-0.8c1.7,0,2.1,1.8,2.6,1.8c0.1,0,0.1,0,0.2,0C21.7,36.8,22,37.2,22,37.6z"/>
		<path class="st3" d="M38,19.2l-4.1,7.1L30.6,32c-0.2-0.2-0.4-0.4-0.6-0.5c-0.5-0.4-1.2-0.7-1.8-0.9l5.7-9.9l1.7-2.9l1,0.6L38,19.2
			z"/>
	</g>
</g>
</svg>
