<?xml version="1.0" encoding="utf-8"?>
<!-- Generator: Adobe Illustrator 24.0.1, SVG Export Plug-In . SVG Version: 6.00 Build 0)  -->
<svg version="1.1" id="Layer_1" xmlns="http://www.w3.org/2000/svg" xmlns:xlink="http://www.w3.org/1999/xlink" x="0px" y="0px"
	 viewBox="0 0 28 28" style="enable-background:new 0 0 28 28;" xml:space="preserve">
<style type="text/css">
	.st0{opacity:0.702;}
	.st1{fill:url(#패스_901_1_);}
	.st2{fill:url(#패스_902_1_);}
</style>
<g id="award" transform="translate(-5 -2.273)" class="st0">
	
		<linearGradient id="패스_901_1_" gradientUnits="userSpaceOnUse" x1="21.9037" y1="10.47" x2="22.9093" y2="11.3879" gradientTransform="matrix(22 0 0 -27.4538 -476.5002 316.5679)">
		<stop  offset="0" style="stop-color:#FFF33B"/>
		<stop  offset="4.000000e-02" style="stop-color:#FEE72E"/>
		<stop  offset="0.117" style="stop-color:#FED51B"/>
		<stop  offset="0.196" style="stop-color:#FDCA10"/>
		<stop  offset="0.281" style="stop-color:#FDC70C"/>
		<stop  offset="0.669" style="stop-color:#F3903F"/>
		<stop  offset="0.888" style="stop-color:#ED683C"/>
		<stop  offset="1" style="stop-color:#E93E3A"/>
	</linearGradient>
	<path id="패스_901" class="st1" d="M29.9,6.3l-3.7-3.7c-0.2-0.2-0.5-0.3-0.7-0.3h-13c-0.3,0-0.5,0.1-0.7,0.3L8.1,6.3
		C7.9,6.5,7.8,6.7,7.8,7v10.6c0,2.4,1.1,4.7,2.9,6.2l7.6,6.3c0.4,0.3,0.9,0.3,1.3,0l7.6-6.3c1.9-1.5,2.9-3.8,2.9-6.2V7
		C30.2,6.7,30.1,6.5,29.9,6.3z M28.2,17.6c0,1.8-0.8,3.5-2.2,4.6l-7,5.7l-7-5.7c-1.4-1.1-2.2-2.8-2.2-4.6V7.4l3.1-3.1h12.1l3.1,3.1
		V17.6z"/>
	
		<linearGradient id="패스_902_1_" gradientUnits="userSpaceOnUse" x1="35.2063" y1="-15.7962" x2="37.2879" y2="-13.3189" gradientTransform="matrix(10.6358 0 0 -10.1722 -368.4149 -130.9768)">
		<stop  offset="0" style="stop-color:#FFF33B"/>
		<stop  offset="4.000000e-02" style="stop-color:#FEE72E"/>
		<stop  offset="0.117" style="stop-color:#FED51B"/>
		<stop  offset="0.196" style="stop-color:#FDCA10"/>
		<stop  offset="0.281" style="stop-color:#FDC70C"/>
		<stop  offset="0.669" style="stop-color:#F3903F"/>
		<stop  offset="0.888" style="stop-color:#ED683C"/>
		<stop  offset="1" style="stop-color:#E93E3A"/>
	</linearGradient>
	<path id="패스_902" class="st2" d="M24.1,12.5L21,12l-1.4-2.8c-0.1-0.3-0.4-0.4-0.7-0.2c-0.1,0.1-0.2,0.1-0.2,0.2L17.3,12
		l-3.1,0.5c-0.3,0-0.5,0.3-0.5,0.6c0,0.1,0.1,0.2,0.2,0.3l2.2,2.2l-0.5,3.1c-0.1,0.3,0.1,0.6,0.4,0.6c0.1,0,0.2,0,0.3-0.1l2.8-1.5
		l2.8,1.5c0.3,0.1,0.6,0,0.7-0.2c0.1-0.1,0.1-0.2,0.1-0.3l-0.5-3.1l2.2-2.2c0.2-0.2,0.2-0.5,0-0.8C24.3,12.5,24.2,12.5,24.1,12.5z"
		/>
</g>
</svg>
