<?xml version="1.0" encoding="utf-8"?>
<!-- Generator: Adobe Illustrator 24.0.1, SVG Export Plug-In . SVG Version: 6.00 Build 0)  -->
<svg version="1.1" id="Layer_1" xmlns="http://www.w3.org/2000/svg" xmlns:xlink="http://www.w3.org/1999/xlink" x="0px" y="0px"
	 viewBox="0 0 44 44" style="enable-background:new 0 0 44 44;" xml:space="preserve">
<style type="text/css">
	.st0{fill:#F4A100;}
	.st1{fill:#303441;}
</style>
<g>
	<circle class="st0" cx="21.9" cy="22" r="21.9"/>
	<path class="st1" d="M36,5.2c-0.1-0.1-0.2-0.2-0.4-0.3C26.1-2.5,12.4-0.8,5,8.7s-5.7,23.2,3.7,30.6S32,45,39.4,35.5
		C46.7,26.2,45.2,12.7,36,5.2z M40.4,14.4c-2.3-2.1-4.9-3.7-7.7-4.8c0.2-1.2,1.1-2.3,2.3-2.7C37.3,8.9,39.2,11.5,40.4,14.4z
		 M30.8,8.9c-1.4-0.4-2.8-0.8-4.2-1c0-1.7,0-3.4,0-5.3c2.4,0.6,4.6,1.6,6.6,3C32.1,6.3,31.2,7.5,30.8,8.9z M24.8,2.2
		c0,1.9,0,3.8,0,5.5c-1.3-0.1-2.6-0.2-4-0.1c-0.2-1.6-1-3.1-2.2-4.1c-0.4-0.4-0.9-0.6-1.4-0.9C18.7,2.2,20.3,2,21.9,2
		C22.9,2,23.8,2.1,24.8,2.2z M13.5,3.9L13.5,3.9c1.4-0.2,2.8,0.2,3.9,1c0.8,0.7,1.3,1.7,1.5,2.8c-5.2,0.4-10.3,2.1-14.6,5
		C6.3,8.8,9.5,5.7,13.5,3.9z M2.6,16.9c0,0,0.1-0.1,0.1-0.1c1.9-3,8.6-6.5,16.3-7.2v0c0,4.1-4.9,9.7-8.9,14.3
		c-2.2,2.3-4.2,4.9-5.8,7.6C1.9,27,1.3,21.8,2.6,16.9L2.6,16.9z M5.7,33.6c0-0.1,0-0.1,0-0.2c0-1.6,3-5,5.9-8.3
		C16,20.1,21,14.4,21,9.6c0-0.1,0-0.1,0-0.2c1.3,0,2.5,0,3.8,0.1c-0.2,19.4-1.5,23.3-6.5,32c0,0,0,0.1,0,0.1
		C13.1,40.7,8.7,37.8,5.7,33.6z M20.2,41.9c5.1-9,6.2-13.8,6.4-32.1c1.3,0.2,2.6,0.5,3.9,0.9c0,0.3,0,0.5,0,0.8
		c0.3,3.9,1.3,7.8,3.1,11.3c2,4.9,3.9,9.5,1.8,13.9c-3.7,3.4-8.5,5.2-13.5,5.2C21.3,42,20.8,42,20.2,41.9z M38.2,33.6
		c0.3-3.9-1.3-7.8-2.9-11.5c-1.6-3.3-2.6-6.9-2.9-10.6c0,0,0-0.1,0-0.1c3.6,1.5,6.7,3.9,9.2,6.8C42.6,23.6,41.4,29.2,38.2,33.6z"/>
	<path class="st1" d="M21.9,43.9C9.8,43.9,0,34.1,0,22S9.8,0.1,21.9,0.1S43.8,9.9,43.8,22C43.8,34.1,34,43.9,21.9,43.9z M21.9,2
		c-11,0-20,9-20,20s9,20,20,20s20-9,20-20C41.9,10.9,33,2,21.9,2z"/>
	<path class="st1" d="M42.5,18.8c-0.3,0-0.6-0.1-0.7-0.3c-5.3-6.4-13.4-9.7-21.7-9C11.9,10,4.7,13.7,2.7,16.8
		c-0.3,0.4-0.9,0.6-1.3,0.3s-0.6-0.9-0.3-1.3c2.3-3.5,9.6-7.6,18.8-8.2c8.9-0.8,17.6,2.8,23.2,9.7c0.3,0.4,0.3,1-0.1,1.3
		C42.9,18.7,42.7,18.8,42.5,18.8L42.5,18.8z"/>
	<path class="st1" d="M4.8,34.4c-0.5,0-1-0.4-1-1c0-2.3,2.8-5.5,6.3-9.6c4-4.5,8.9-10.2,8.9-14.3c0.2-1.7-0.4-3.5-1.7-4.7
		c-1.1-0.8-2.5-1.2-3.9-1c-0.5,0.1-1-0.2-1.1-0.8c-0.1-0.5,0.2-1,0.8-1.1c0,0,0,0,0.1,0c1.9-0.3,3.9,0.2,5.4,1.4
		C20.3,5,21.1,7.3,21,9.6c0,4.8-5,10.5-9.4,15.5c-2.9,3.3-5.9,6.7-5.9,8.3C5.7,33.9,5.3,34.4,4.8,34.4z"/>
	<path class="st1" d="M19.1,42.9c-0.5,0-1-0.4-1-1c0-0.2,0-0.3,0.1-0.5c5.6-9.7,6.5-13.5,6.5-39.5c0-0.5,0.4-1,1-1c0.5,0,1,0.4,1,1
		c0,25.5-0.8,30-6.8,40.5C19.7,42.8,19.4,42.9,19.1,42.9z"/>
	<path class="st1" d="M36.2,38.2c-0.5,0-1-0.4-1-1c0-0.1,0-0.3,0.1-0.4c2.2-4.5,0.3-9.1-1.8-14c-1.8-3.5-2.8-7.4-3.1-11.3
		c0-6.2,4.6-6.7,4.7-6.7c0.5,0,1,0.4,1,0.9c0,0.5-0.3,1-0.9,1c0,0,0,0,0,0c-0.3,0-2.9,0.4-2.9,4.8c0.3,3.7,1.3,7.3,2.9,10.6
		c2.1,5.1,4.3,10.3,1.7,15.6C36.9,38,36.6,38.2,36.2,38.2z"/>
</g>
</svg>
