<?xml version="1.0" encoding="utf-8"?>
<!-- Generator: Adobe Illustrator 24.0.1, SVG Export Plug-In . SVG Version: 6.00 Build 0)  -->
<svg version="1.1" id="Layer_1" xmlns="http://www.w3.org/2000/svg" xmlns:xlink="http://www.w3.org/1999/xlink" x="0px" y="0px"
	 viewBox="0 0 20 20" style="enable-background:new 0 0 20 20;" xml:space="preserve">
<style type="text/css">
	.st0{fill:#FE8A3D;}
	.st1{fill:#303441;}
</style>
<g id="icon_sidemenu" transform="translate(-525.23 -158.293)">
	<g id="그룹_188" transform="translate(525.707 158.769)">
		<circle id="타원_56" class="st0" cx="1.8" cy="16" r="1.8"/>
		<circle id="타원_57" class="st0" cx="1.8" cy="9.5" r="1.8"/>
		<circle id="타원_58" class="st0" cx="1.8" cy="3" r="1.8"/>
	</g>
	<g id="그룹_189" transform="translate(525.23 158.293)">
		<path id="패스_913" class="st1" d="M2.3,12.3C1,12.3,0,11.3,0,10c0-1.3,1-2.3,2.3-2.3c1.3,0,2.3,1,2.3,2.3l0,0
			C4.6,11.3,3.5,12.3,2.3,12.3C2.3,12.3,2.3,12.3,2.3,12.3z M2.3,8.6c-0.7,0-1.4,0.6-1.4,1.4c0,0.7,0.6,1.4,1.4,1.4
			c0.7,0,1.4-0.6,1.4-1.4v0C3.6,9.3,3,8.6,2.3,8.6z"/>
		<path id="패스_914" class="st1" d="M19.5,10.5H6.2c-0.3,0-0.5-0.2-0.5-0.5c0-0.3,0.2-0.5,0.5-0.5c0,0,0,0,0,0h13.4
			c0.3,0,0.5,0.2,0.5,0.5C20,10.3,19.8,10.5,19.5,10.5C19.5,10.5,19.5,10.5,19.5,10.5z"/>
		<path id="패스_915" class="st1" d="M2.3,5.8C1,5.8,0,4.7,0,3.5s1-2.3,2.3-2.3c1.3,0,2.3,1,2.3,2.3l0,0C4.6,4.7,3.5,5.8,2.3,5.8
			L2.3,5.8z M2.3,2.1c-0.7,0-1.4,0.6-1.4,1.4c0,0.7,0.6,1.4,1.4,1.4c0.7,0,1.4-0.6,1.4-1.4v0l0,0C3.6,2.7,3,2.1,2.3,2.1
			C2.3,2.1,2.3,2.1,2.3,2.1L2.3,2.1z"/>
		<path id="패스_916" class="st1" d="M19.5,3.9H6.2c-0.3,0-0.5-0.2-0.5-0.5C5.7,3.2,5.9,3,6.1,3c0,0,0,0,0,0h13.4
			C19.8,3,20,3.2,20,3.5C20,3.7,19.8,3.9,19.5,3.9C19.5,3.9,19.5,3.9,19.5,3.9z"/>
		<path id="패스_917" class="st1" d="M2.3,18.8c-1.3,0-2.3-1-2.3-2.3s1-2.3,2.3-2.3c1.3,0,2.3,1,2.3,2.3
			C4.6,17.8,3.5,18.8,2.3,18.8z M2.3,15.2c-0.7,0-1.4,0.6-1.4,1.4c0,0.7,0.6,1.4,1.4,1.4c0.7,0,1.4-0.6,1.4-1.4v0l0,0
			C3.6,15.8,3,15.2,2.3,15.2z"/>
		<path id="패스_918" class="st1" d="M19.5,17H6.2c-0.3,0-0.5-0.2-0.5-0.5c0-0.3,0.2-0.5,0.5-0.5c0,0,0,0,0,0h13.4
			c0.3,0,0.5,0.2,0.5,0.5C20,16.8,19.8,17,19.5,17C19.5,17,19.5,17,19.5,17z"/>
	</g>
</g>
</svg>
