<?xml version="1.0" encoding="utf-8"?>
<!-- Generator: Adobe Illustrator 24.0.1, SVG Export Plug-In . SVG Version: 6.00 Build 0)  -->
<svg version="1.1" id="Layer_1" xmlns="http://www.w3.org/2000/svg" xmlns:xlink="http://www.w3.org/1999/xlink" x="0px" y="0px"
	 viewBox="0 0 44 44" style="enable-background:new 0 0 44 44;" xml:space="preserve">
<style type="text/css">
	.st0{fill:#303441;}
	.st1{fill:#F4A100;}
</style>
<g>
	<g id="Colour" transform="translate(0.742 0.742)">
		<path class="st0" d="M13,27.7c-0.3-1.3-1.4-2.4-2.7-2.7H8.8c-0.4,0-0.7,0.3-0.7,0.7v5.9c0,0.4,0.3,0.7,0.7,0.7h1.5
			C12.3,31.8,13.5,29.7,13,27.7z M10.3,30.8H9.6v-1.5h0.7c0.4,0,0.7,0.3,0.7,0.7C11,30.5,10.7,30.8,10.3,30.8z M10.3,27.9H9.6v-1.5
			h0.7c0.4,0,0.7,0.4,0.7,0.8C11,27.6,10.7,27.9,10.3,27.9z"/>
		<path class="st0" d="M13.2,39.4L11,34.3c-0.2-0.4-0.6-0.5-1-0.4c-0.2,0.1-0.3,0.2-0.4,0.4l-2.2,5c-0.1,0.4,0,0.8,0.4,1
			c0.4,0.2,0.8,0,1-0.4l0.4-1h2.2l0.4,1c0.2,0.4,0.6,0.5,1,0.4C13.2,40.1,13.3,39.7,13.2,39.4z M9.9,37.4l0.5-1.1l0.4,1.1H9.9z"/>
		<path class="st0" d="M13.2,22.5L11,17.3c-0.2-0.4-0.6-0.5-1-0.4c-0.2,0.1-0.3,0.2-0.4,0.4l-2.2,5.1c-0.1,0.4,0,0.9,0.4,1
			c0.4,0.2,0.8,0,1-0.4l0.4-1h2.2l0.4,1c0.2,0.4,0.6,0.5,1,0.4C13.2,23.2,13.3,22.8,13.2,22.5z M9.9,20.6l0.5-1.1l0.4,1.1H9.9z"/>
		<path class="st0" d="M18.4,28.7c-0.1,0.4-0.4,0.7-0.8,0.7h-2.9c-0.1,0-0.1,0-0.1,0c-0.4-0.1-0.7-0.4-0.7-0.8
			c0.1-0.4,0.4-0.7,0.8-0.7h2.9C18.1,27.9,18.4,28.3,18.4,28.7z"/>
		<path class="st0" d="M18.4,37.5c-0.1,0.4-0.4,0.7-0.8,0.7h-0.7v0.7c0,0.4-0.3,0.7-0.7,0.7c-0.4,0-0.8-0.3-0.8-0.7v-0.7h-0.7
			c-0.1,0-0.1,0-0.1,0c-0.4-0.1-0.7-0.4-0.7-0.8c0.1-0.4,0.4-0.7,0.8-0.7h0.7V36c0-0.1,0-0.1,0-0.1c0.1-0.4,0.4-0.7,0.8-0.7
			c0.4,0.1,0.7,0.4,0.7,0.8v0.7h0.7c0.1,0,0.1,0,0.1,0C18.1,36.8,18.4,37.1,18.4,37.5z"/>
		<path class="st0" d="M18.3,20.6c0,0.4-0.3,0.7-0.7,0.7h-0.7v0.6c0,0.1,0,0.1,0,0.1c-0.1,0.4-0.4,0.7-0.8,0.7
			c-0.4-0.1-0.7-0.4-0.7-0.8v-0.7h-0.7c-0.4,0-0.7-0.3-0.7-0.7c0-0.4,0.3-0.7,0.7-0.7h0.7v-0.7c0-0.4,0.3-0.7,0.7-0.7
			c0.4,0,0.8,0.3,0.8,0.7v0.7h0.7C18,19.8,18.4,20.2,18.3,20.6z"/>
		<path class="st0" d="M18,3.7H9.9c-0.6,0-1.1,0.4-1.1,1v8.2c0,0.6,0.5,1.1,1.1,1.1H18c0.6,0,1.1-0.5,1.1-1.1V4.8
			C19.1,4.2,18.6,3.7,18,3.7z M14,10.3c-0.8,0-1.5-0.7-1.5-1.5s0.7-1.5,1.5-1.5s1.5,0.7,1.5,1.5S14.8,10.3,14,10.3z M16.1,13.3H12
			c0.2-0.9,1-1.5,2-1.5C14.9,11.8,15.8,12.4,16.1,13.3z M17.6,13.2c-0.1-0.5-0.3-1.1-0.7-1.5c-0.2-0.3-0.5-0.6-0.8-0.8
			c0.5-0.4,0.7-0.9,0.8-1.5C17,9,17,8.5,16.9,8.1c-0.1-0.5-0.4-1-0.7-1.4c-1.1-1.2-3-1.2-4.1-0.1c-1.2,1.1-1.2,3-0.1,4.1
			c0,0,0,0,0.1,0.1c-0.8,0.5-1.4,1.4-1.5,2.3h-0.3c-0.4,0-0.7-0.3-0.7-0.7V5.2c0-0.4,0.3-0.7,0.7-0.7h7.3c0.4,0,0.7,0.3,0.7,0.7v7.3
			h0.1c0,0.4-0.3,0.7-0.7,0.7H17.6z"/>
		<path class="st0" d="M25.7,36c0,0.4-0.3,0.7-0.7,0.7h-3.7c-0.4,0-0.7-0.3-0.7-0.7c0-0.4,0.3-0.7,0.7-0.7H25
			C25.4,35.3,25.7,35.6,25.7,36z"/>
		<path class="st0" d="M25.8,27.2c-0.1,0.4-0.4,0.7-0.8,0.7h-3.7c-0.5,0-0.8-0.4-0.8-0.8c0.1-0.4,0.4-0.7,0.8-0.7H25
			c0.1,0,0.1,0,0.1,0C25.5,26.5,25.8,26.8,25.8,27.2z"/>
		<path class="st0" d="M25.8,19.1c-0.1,0.4-0.4,0.7-0.8,0.7h-3.7c-0.4,0-0.7-0.3-0.7-0.7c0-0.4,0.3-0.7,0.7-0.8H25
			c0.1,0,0.1,0,0.1,0C25.5,18.4,25.8,18.7,25.8,19.1z"/>
		<path class="st0" d="M27.9,38.9c0,0.4-0.3,0.7-0.7,0.7h-5.9c-0.4,0-0.7-0.3-0.7-0.7c0-0.4,0.3-0.7,0.7-0.7h5.9
			C27.6,38.2,27.9,38.5,27.9,38.9z"/>
		<path class="st0" d="M27.9,30.1c0,0.4-0.3,0.7-0.7,0.7h-5.9c-0.4,0-0.7-0.3-0.7-0.7c0-0.4,0.3-0.7,0.7-0.7h5.9
			C27.6,29.4,27.9,29.7,27.9,30.1z"/>
		<path class="st0" d="M28,22.1c-0.1,0.4-0.4,0.7-0.8,0.7h-5.9c-0.5,0-0.8-0.4-0.8-0.8c0.1-0.4,0.4-0.7,0.8-0.7h5.9
			c0.1,0,0.1,0,0.1,0C27.7,21.4,28,21.7,28,22.1z"/>
		<path class="st0" d="M33.7,13.7c0,0.4-0.3,0.7-0.7,0.7c-0.9,0.1-1.9,0-2.8-0.3L29.8,14c-0.3-0.1-0.5-0.2-0.8-0.3
			c-0.1,0.2-0.2,0.2-0.4,0.3c-0.5,0.1-1.1,0.1-1.5-0.2c-0.3-0.1-0.5-0.3-0.7-0.5c-0.1,0.2-0.2,0.3-0.3,0.4c-0.4,0.4-0.9,0.7-1.5,0.9
			c-0.4,0.2-0.8,0-1-0.4c-0.2-0.3,0-0.8,0.1-1c0.4-0.1,0.8-0.3,1.1-0.6c0.3-0.2,0.4-0.6,0.4-0.9c0-0.3,0.2-0.6,0.5-0.7
			c0.4-0.2,0.9,0,1,0.4c0.1,0.5,0.5,0.9,0.9,1.1c0.1,0.1,0.2,0.1,0.3,0.1c0-0.4,0.2-0.7,0.6-0.8c0.4-0.1,0.8,0.1,0.9,0.4
			c0,0.1,0.1,0.3,0.6,0.4l0.5,0.1c0.8,0.2,1.6,0.3,2.4,0.3c0.1,0,0.1,0,0.1,0C33.4,13,33.7,13.3,33.7,13.7z"/>
		<path class="st0" d="M33.7,5.9c0,0.4-0.3,0.7-0.7,0.7h-8.8c-0.4,0-0.7-0.3-0.7-0.7c0-0.4,0.3-0.7,0.7-0.7H33
			C33.4,5.2,33.7,5.5,33.7,5.9z"/>
		<path class="st0" d="M33.8,27.2c-0.1,0.4-0.4,0.7-0.8,0.7h-5.1c-0.4,0-0.7-0.3-0.7-0.7c0-0.4,0.3-0.8,0.7-0.8H33
			C33.5,26.4,33.8,26.8,33.8,27.2z"/>
		<path class="st0" d="M33.8,19.2c-0.1,0.4-0.4,0.7-0.8,0.7h-5.1c-0.1,0-0.1,0-0.1,0c-0.4-0.1-0.7-0.4-0.7-0.8
			c0.1-0.4,0.4-0.7,0.8-0.7H33C33.5,18.4,33.8,18.7,33.8,19.2z"/>
		<path class="st0" d="M33.8,8.9c-0.1,0.4-0.4,0.7-0.8,0.7h-8.8c-0.4,0-0.7-0.4-0.8-0.8c0.1-0.4,0.4-0.7,0.8-0.7H33
			c0.1,0,0.1,0,0.1,0C33.5,8.2,33.8,8.5,33.8,8.9z"/>
		<path class="st0" d="M33.7,35.9c0,0.4-0.3,0.7-0.7,0.7h-5.1c-0.4,0-0.7-0.3-0.7-0.7c0-0.4,0.3-0.7,0.7-0.7H33
			C33.4,35.2,33.8,35.6,33.7,35.9z"/>
		<path class="st0" d="M18,3.7H9.9c-0.6,0-1.1,0.4-1.1,1v8.2c0,0.6,0.5,1.1,1.1,1.1H18c0.6,0,1.1-0.5,1.1-1.1V4.8
			C19.1,4.2,18.6,3.7,18,3.7z M14,10.3c-0.8,0-1.5-0.7-1.5-1.5s0.7-1.5,1.5-1.5s1.5,0.7,1.5,1.5S14.8,10.3,14,10.3z M16.1,13.3H12
			c0.2-0.9,1-1.5,2-1.5C14.9,11.8,15.8,12.4,16.1,13.3z M17.6,13.2c-0.1-0.5-0.3-1.1-0.7-1.5c-0.2-0.3-0.5-0.6-0.8-0.8
			c0.5-0.4,0.7-0.9,0.8-1.5C17,9,17,8.5,16.9,8.1c-0.1-0.5-0.4-1-0.7-1.4c-1.1-1.2-3-1.2-4.1-0.1c-1.2,1.1-1.2,3-0.1,4.1
			c0,0,0,0,0.1,0.1c-0.8,0.5-1.4,1.4-1.5,2.3h-0.3c-0.4,0-0.7-0.3-0.7-0.7V5.2c0-0.4,0.3-0.7,0.7-0.7h7.3c0.4,0,0.7,0.3,0.7,0.7v7.3
			h0.1c0,0.4-0.3,0.7-0.7,0.7H17.6z"/>
		<path class="st0" d="M16.9,9.4V8.1C17,8.5,17,9,16.9,9.4z"/>
		<path class="st0" d="M19.1,5.1v7.4c0,0.8-0.7,1.5-1.5,1.5h-2.2c0.1,0,0.1,0,0.2,0c0.5-0.1,0.9-0.4,1.1-0.8
			c0.1-0.2,0.2-0.4,0.2-0.7v-0.8c0.3,0.4,0.5,1,0.7,1.5h0.1c0.4,0,0.7-0.3,0.7-0.7h-0.1V5.2c0-0.4-0.3-0.7-0.7-0.7h-0.9
			c-0.3-0.5-0.8-0.8-1.3-0.8h2.2C18.4,3.7,19.1,4.3,19.1,5.1z"/>
		<g id="그룹_317" transform="translate(5.932 6.674)">
			<path class="st0" d="M8-0.1c-1.2,0-2.2,1-2.2,2.2c0,1.2,1,2.2,2.2,2.2c1.2,0,2.2-1,2.2-2.2C10.2,0.9,9.2-0.1,8-0.1z M8,3.6
				c-0.8,0-1.5-0.7-1.5-1.5S7.2,0.6,8,0.6s1.5,0.7,1.5,1.5S8.8,3.6,8,3.6z"/>
			<path class="st0" d="M10.8,6.5C10.4,5.3,9.3,4.4,8,4.4c-1.6,0-2.9,1.3-2.9,2.9h5.8C10.9,7,10.9,6.8,10.8,6.5z M6,6.6
				c0.2-0.9,1-1.5,2-1.5c0.9,0,1.8,0.6,2.1,1.5H6z"/>
		</g>
	</g>
	<g id="outline">
		<g id="그룹_318">
			<path class="st0" d="M35.2,0H8.8c-2,0-3.7,1.6-3.7,3.7v36.6c0,0,0,0,0,0.1c0,2,1.6,3.7,3.7,3.7h26.4c2,0,3.7-1.6,3.7-3.7V3.7
				C38.9,1.6,37.2,0,35.2,0z M37.4,40.4c0,1.2-1,2.2-2.2,2.2H8.8c-1.2,0-2.2-1-2.2-2.2V3.7c0-1.2,1-2.2,2.2-2.2h26.4
				c1.2,0,2.2,1,2.2,2.2V40.4z"/>
			<path id="Shape-6" class="st0" d="M18.7,4.4h-8.1c-0.6,0-1.1,0.4-1.1,1v8.2c0,0.6,0.5,1.1,1.1,1.1h8.1c0.6,0,1.1-0.5,1.1-1.1V5.5
				C19.8,4.9,19.3,4.4,18.7,4.4z M14.7,11c-0.8,0-1.5-0.7-1.5-1.5S13.9,8,14.7,8s1.5,0.7,1.5,1.5S15.5,11,14.7,11z M16.8,14h-4.1
				c0.2-0.9,1-1.5,2-1.5C15.6,12.5,16.5,13.1,16.8,14z M18.3,13.9c-0.1-0.5-0.3-1.1-0.7-1.5c-0.2-0.3-0.5-0.6-0.8-0.8
				c0.5-0.4,0.7-0.9,0.8-1.5c0.1-0.4,0.1-0.8,0-1.2c-0.1-0.5-0.4-1-0.7-1.4c-1.1-1.2-3-1.2-4.1-0.1c-1.2,1.1-1.2,3-0.1,4.1
				c0,0,0,0,0.1,0.1c-0.8,0.5-1.4,1.4-1.5,2.3H11c-0.4,0-0.7-0.3-0.7-0.7V5.9c0-0.4,0.3-0.7,0.7-0.7h7.3c0.4,0,0.7,0.3,0.7,0.7v7.3
				h0.1c0,0.4-0.3,0.7-0.7,0.7H18.3z"/>
			<path class="st0" d="M18.3,3.7H11c-1.2,0-2.2,1-2.2,2.2v7.3c0,1.2,1,2.2,2.2,2.2h7.3c1.2,0,2.2-1,2.2-2.2V5.9
				C20.5,4.7,19.5,3.7,18.3,3.7z M19.8,13.6c0,0.6-0.5,1.1-1.1,1.1h-8.1c-0.6,0-1.1-0.5-1.1-1.1V5.4c0-0.6,0.5-1,1.1-1h8.1
				c0.6,0,1.1,0.5,1.1,1.1V13.6z"/>
			<path class="st1" d="M19.1,13.2c0,0.4-0.3,0.7-0.7,0.7h-0.1c-0.1-0.5-0.3-1.1-0.7-1.5c-0.2-0.3-0.5-0.6-0.8-0.8
				c0.5-0.4,0.7-0.9,0.8-1.5c0.1-0.4,0.1-0.8,0-1.2c-0.1-0.5-0.4-1-0.7-1.4c-1.1-1.2-3-1.2-4.1-0.1c-1.2,1.1-1.2,3-0.1,4.1
				c0,0,0,0,0.1,0.1c-0.8,0.5-1.4,1.4-1.5,2.3H11c-0.4,0-0.7-0.3-0.7-0.7V5.9c0-0.4,0.3-0.7,0.7-0.7h7.3c0.4,0,0.7,0.3,0.7,0.7
				L19.1,13.2L19.1,13.2z"/>
			<path class="st0" d="M34.4,6.6c0,0.4-0.3,0.7-0.7,0.7h-8.8c-0.4,0-0.7-0.3-0.7-0.7c0-0.4,0.3-0.7,0.7-0.7h8.8
				C34.1,5.9,34.4,6.2,34.4,6.6z"/>
			<path class="st0" d="M34.5,9.6c-0.1,0.4-0.4,0.7-0.8,0.7h-8.8c-0.4,0-0.7-0.4-0.8-0.8c0.1-0.4,0.4-0.7,0.8-0.7h8.8
				c0.1,0,0.1,0,0.1,0C34.2,8.9,34.5,9.2,34.5,9.6z"/>
			<path class="st0" d="M34.4,14.4c0,0.4-0.3,0.7-0.7,0.7c-0.9,0.1-1.9,0-2.8-0.3l-0.4-0.1c-0.3-0.1-0.5-0.2-0.8-0.3
				c-0.1,0.2-0.2,0.2-0.4,0.3c-0.5,0.1-1.1,0.1-1.5-0.2c-0.3-0.1-0.5-0.3-0.7-0.5c-0.1,0.2-0.2,0.3-0.3,0.4
				c-0.4,0.4-0.9,0.7-1.5,0.9c-0.4,0.2-0.8,0-1-0.4c-0.2-0.3,0-0.8,0.1-1c0.4-0.1,0.8-0.3,1.1-0.6c0.3-0.2,0.4-0.6,0.4-0.9
				c0-0.3,0.2-0.6,0.5-0.7c0.4-0.2,0.9,0,1,0.4c0.1,0.5,0.5,0.9,0.9,1.1c0.1,0.1,0.2,0.1,0.3,0.1c0-0.4,0.2-0.7,0.6-0.8
				c0.4-0.1,0.8,0.1,0.9,0.4c0,0.1,0.1,0.3,0.6,0.4l0.5,0.1c0.8,0.2,1.6,0.3,2.4,0.3c0.1,0,0.1,0,0.1,0C34.1,13.7,34.4,14,34.4,14.4
				z"/>
			<path class="st0" d="M26.5,19.8c-0.1,0.4-0.4,0.7-0.8,0.7H22c-0.4,0-0.7-0.3-0.7-0.7c0-0.4,0.3-0.7,0.7-0.8h3.7
				c0.1,0,0.1,0,0.1,0C26.2,19.1,26.5,19.4,26.5,19.8z"/>
			<path class="st0" d="M34.5,19.9c-0.1,0.4-0.4,0.7-0.8,0.7h-5.1c-0.1,0-0.1,0-0.1,0c-0.4-0.1-0.7-0.4-0.7-0.8
				c0.1-0.4,0.4-0.7,0.8-0.7h5.1C34.2,19.1,34.5,19.4,34.5,19.9z"/>
			<path class="st0" d="M28.7,22.8c-0.1,0.4-0.4,0.7-0.8,0.7H22c-0.5,0-0.8-0.4-0.8-0.8c0.1-0.4,0.4-0.7,0.8-0.7h5.9
				c0.1,0,0.1,0,0.1,0C28.4,22.1,28.7,22.4,28.7,22.8z"/>
			<path class="st0" d="M26.5,27.9c-0.1,0.4-0.4,0.7-0.8,0.7H22c-0.5,0-0.8-0.4-0.8-0.8c0.1-0.4,0.4-0.7,0.8-0.7h3.7
				c0.1,0,0.1,0,0.1,0C26.2,27.2,26.5,27.5,26.5,27.9z"/>
			<path class="st0" d="M34.5,27.9c-0.1,0.4-0.4,0.7-0.8,0.7h-5.1c-0.4,0-0.7-0.3-0.7-0.7c0-0.4,0.3-0.8,0.7-0.8h5.1
				C34.2,27.1,34.5,27.5,34.5,27.9z"/>
			<path class="st0" d="M28.6,30.8c0,0.4-0.3,0.7-0.7,0.7H22c-0.4,0-0.7-0.3-0.7-0.7c0-0.4,0.3-0.7,0.7-0.7h5.9
				C28.3,30.1,28.6,30.4,28.6,30.8z"/>
			<path id="Shape-16" class="st0" d="M13.9,23.2L11.7,18c-0.2-0.4-0.6-0.5-1-0.4c-0.2,0.1-0.3,0.2-0.4,0.4l-2.2,5.1
				c-0.1,0.4,0,0.9,0.4,1c0.4,0.2,0.8,0,1-0.4l0.4-1h2.2l0.4,1c0.2,0.4,0.6,0.5,1,0.4C13.9,23.9,14,23.5,13.9,23.2z M10.6,21.3
				l0.5-1.1l0.4,1.1H10.6z"/>
			<path class="st0" d="M19,21.3c0,0.4-0.3,0.7-0.7,0.7h-0.7v0.6c0,0.1,0,0.1,0,0.1c-0.1,0.4-0.4,0.7-0.8,0.7
				c-0.4-0.1-0.7-0.4-0.7-0.8v-0.7h-0.7c-0.4,0-0.7-0.3-0.7-0.7c0-0.4,0.3-0.7,0.7-0.7h0.7v-0.7c0-0.4,0.3-0.7,0.7-0.7
				c0.4,0,0.8,0.3,0.8,0.7v0.7h0.7C18.7,20.5,19.1,20.9,19,21.3z"/>
			<path class="st0" d="M19.1,29.4c-0.1,0.4-0.4,0.7-0.8,0.7h-2.9c-0.1,0-0.1,0-0.1,0c-0.4-0.1-0.7-0.4-0.7-0.8
				c0.1-0.4,0.4-0.7,0.8-0.7h2.9C18.8,28.6,19.1,29,19.1,29.4z"/>
			<path class="st0" d="M26.4,36.7c0,0.4-0.3,0.7-0.7,0.7H22c-0.4,0-0.7-0.3-0.7-0.7c0-0.4,0.3-0.7,0.7-0.7h3.7
				C26.1,36,26.4,36.3,26.4,36.7z"/>
			<path class="st0" d="M34.4,36.6c0,0.4-0.3,0.7-0.7,0.7h-5.1c-0.4,0-0.7-0.3-0.7-0.7c0-0.4,0.3-0.7,0.7-0.7h5.1
				C34.1,35.9,34.5,36.3,34.4,36.6z"/>
			<path class="st0" d="M28.6,39.6c0,0.4-0.3,0.7-0.7,0.7H22c-0.4,0-0.7-0.3-0.7-0.7c0-0.4,0.3-0.7,0.7-0.7h5.9
				C28.3,38.9,28.6,39.2,28.6,39.6z"/>
			<path id="Shape-22" class="st0" d="M13.9,40.1L11.7,35c-0.2-0.4-0.6-0.5-1-0.4c-0.2,0.1-0.3,0.2-0.4,0.4l-2.2,5
				c-0.1,0.4,0,0.8,0.4,1s0.8,0,1-0.4l0.4-1h2.2l0.4,1c0.2,0.4,0.6,0.5,1,0.4C13.9,40.8,14,40.4,13.9,40.1z M10.6,38.1l0.5-1.1
				l0.4,1.1H10.6z"/>
			<path class="st0" d="M19.1,38.2c-0.1,0.4-0.4,0.7-0.8,0.7h-0.7v0.7c0,0.4-0.3,0.7-0.7,0.7c-0.4,0-0.8-0.3-0.8-0.7v-0.7h-0.7
				c-0.1,0-0.1,0-0.1,0c-0.4-0.1-0.7-0.4-0.7-0.8c0.1-0.4,0.4-0.7,0.8-0.7h0.7v-0.7c0-0.1,0-0.1,0-0.1c0.1-0.4,0.4-0.7,0.8-0.7
				c0.4,0.1,0.7,0.4,0.7,0.8v0.7h0.7c0.1,0,0.1,0,0.1,0C18.8,37.5,19.1,37.8,19.1,38.2z"/>
			<path id="Shape-24" class="st0" d="M13.7,28.4c-0.3-1.3-1.4-2.4-2.7-2.7H9.5c-0.4,0-0.7,0.3-0.7,0.7v5.9c0,0.4,0.3,0.7,0.7,0.7
				H11C13,32.5,14.2,30.4,13.7,28.4z M11,31.5h-0.7V30H11c0.4,0,0.7,0.3,0.7,0.7C11.7,31.2,11.4,31.5,11,31.5z M11,28.6h-0.7v-1.5
				H11c0.4,0,0.7,0.4,0.7,0.8C11.7,28.3,11.4,28.6,11,28.6z"/>
		</g>
	</g>
</g>
</svg>
