<?xml version="1.0" encoding="utf-8"?>
<!-- Generator: Adobe Illustrator 24.0.1, SVG Export Plug-In . SVG Version: 6.00 Build 0)  -->
<svg version="1.1" id="Layer_1" xmlns="http://www.w3.org/2000/svg" xmlns:xlink="http://www.w3.org/1999/xlink" x="0px" y="0px"
	 viewBox="0 0 44 44" style="enable-background:new 0 0 44 44;" xml:space="preserve">
<style type="text/css">
	.st0{fill:#FFFFFF;}
	.st1{fill:#F4A100;}
	.st2{fill:#303441;}
</style>
<g>
	<g id="그룹_323" transform="translate(0.004 0.001)">
		<g id="그룹_320" transform="translate(30.364 18.025)">
			<g id="그룹_319">
				<path id="패스_1109" class="st0" d="M1.2,0.8c0,0.5-0.4,0.9-0.8,0.9l0,0H0.3c-0.5,0-0.9-0.4-0.9-0.9s0.4-0.9,0.9-0.9h0.1
					C0.8-0.1,1.2,0.3,1.2,0.8L1.2,0.8z"/>
			</g>
		</g>
		<g id="그룹_322">
			<g id="그룹_321">
				<path id="패스_1110" class="st0" d="M4.5,16.3c0.1-0.8,0.4-1.4,0.8-2C4.9,14.8,4.6,15.5,4.5,16.3z M5.9,32
					c-0.8,0.7-1.3,1.7-1.4,2.7C4.6,33.6,5.1,32.7,5.9,32C6,32,6,32,5.9,32z M5.9,25.9c-0.8,0.7-1.3,1.7-1.4,2.7
					C4.6,27.5,5.1,26.6,5.9,25.9C6,25.9,6,25.9,5.9,25.9z M5.9,19.7c-0.8,0.7-1.3,1.7-1.4,2.7C4.6,21.4,5.1,20.5,5.9,19.7
					C6,19.8,6,19.8,5.9,19.7z M28.9,4.2c0-0.2,0-0.4,0-0.5c0.1,0.9-0.1,1.9-0.7,2.7C28.7,5.7,28.9,5,28.9,4.2z M40,19
					c-1.2-1.2-2.6-2.2-4.1-3C37.4,16.8,38.8,17.9,40,19c2,2.3,3.3,4.9,3.7,7.7C43.3,23.9,42,21.2,40,19z M29.6,17.6
					c-6.8,0-12.4,5.6-12.4,12.4c0,3.2,1.2,6.1,3.2,8.3c0,0,0,0,0,0c2.3,2.3,5.5,3.7,9,3.7c5.3,0,9.9-3.2,11.9-7.8c0,0,0-0.1,0-0.1
					c0.4-1.3,0.7-2.6,0.7-4C42,23.1,36.4,17.6,29.6,17.6z M29.9,18.3c0,0,0.1-0.1,0.1-0.1c0,0,0.1-0.1,0.1-0.1c0,0,0,0,0,0l0,0
					c0,0,0.1,0,0.1,0c0,0,0,0,0,0c0.1-0.1,0.2-0.1,0.4-0.1h0.1c0.5,0,0.9,0.4,0.9,0.9c0,0.1,0,0.1,0,0.2c0,0,0,0,0,0
					c-0.1,0.2-0.2,0.3-0.3,0.5l0,0c-0.2,0.1-0.4,0.2-0.6,0.2c-0.5,0-0.9-0.4-0.9-0.9c0-0.1,0-0.2,0.1-0.3
					C29.9,18.4,29.9,18.3,29.9,18.3C29.9,18.3,29.9,18.3,29.9,18.3z"/>
			</g>
		</g>
	</g>
	<path class="st1" d="M42,30c0,1.4-0.2,2.8-0.7,4c0,0,0,0.1,0,0.1c-2,4.6-6.6,7.8-11.9,7.8c-3.5,0-6.7-1.4-9-3.7c0,0,0,0,0,0
		c-2-2.2-3.2-5.1-3.2-8.3c0-6.8,5.5-12.4,12.4-12.4C36.5,17.6,42,23.2,42,30z"/>
	<g id="그룹_336">
		<g id="그룹_325" transform="translate(26.256 22.163)">
			<g id="그룹_324">
				<path id="패스_1111" class="st2" d="M3.1,6.1C2.2,6,1.6,5.1,1.7,4.2s1-1.5,1.9-1.4C4.4,2.9,5,3.6,5,4.4c0,0.5,0.4,0.9,0.9,0.9
					s0.9-0.4,0.9-0.9c0-1.6-1.2-2.9-2.8-3.3V0.7c0-0.5-0.4-0.9-0.9-0.9S2.2,0.2,2.2,0.7v0.4C0.7,1.5-0.5,2.8-0.5,4.4
					c0.1,1.9,1.7,3.4,3.6,3.4c0.9,0.1,1.5,1,1.4,1.9s-1,1.5-1.9,1.4C1.8,11,1.2,10.3,1.2,9.5c0-0.5-0.4-0.9-0.9-0.9S-0.6,9-0.6,9.5
					c0,1.6,1.2,2.9,2.8,3.3v0.4c0,0.5,0.4,0.9,0.9,0.9S4,13.7,4,13.2v-0.4c1.6-0.3,2.7-1.7,2.8-3.3C6.6,7.5,5,6,3.1,6.1z"/>
			</g>
		</g>
		<g id="그룹_327" transform="translate(33.606 19.064)">
			<g id="그룹_326">
				<path id="패스_1112" class="st2" d="M5.2,4C4.1,2.3,2.5,0.9,0.6,0C0.2-0.2-0.3,0-0.6,0.4s0,0.9,0.4,1.2l0,0
					c4.7,2.3,6.7,7.9,4.4,12.6c-0.1,0.1-0.1,0.2-0.2,0.3c-0.2,0.4-0.1,0.9,0.4,1.2c0.4,0.2,0.9,0.1,1.2-0.4l0,0
					C7.5,11.8,7.4,7.5,5.2,4L5.2,4z"/>
			</g>
		</g>
		<g id="그룹_329" transform="translate(30.375 18.032)">
			<g id="그룹_328">
				<path id="패스_1113" class="st2" d="M0.3-0.1L0.3-0.1c-0.5,0-0.9,0.4-0.9,0.9s0.4,0.9,0.9,0.9h0.1c0.5,0,0.9-0.4,0.9-0.9
					C1.2,0.3,0.8-0.1,0.3-0.1L0.3-0.1z"/>
			</g>
		</g>
		<g id="그룹_331" transform="translate(18.557 23.609)">
			<g id="그룹_330">
				<path id="패스_1114" class="st2" d="M6.7,14.1C2,11.8,0,6.2,2.3,1.4c0.1-0.1,0.1-0.2,0.2-0.3c0.2-0.4,0.1-0.9-0.3-1.2
					S1.2-0.2,1,0.2c0,0,0,0,0,0.1c-3,5.4-0.9,12.2,4.6,15.1c0.1,0.1,0.3,0.1,0.4,0.2c0.4,0.2,0.9,0,1.1-0.4
					C7.3,14.8,7.1,14.3,6.7,14.1L6.7,14.1z"/>
			</g>
		</g>
		<g id="그룹_333" transform="translate(27.694 39.04)">
			<g id="그룹_332">
				<path id="패스_1115" class="st2" d="M0.4-0.4L0.4-0.4c-0.5,0-0.9,0.4-0.9,0.9s0.4,0.9,0.9,0.9l0,0h0.1C1,1.4,1.4,1,1.4,0.5
					C1.2,0,0.9-0.4,0.4-0.4L0.4-0.4z"/>
			</g>
		</g>
		<g id="그룹_335">
			<g id="그룹_334">
				<path id="패스_1116" class="st2" d="M5.4,31.3c-0.5-0.6-0.8-1.4-0.9-2.1c0,0.8,0.3,1.5,0.9,2.2c0.2,0.2,0.4,0.4,0.5,0.6
					c0,0,0,0,0.1-0.1C5.8,31.8,5.6,31.5,5.4,31.3z M5.4,25.2c-0.5-0.6-0.8-1.4-0.9-2.1C4.6,23.9,4.8,24.6,5.4,25.2
					c0.2,0.3,0.4,0.5,0.5,0.7c0,0,0,0,0.1-0.1C5.8,25.7,5.6,25.4,5.4,25.2z M4.7,17.9c0.2,0.7,0.7,1.4,1.2,1.8c0,0,0,0,0.1,0
					C5.4,19.3,5,18.6,4.7,17.9z M27.2,0.9c-0.7-0.5-1.4-0.7-2.2-0.7c1.6,0,3,1.1,3.6,2.5C28.4,2,27.9,1.4,27.2,0.9z"/>
				<path class="st2" d="M43.9,27.8c0-0.2,0-0.4-0.1-0.6c0-0.2,0-0.4-0.1-0.5c-0.5-2.7-1.7-5.4-3.7-7.6c-1.2-1.2-2.6-2.3-4.1-3.1
					c-0.2-0.1-0.5-0.2-0.7-0.3c-0.6-0.3-1.2-0.5-1.9-0.7c-0.1-0.2-0.2-0.5-0.4-0.7h2.2c0.3,0,0.5,0,0.8-0.1c1.8-0.3,3.2-1.9,3.2-3.8
					c0-2.2-1.7-4-3.9-4h-7c0.5-0.8,0.8-1.8,0.7-2.7c0-0.1,0-0.2-0.1-0.3c0-0.1,0-0.2-0.1-0.3c0-0.1-0.1-0.2-0.1-0.3
					c-0.6-1.4-2-2.5-3.6-2.5H3.9C1.7,0.3,0,2.1,0,4.3c0,2.1,1.8,3.9,3.9,3.9h6.9c-0.9,1.3-0.9,3.1,0,4.5H8.5c-0.4,0-0.8,0.1-1.2,0.2
					c-0.6,0.2-1.1,0.5-1.5,0.9c-0.2,0.2-0.3,0.3-0.5,0.5c-0.4,0.6-0.7,1.3-0.8,2c0,0.1,0,0.3,0,0.4c0,0.1,0,0.3,0,0.4
					c0,0.1,0,0.2,0,0.3c0,0,0,0.1,0,0.1c0,0.1,0.1,0.3,0.1,0.4C5,18.6,5.4,19.3,6,19.7c0,0,0,0-0.1,0c0,0,0,0,0.1,0
					c-0.8,0.7-1.3,1.7-1.5,2.6c0,0.2,0,0.4,0,0.7c0.1,0.7,0.4,1.5,0.9,2.1c0.2,0.2,0.4,0.5,0.6,0.6c0,0,0,0-0.1,0.1c0,0,0,0,0.1,0
					c-0.8,0.7-1.3,1.6-1.5,2.6c0,0.2,0,0.4,0,0.7c0.1,0.7,0.4,1.5,0.9,2.1c0.2,0.2,0.4,0.5,0.6,0.6c0,0,0,0-0.1,0.1c0,0,0,0,0.1,0
					c-0.8,0.7-1.3,1.7-1.5,2.7c0,0.2,0,0.4,0,0.7c0,0.8,0.3,1.6,0.9,2.3c0.8,0.9,1.9,1.5,3.1,1.5h10.1c5.5,5.9,14.8,6.2,20.7,0.7
					c2.9-2.7,4.5-6.4,4.6-10.1c0-0.4,0-0.9,0-1.3C43.9,28.2,43.9,28,43.9,27.8z M35.1,8.1c1.2,0,2.2,1,2.2,2.2s-1,2.2-2.2,2.2h-21
					c-1.2,0-2.2-1-2.2-2.2s1-2.2,2.2-2.2H35.1z M3.9,6.4c-1.2,0-2.2-1-2.2-2.2S2.7,2,3.9,2H25c1.2,0,2.2,1,2.2,2.2s-1,2.2-2.2,2.2
					H3.9z M8.5,14.3h21.1c0.3,0,0.7,0.1,1,0.2c-0.4,0-0.8-0.1-1.2-0.1c-3.9,0-7.6,1.5-10.4,4.3H8.5c-1.2,0-2.2-1-2.2-2.2
					S7.3,14.3,8.5,14.3z M8.5,20.5h9c-1,1.4-1.7,2.9-2.2,4.5H8.5c-1.2,0-2.2-1-2.2-2.2C6.3,21.5,7.3,20.5,8.5,20.5z M8.5,26.7h6.4
					c-0.2,1.5-0.3,3-0.1,4.5H8.5c-1.2,0-2.2-1-2.2-2.2C6.3,27.7,7.3,26.7,8.5,26.7z M8.5,37.5L8.5,37.5c-1.2-0.1-2.2-1.1-2.2-2.3
					s1-2.2,2.2-2.2h6.7c0.4,1.6,1.1,3.1,2.1,4.5H8.5z M41.3,34c0,0,0,0.1,0,0.1c-2,4.6-6.6,7.8-11.9,7.8c-3.5,0-6.7-1.4-9-3.7
					c0,0,0,0,0,0c-2.4-2.3-3.9-5.6-3.9-9.2c0-7.1,5.8-12.9,12.9-12.9c7.1,0,12.9,5.8,12.9,12.9C42.3,30.9,42,32.5,41.3,34z"/>
			</g>
		</g>
	</g>
</g>
</svg>
