<?xml version="1.0" encoding="utf-8"?>
<!-- Generator: Adobe Illustrator 24.0.1, SVG Export Plug-In . SVG Version: 6.00 Build 0)  -->
<svg version="1.1" id="Layer_1" xmlns="http://www.w3.org/2000/svg" xmlns:xlink="http://www.w3.org/1999/xlink" x="0px" y="0px"
	 viewBox="0 0 44 44" style="enable-background:new 0 0 44 44;" xml:space="preserve">
<style type="text/css">
	.st0{fill:#F44336;}
	.st1{fill:#F4A100;}
	.st2{fill:#FF8F00;}
	.st3{fill:#303441;}
</style>
<g>
	<g>
		<path class="st0" d="M11.9,41.5c-0.4,0.5-0.9,0.9-1.4,1.3c-2.9-2-3.6-6-1.6-8.9c0.4-0.6,1-1.2,1.6-1.6c0.5,0.3,1,0.8,1.4,1.3
			c-2.2,1.3-2.9,4.1-1.7,6.2C10.6,40.6,11.2,41.1,11.9,41.5L11.9,41.5z"/>
		<path class="st0" d="M5.9,37.6c0,2.1-1,4.1-2.8,5.3c-0.5-0.4-1-0.8-1.4-1.3c1.4-0.8,2.3-2.3,2.3-3.9c0-1.6-0.9-3.1-2.3-3.9
			c0.4-0.5,0.8-1,1.4-1.3C4.9,33.5,5.9,35.5,5.9,37.6z"/>
	</g>
	<path class="st1" d="M35,32.7l-1.8,1.8c-0.2,0.2-0.4,0.3-0.6,0.3c-0.2,0-0.4-0.1-0.6-0.2l-5.5-4.4l-1.4-1.1L2.4,11
		c-2.5-2.5-2.6-6.5-0.2-9.1c0,0,0.1-0.1,0.1-0.1c2.5-2.4,6.6-2.4,9.1,0c0,0,0.1,0,0.1,0.1l18.1,22.7l1.1,1.4l4.4,5.5
		C35.4,31.9,35.4,32.4,35,32.7z"/>
	<polygon class="st2" points="29.6,24.6 25.1,29.1 26.5,30.2 30.7,26 	"/>
	<path class="st3" d="M6.9,44c-3.5,0-6.4-2.9-6.4-6.4c0-3.5,2.9-6.4,6.4-6.4s6.4,2.9,6.4,6.4C13.3,41.1,10.4,44,6.9,44L6.9,44z
		 M6.9,33c-2.5,0-4.6,2.1-4.6,4.6c0,2.5,2.1,4.6,4.6,4.6s4.6-2.1,4.6-4.6C11.5,35,9.4,33,6.9,33L6.9,33z"/>
	<path class="st3" d="M10.5,42.6c-0.2,0-0.4-0.1-0.6-0.2c-2.6-2.3-2.9-6.4-0.5-9c0.2-0.2,0.3-0.4,0.5-0.5c0.3-0.3,0.9-0.3,1.2,0
		c2.6,2.3,2.9,6.4,0.5,9c-0.2,0.2-0.3,0.4-0.5,0.5C11,42.5,10.8,42.6,10.5,42.6z M10.5,34.8c-1.2,1.6-1.2,3.8,0,5.5
		C11.8,38.7,11.8,36.5,10.5,34.8z"/>
	<path class="st3" d="M3.2,42.6c-0.2,0-0.4-0.1-0.6-0.2C-0.1,40-0.3,36,2,33.3c0.2-0.2,0.3-0.4,0.5-0.5c0.3-0.3,0.9-0.3,1.2,0
		c1.4,1.2,2.1,2.9,2.1,4.8c0,1.8-0.8,3.5-2.1,4.8C3.6,42.5,3.4,42.6,3.2,42.6z M3.2,34.8c-1.2,1.6-1.2,3.8,0,5.5
		c0.6-0.8,0.9-1.7,0.9-2.7C4.1,36.6,3.8,35.6,3.2,34.8z"/>
	<path class="st3" d="M32.6,34.8c-0.2,0-0.4-0.1-0.6-0.2L2.4,11c-2.5-2.5-2.6-6.5-0.2-9.1c0,0,0.1-0.1,0.1-0.1
		c2.5-2.4,6.5-2.4,9.1,0c0,0,0,0,0.1,0.1l23.6,29.6c0.3,0.4,0.3,0.9-0.1,1.2l-1.8,1.8C33,34.7,32.8,34.8,32.6,34.8z M6.9,1.8
		c-2.5,0-4.6,2.1-4.6,4.6c0,1.2,0.5,2.4,1.3,3.2l28.9,23.1l0.7-0.7L10.1,3.1C9.2,2.2,8.1,1.8,6.9,1.8z"/>
	<path class="st3" d="M39.9,43.2c-1.6,0-2.9-1.3-2.9-2.9c0-0.8,0.3-1.5,0.8-2l0.9-0.9c1.2-1,3-0.9,4,0.3c1,1.1,1,2.7,0,3.8l-0.9,0.9
		C41.4,42.9,40.7,43.2,39.9,43.2z M40.8,38.4c-0.3,0-0.5,0.1-0.7,0.3l-0.9,0.9c-0.4,0.4-0.4,1.1,0,1.5c0.4,0.4,1,0.4,1.4,0l0.9-0.9
		c0.4-0.4,0.4-1.1,0-1.5l0,0l0,0C41.4,38.5,41.1,38.4,40.8,38.4z"/>
	<path class="st3" d="M27.1,29.3c-0.5,0-0.9-0.4-0.9-0.9c0-0.2,0.1-0.5,0.3-0.7l1.8-1.8c0.4-0.4,0.9-0.3,1.3,0
		c0.3,0.4,0.3,0.9,0,1.3L27.7,29C27.5,29.2,27.3,29.3,27.1,29.3z"/>
	<path class="st3" d="M38.1,40.3c-0.2,0-0.5-0.1-0.6-0.3l-5.5-5.5c-0.4-0.4-0.4-0.9,0-1.3l1.8-1.8c0.4-0.4,0.9-0.4,1.3,0l5.5,5.5
		c0.4,0.4,0.4,0.9,0,1.3l-1.8,1.8C38.5,40.2,38.3,40.3,38.1,40.3z M33.9,33.9l4.2,4.2l0.5-0.5l-4.2-4.2L33.9,33.9z"/>
</g>
</svg>
