<?xml version="1.0" encoding="utf-8"?>
<!-- Generator: Adobe Illustrator 24.0.1, SVG Export Plug-In . SVG Version: 6.00 Build 0)  -->
<svg version="1.1" id="Layer_1" xmlns="http://www.w3.org/2000/svg" xmlns:xlink="http://www.w3.org/1999/xlink" x="0px" y="0px"
	 viewBox="0 0 20 20" style="enable-background:new 0 0 20 20;" xml:space="preserve">
<style type="text/css">
	.st0{fill:#FE8A3D;}
	.st1{fill:#FEDB41;}
</style>
<g id="그룹_485" transform="translate(-401.932 -451.352)">
	<g id="그룹_483" transform="translate(401.932 451.352)">
		<path id="패스_1261" class="st0" d="M19.8,8L19.8,8c-0.5-2.1-1.6-4.1-3.3-5.5c-1-0.9-2.2-1.6-3.5-1.9C12.1,0.2,11.1,0,10.1,0
			C4.6,0,0.1,4.4,0,9.9s4.4,10,9.9,10.1c2.5,0,5-0.9,6.9-2.6c1.3-1.2,2.3-2.7,2.8-4.4c0.3-1,0.5-2,0.5-3C20,9.3,19.8,8.6,19.8,8z"/>
	</g>
	<g id="그룹_484" transform="translate(408.221 455.767)">
		<path id="패스_1262" class="st1" d="M4.6,0.3c2.7,0,4.2,1.3,4.2,3.6c0,2.4-1.5,3.8-4.2,3.8H3c-0.5,0-0.9,0.4-0.9,0.9V10
			c0,0.5-0.4,0.9-0.9,0.9l0,0c-0.5,0-0.9-0.4-0.9-0.9V1.2c0-0.5,0.4-0.9,0.9-0.9L4.6,0.3z M2.1,5.2c0,0.5,0.4,0.9,0.9,0.9h1.5
			c1.6,0,2.6-0.7,2.6-2.1c0-1.4-0.9-2.1-2.6-2.1H3c-0.5,0-0.9,0.4-0.9,0.9V5.2z"/>
	</g>
</g>
</svg>
