<?xml version="1.0" encoding="utf-8"?>
<!-- Generator: Adobe Illustrator 24.0.1, SVG Export Plug-In . SVG Version: 6.00 Build 0)  -->
<svg version="1.1" id="Layer_1" xmlns="http://www.w3.org/2000/svg" xmlns:xlink="http://www.w3.org/1999/xlink" x="0px" y="0px"
	 viewBox="0 0 44 44" style="enable-background:new 0 0 44 44;" xml:space="preserve">
<style type="text/css">
	.st0{fill:#F4A100;}
	.st1{fill:#303441;}
</style>
<g>
	<path class="st0" d="M19.1,13.7c-0.5,1.1-1.6,1.9-2.6,2.7c-2,1.6-3.6,3.7-4.8,5.9c-0.2,0.4-0.4,0.8-0.8,1c-0.2,0.1-0.5,0.1-0.8,0.1
		c-1.6,0-3.3,0-4.9,0c-1.2,0-2.6,0-3.5-0.9c-0.8-0.7-1-1.9-1.1-2.9c-0.1-1.6,0-4,1-5.4c0.8-1.3,3.5-0.6,5-0.6
		C10.8,13.6,14.9,13.6,19.1,13.7z"/>
	<path class="st0" d="M41.2,20.3c0.4-1.1,0.6-2.2,0.9-3.3c0.2-1,0.4-2.1,0.4-3.1c0.1-3.4-2-6.6-4.8-8.5c-1.4-0.9-3-1.6-4.7-1.8
		c-1.5-0.2-3-0.1-4.5,0.1c-1.1,0.1-2.2,0.2-3.2,0.7c-0.6,0.3-1.1,0.8-1.6,1.2c-1,1-1.9,2-2.4,3.4c-0.4,1.3-0.2,2.9,0.8,3.8
		c1.6,1.5,4.3,0.6,6.4,1.2c1.2,0.3,2.2,1,3.2,1.7c1.5,1.1,3,2.2,4.2,3.6c1.2,1.4,1.9,2.9,2.3,4.6C39.6,23.8,40.8,21.3,41.2,20.3z"/>
	<g>
		<g>
			<path class="st1" d="M42.9,9.8C42.9,9.8,42.9,9.8,42.9,9.8c-2-4.5-6.5-7.5-11.5-7.5c-2.4,0-4.8,0.7-6.8,2
				c-1.7,1.1-3.1,2.5-4.1,4.3c-2.2-1.8-5-2.9-8-2.9c-5,0-9.5,2.9-11.5,7.5c0,0,0,0,0,0C0.4,14.8,0,16.5,0,18.3
				c0,1.8,0.4,3.5,1.1,5.1c0,0,0,0,0,0c1.8,4,5.5,6.8,9.8,7.4c0.6,2.5,1.9,4.8,3.8,6.6c2.2,2.2,5.1,3.7,8.2,4.1
				c0.7,0.1,1.3,0.1,2,0.1c2.4,0,4.8-0.6,6.9-1.7c0.4-0.2,0.6-0.7,0.3-1.2s-0.7-0.6-1.2-0.3c-4.9,2.7-11.1,1.7-15.1-2.2
				c-2.4-2.4-3.7-5.6-3.7-9s1.3-6.6,3.7-9c5-5,13.1-5,18,0c4,4,4.9,10.2,2.2,15.1c-0.2,0.4-0.1,0.9,0.3,1.2c0.4,0.2,0.9,0.1,1.2-0.3
				c1.5-2.7,2-5.8,1.6-8.9c0-0.1,0-0.2-0.1-0.4c1.6-1.3,2.9-2.9,3.7-4.8c0.7-1.6,1.1-3.3,1.1-5.1C44,13.2,43.6,11.4,42.9,9.8
				L42.9,9.8z M12.6,7.4c3.8,0,7.3,2,9.3,5.2H3.3C5.2,9.5,8.7,7.4,12.6,7.4z M3.3,23.9h7.5c-0.2,1.1-0.4,2.1-0.4,3.3
				c0,0.6,0,1.2,0.1,1.8C7.5,28.4,4.9,26.6,3.3,23.9L3.3,23.9z M14.7,16.9c-1.5,1.5-2.7,3.3-3.4,5.3H2.4c-0.5-1.2-0.7-2.5-0.7-3.9
				c0-1.3,0.2-2.7,0.7-3.9h15.7C16.9,15.1,15.7,15.9,14.7,16.9L14.7,16.9z M41.3,19.3c-0.6,1.4-1.5,2.6-2.6,3.6
				c-0.7-2.3-1.9-4.3-3.6-6c-2.7-2.7-6.4-4.2-10.2-4.2c-0.4,0-0.7,0-1.1,0c-0.5-1.1-1.2-2-2-2.9c1.9-3.5,5.6-5.8,9.6-5.8
				c4.3,0,8.2,2.5,9.9,6.4c0,0,0,0,0,0c0.6,1.4,0.9,2.9,0.9,4.4C42.3,16.5,42,18,41.3,19.3L41.3,19.3z"/>
			<g>
				<path class="st1" d="M34.5,37.7c-0.4,0-0.7-0.2-0.8-0.6c-0.1-0.3,0-0.7,0.3-0.9c0.3-0.2,0.7-0.2,1-0.1c0.3,0.2,0.5,0.5,0.4,0.9
					C35.3,37.4,34.9,37.7,34.5,37.7z"/>
			</g>
			<path class="st1" d="M26.8,26.5c0.3-0.4,0.4-0.9,0.4-1.4c0-1.3-1.1-2.4-2.4-2.4c-1.3,0-2.4,1.1-2.4,2.4c0,0.5,0.2,1,0.4,1.4
				c-0.6,0.5-1,1.3-1,2.2c0,1.6,1.3,2.9,2.9,2.9s2.9-1.3,2.9-2.9C27.8,27.8,27.4,27,26.8,26.5L26.8,26.5z M24.3,25.1
				c0-0.3,0.3-0.6,0.6-0.6c0.3,0,0.6,0.3,0.6,0.6c0,0.3-0.3,0.6-0.6,0.6C24.6,25.7,24.3,25.5,24.3,25.1z M24.9,29.8
				c-0.7,0-1.2-0.5-1.2-1.2s0.5-1.2,1.2-1.2s1.2,0.5,1.2,1.2S25.6,29.8,24.9,29.8z"/>
			<g>
				<path class="st1" d="M24.9,35.2c-4.4,0-8-3.6-8-8s3.6-8,8-8s8,3.6,8,8S29.3,35.2,24.9,35.2z M24.9,20.9c-3.5,0-6.3,2.8-6.3,6.3
					s2.8,6.3,6.3,6.3s6.3-2.8,6.3-6.3S28.4,20.9,24.9,20.9L24.9,20.9z"/>
			</g>
		</g>
	</g>
</g>
</svg>
