<?xml version="1.0" encoding="utf-8"?>
<!-- Generator: Adobe Illustrator 24.0.1, SVG Export Plug-In . SVG Version: 6.00 Build 0)  -->
<svg version="1.1" id="Layer_1" xmlns="http://www.w3.org/2000/svg" xmlns:xlink="http://www.w3.org/1999/xlink" x="0px" y="0px"
	 viewBox="0 0 44 44" style="enable-background:new 0 0 44 44;" xml:space="preserve">
<style type="text/css">
	.st0{fill:#F4A100;}
	.st1{fill:#303441;}
</style>
<g>
	<polygon class="st0" points="24.7,13.9 15.9,16.1 13.7,24.2 19.5,30.1 28.3,27.9 29.8,20.5 	"/>
	<g>
		<g>
			<path class="st1" d="M36.9,7.9c-0.4,0-0.7-0.3-0.8-0.6c-0.1-0.3,0-0.7,0.3-0.9c0.3-0.2,0.7-0.2,1-0.1c0.3,0.2,0.5,0.5,0.4,0.9
				C37.7,7.6,37.4,7.9,36.9,7.9z"/>
			<path class="st1" d="M40.8,10.6C40.8,10.6,40.8,10.6,40.8,10.6C40.8,10.6,40.8,10.6,40.8,10.6c-0.2-0.3-0.4-0.7-0.6-1
				c-0.3-0.4-0.8-0.5-1.2-0.2c-0.4,0.3-0.5,0.8-0.2,1.2c0.1,0.2,0.3,0.4,0.4,0.6l-1.5,5.8l-7.2,1.9l-5.3-5.3l1.9-7.2l5.8-1.6
				c0.2,0.1,0.4,0.3,0.6,0.4c0.4,0.3,0.9,0.2,1.2-0.2c0.3-0.4,0.2-0.9-0.2-1.2c-0.3-0.2-0.7-0.4-1-0.6c0,0,0,0,0,0
				C29.8,1,25.7-0.1,21.5,0h0c-3.5,0.1-7,1-10.1,2.7c0,0,0,0,0,0c-1.8,1-3.5,2.3-5,3.7c-1.5,1.5-2.7,3.2-3.7,5c0,0,0,0,0,0
				C1,14.5,0.1,18,0,21.5v0c-0.1,4.2,1,8.4,3.2,11.9c0,0,0,0,0,0c0,0,0,0,0,0c0.9,1.5,2,2.9,3.2,4.1c1.2,1.2,2.6,2.3,4.1,3.2
				c0,0,0,0,0,0c0,0,0,0,0,0C14,42.9,17.9,44,22,44c0.2,0,0.3,0,0.5,0h0c3.5-0.1,7-1,10.1-2.7c0,0,0,0,0,0c1.8-1,3.5-2.3,5-3.7
				c1.5-1.5,2.7-3.2,3.7-5c0,0,0,0,0,0C43,29.5,43.9,26,44,22.5v0C44.1,18.3,43,14.1,40.8,10.6L40.8,10.6z M40.3,13.3
				c1,2.2,1.7,4.6,1.9,7l-3-3L40.3,13.3z M29.2,20.1l-1.9,7.2l-7.2,1.9l-5.3-5.3l1.9-7.2l7.2-1.9L29.2,20.1z M17.4,39.2l3,3
				c-2.4-0.2-4.8-0.8-7-1.9L17.4,39.2z M22.8,42.3L18.6,38l1.9-7.2l7.2-1.9l5.3,5.3L31.4,40C28.8,41.4,25.8,42.1,22.8,42.3
				L22.8,42.3z M3.7,30.7c-1-2.2-1.7-4.6-1.9-7l3,3L3.7,30.7z M26.6,4.8l-3-3c2.4,0.2,4.8,0.8,7,1.9L26.6,4.8z M21.2,1.7L25.4,6
				l-1.9,7.2l-7.2,1.9L11,9.8L12.6,4C15.2,2.6,18.2,1.9,21.2,1.7L21.2,1.7z M7.7,7.7C8.5,6.8,9.5,6,10.5,5.3L9.4,9.4l-4.1,1.1
				C6,9.5,6.8,8.5,7.7,7.7z M4,12.6L9.8,11l5.3,5.3l-1.9,7.2L6,25.4l-4.2-4.2C1.9,18.2,2.6,15.2,4,12.6L4,12.6z M4.9,32.9l1.5-5.8
				l7.2-1.9l5.3,5.3l-1.9,7.2l-5.8,1.6c-1.3-0.8-2.4-1.7-3.5-2.8C6.6,35.3,5.7,34.1,4.9,32.9z M36.3,36.3c-0.9,0.9-1.8,1.6-2.8,2.3
				l1.1-4.1l4.1-1.1C38,34.5,37.2,35.5,36.3,36.3z M40,31.4L34.2,33l-5.3-5.3l1.9-7.2l7.2-1.9l4.2,4.2C42.1,25.8,41.4,28.8,40,31.4z
				"/>
		</g>
	</g>
</g>
</svg>
