<?xml version="1.0" encoding="utf-8"?>
<!-- Generator: Adobe Illustrator 24.0.1, SVG Export Plug-In . SVG Version: 6.00 Build 0)  -->
<svg version="1.1" id="Layer_1" xmlns="http://www.w3.org/2000/svg" xmlns:xlink="http://www.w3.org/1999/xlink" x="0px" y="0px"
	 viewBox="0 0 44 44" style="enable-background:new 0 0 44 44;" xml:space="preserve">
<style type="text/css">
	.st0{fill:#303441;}
	.st1{fill:#F4A100;}
</style>
<g id="Page-1">
	<g id="_x30_27---Tennis" transform="translate(-1 -1)">
		<g id="Icons" transform="translate(2 8)">
			<path id="Shape_4_" class="st0" d="M7.1,21.6c-0.4,0-0.7,0-1.1,0.1c3.6,0.5,6.2,3.6,6.2,7.2S9.6,35.6,6,36.2
				c2.7,0.4,5.4-0.7,7.1-3c1.6-2.2,1.8-5.2,0.6-7.6S9.8,21.6,7.1,21.6L7.1,21.6z"/>
			<circle id="Oval" class="st1" cx="7.1" cy="28.9" r="7.3"/>
		</g>
		<g id="Layer_2_1_">
			<path id="Shape_6_" class="st0" d="M32.2,28c-0.4-0.4-0.9-0.5-1.4-0.4c-2.2-2.4-2.6-5.3-3-8.6c-0.6-4.3-1.3-9.1-5.9-13.8
				c-2.4-2.4-5.6-3.9-9-4.2C9.6,0.8,6.5,1.9,4.2,4.2C1.9,6.5,0.8,9.6,1,12.8c0.2,3.4,1.7,6.6,4.2,9c4.6,4.6,9.3,5.2,13.5,5.8
				c3.4,0.4,6.4,0.8,9,3.2c-0.1,0.5,0,1,0.4,1.4l12.4,12.4c0.3,0.3,0.6,0.4,1,0.4c0.4,0,0.8-0.2,1-0.4l2.1-2.1
				c0.3-0.3,0.4-0.6,0.4-1c0-0.4-0.2-0.8-0.4-1L32.2,28z M2.6,10.8C2.7,9.7,3,8.6,3.5,7.6l1.2,1.2L2.6,10.8L2.6,10.8z M4.7,15.1
				l-1.3,1.3c-0.5-1.1-0.7-2.3-0.8-3.5L4.7,15.1z M3.7,11.9l2.1-2.1l2.1,2.1L5.7,14L3.7,11.9z M13,21.3l2.1-2.1l2.1,2.1l-2.1,2.1
				L13,21.3z M14.1,24.5c-1.2-0.1-2.4-0.4-3.5-0.8l1.3-1.3L14.1,24.5z M16.1,18.2l2.1-2.1l2.1,2.1l-2.1,2.1L16.1,18.2z M20.2,11.9
				L18.2,14l-2.1-2.1l2.1-2.1L20.2,11.9z M19.2,8.8l2.1-2.1c0.7,0.7,1.2,1.6,1.7,2.4l-1.7,1.7L19.2,8.8z M15.1,10.9L13,8.8l2.1-2.1
				l2.1,2.1L15.1,10.9z M14,11.9L11.9,14l-2.1-2.1l2.1-2.1L14,11.9z M15.1,13l2.1,2.1l-2.1,2.1L13,15.1L15.1,13z M19.2,15.1l2.1-2.1
				l2.1,2.1l-2.1,2.1L19.2,15.1z M22.3,11.9l1.3-1.3c0.5,1.1,0.7,2.3,0.8,3.5L22.3,11.9z M18.2,7.8l-2.1-2.1L17.8,4
				c0.9,0.5,1.7,1.1,2.4,1.7L18.2,7.8z M15.1,4.7l-2.2-2.2c1.2,0.1,2.4,0.4,3.5,0.8L15.1,4.7z M10.9,2.6L8.8,4.7L7.6,3.5
				C8.6,3,9.7,2.7,10.9,2.6L10.9,2.6z M11.9,3.7L14,5.7l-2.1,2.1L9.9,5.7L11.9,3.7z M10.9,8.8l-2.1,2.1L6.8,8.8l2.1-2.1L10.9,8.8z
				 M8.8,13l2.1,2.1l-2.1,2.1l-2.1-2.1L8.8,13z M11.9,16.1l2.1,2.1l-2.1,2.1l-2.1-2.1L11.9,16.1z M10.9,21.3L9.2,23
				c-0.9-0.5-1.7-1.1-2.4-1.7l2.1-2.1L10.9,21.3z M16.2,24.4L16.2,24.4l2-2.1l1.2,1.2C18.4,24,17.3,24.3,16.2,24.4L16.2,24.4z
				 M20.7,22.7l-1.5-1.5l2.1-2.1l1.5,1.5c-0.3,0.4-0.6,0.8-0.9,1.1C21.4,22.1,21.1,22.5,20.7,22.7L20.7,22.7z M23.5,19.4l-1.2-1.2
				l2.1-2.1l0.1,0.1C24.3,17.3,24,18.4,23.5,19.4z M6.3,4.3l1.5,1.5L5.7,7.8L4.3,6.3c0.3-0.4,0.6-0.8,0.9-1.1
				C5.6,4.9,5.9,4.5,6.3,4.3z M4,17.8l1.7-1.7l2.1,2.1l-2.1,2.1C5.1,19.5,4.5,18.7,4,17.8z M16.9,25.8c4.8-0.7,8.5-4.5,9-9.3
				c0.2,0.9,0.3,1.8,0.4,2.7c0.5,3.4,0.9,6.6,3.3,9.3l-1.1,1.1c-2.9-2.6-6.2-3-9.7-3.5C18.2,26,17.5,25.9,16.9,25.8L16.9,25.8z
				 M43.5,41.5l-2.1,2.1L29,31.1l2.1-2.1L43.5,41.5C43.5,41.5,43.5,41.5,43.5,41.5L44,42L43.5,41.5z"/>
			<path id="Shape_7_" class="st0" d="M17.1,36.9c0-2.3-1-4.5-2.7-6c0,0,0,0,0,0s0,0,0,0c-3-2.6-7.5-2.6-10.6,0c0,0,0,0,0,0
				c0,0,0,0,0,0C2,32.4,1,34.6,1,36.9c0,2.3,1,4.5,2.7,6c0,0,0,0,0,0c0,0,0,0,0,0c3,2.7,7.5,2.7,10.6,0c0,0,0,0,0,0c0,0,0,0,0,0
				C16.1,41.4,17.1,39.2,17.1,36.9L17.1,36.9z M15.7,36.9c0,1.7-0.7,3.3-1.8,4.6c-2.4-2.5-2.4-6.6,0-9.1
				C15,33.6,15.7,35.2,15.7,36.9L15.7,36.9z M2.5,36.9c0-1.7,0.7-3.3,1.8-4.6c1.2,1.2,1.8,2.9,1.8,4.6c0,1.7-0.7,3.3-1.8,4.6
				C3.1,40.3,2.5,38.6,2.5,36.9z M5.4,42.4c1.4-1.5,2.2-3.5,2.2-5.5c0-2-0.8-4-2.2-5.5c2.2-1.5,5.1-1.5,7.3,0c-2.9,3.1-2.9,7.9,0,11
				C10.5,43.9,7.6,43.9,5.4,42.4L5.4,42.4z"/>
		</g>
	</g>
</g>
</svg>
