<?xml version="1.0" encoding="utf-8"?>
<!-- Generator: Adobe Illustrator 24.0.1, SVG Export Plug-In . SVG Version: 6.00 Build 0)  -->
<svg version="1.1" id="Layer_1" xmlns="http://www.w3.org/2000/svg" xmlns:xlink="http://www.w3.org/1999/xlink" x="0px" y="0px"
	 viewBox="0 0 68 68" style="enable-background:new 0 0 68 68;" xml:space="preserve">
<style type="text/css">
	.st0{fill:#FEE9DA;}
	.st1{fill:#FFFFFF;}
	.st2{fill:#FE8A3D;}
	.st3{fill:#303441;}
</style>
<g id="그룹_303" transform="translate(-30 -85)">
	<circle id="타원_90" class="st0" cx="64" cy="119" r="34"/>
	<g id="그룹_228" transform="translate(-571 -194.952)">
		<g id="그룹_226">
			<path id="패스_978" class="st1" d="M655.1,325.7c-2.7,5.3-9.1,8.4-17.7,8.4c-8.1,0-15.1-3.4-17.5-8.4c-0.6-1.1-0.8-2.4-0.8-3.6
				v-9.5l-2.9-2.9c-1.4-1.4-1.4-3.8,0-5.2c1-1,2.6-1.4,4-0.8c2.8-7.6,11.2-11.5,18.8-8.7c4.3,1.6,7.6,5,9,9.4
				c0.7-0.6,1.5-0.9,2.4-0.9c2,0,3.7,1.7,3.7,3.7c0,1-0.4,1.9-1.1,2.6l-4.3,4.3v5.6c0,1.2,0.3,2.4,0.9,3.4c0.5,0.8,1.8,2.5,5,1.8
				c0.4-0.1,0.7,0.1,0.8,0.5C655.2,325.4,655.1,325.6,655.1,325.7L655.1,325.7z"/>
		</g>
		<path id="패스_979" class="st2" d="M627.8,317.9c-0.1,1.7,0,3.4,0.4,5c-0.1,1,0.6,2,1.7,2.1c0.2,0,0.4,0,0.5,0l1.7,0
			c0.3,0,0.7,0,1-0.2c0.7-0.4,0.8-1.3,0.8-2.1l0-3.4c0.1-1,0-2.1-0.2-3.1c-0.2-1-0.8-2-1.6-2.6C629.6,311.9,628,316.2,627.8,317.9z"
			/>
		<g id="그룹_227">
			<path id="패스_980" class="st3" d="M619,312.5v9.5c0,1.3,0.3,2.5,0.8,3.6c2.4,5,9.5,8.4,17.6,8.4c8.6,0,15-3.1,17.7-8.4
				c0.2-0.3,0-0.7-0.3-0.9c-0.1-0.1-0.3-0.1-0.4-0.1c-3.2,0.7-4.6-1-5-1.8c-0.6-1-0.9-2.2-0.9-3.4v-5.6l4.3-4.3
				c1.4-1.4,1.4-3.8,0-5.2c-1.4-1.4-3.6-1.4-5-0.2c-2.4-7.7-10.6-12-18.3-9.6c-4.4,1.4-7.9,4.7-9.4,9c-1.9-0.7-4,0.2-4.8,2.1
				c-0.5,1.4-0.2,2.9,0.8,4L619,312.5z M633.5,295.3h0.2c6.1,0,11.4,4.1,12.9,10l-4,4c-0.3,0.3-0.3,0.7,0,0.9c0.3,0.3,0.7,0.3,0.9,0
				l5-5c0.9-0.9,2.4-0.9,3.3,0c0.9,0.9,0.9,2.4,0,3.3l-4.5,4.5l-0.4,0.4c-0.3,0.3-0.3,0.7,0,0.9c0.1,0.1,0.1,0.1,0.2,0.2v4.9
				c0,1.4,0.3,2.8,1,4.1c1,1.8,3,2.8,5.1,2.6c-2.8,4.2-8.4,6.5-15.8,6.5c-7.5,0-14.2-3.1-16.3-7.6c-0.5-1-0.7-2-0.7-3.1V309
				c0-1.4,0.2-2.9,0.7-4.3C622.7,299.2,627.8,295.4,633.5,295.3z M617,305.3c0.7-0.7,1.7-0.9,2.6-0.5c-0.4,1.3-0.6,2.7-0.6,4.1v1.7
				l-2-2C616.1,307.7,616.1,306.3,617,305.3C617,305.3,617,305.3,617,305.3L617,305.3z"/>
			<path id="패스_981" class="st3" d="M625.7,312.7c1.5,0,2.7-1.9,2.7-4.3s-1.2-4.3-2.7-4.3s-2.7,1.9-2.7,4.3
				S624.2,312.7,625.7,312.7z"/>
			<path id="패스_982" class="st3" d="M627.5,323.8c0,0.1,0,0.2,0.1,0.2c0.7,1.8,1.9,2,3.4,2s2.8-0.2,3.4-2c0-0.1,0.1-0.2,0.1-0.2
				c0.4-1.4,0.5-2.9,0.5-4.4c0-3.8-1.8-6.7-4-6.7s-4,2.9-4,6.7C627,320.9,627.2,322.3,627.5,323.8z M631.1,324.7c-0.9,0-1.6,0-2.1-1
				c0.9-1.2,2.6-1.4,3.7-0.5c0.2,0.1,0.3,0.3,0.5,0.5C632.7,324.7,632,324.7,631.1,324.7L631.1,324.7z M631.1,314
				c1.3,0,2.7,2.2,2.7,5.4c0,1,0,1.9-0.2,2.9c-1.5-1.2-3.6-1.2-5,0c-0.1-1-0.2-1.9-0.2-2.9C628.4,316.2,629.8,314,631.1,314
				L631.1,314z"/>
			<path id="패스_983" class="st3" d="M636.4,312.7c1.5,0,2.7-1.9,2.7-4.3s-1.2-4.3-2.7-4.3s-2.7,1.9-2.7,4.3
				S634.9,312.7,636.4,312.7z"/>
		</g>
	</g>
</g>
</svg>
