<svg xmlns="http://www.w3.org/2000/svg" width="38.008" height="38.008" viewBox="0 0 38.008 38.008"><defs><style>.a{opacity:0.696;}.b{fill:#fff;}</style></defs><g class="a"><path class="b" d="M19,0a19,19,0,1,0,19,19A19,19,0,0,0,19,0Zm0,36.782A17.778,17.778,0,1,1,36.782,19,17.778,17.778,0,0,1,19,36.782Z"/><path class="b" d="M131.887,156.271l-12.44,12.44-6.31-6.31a.613.613,0,0,0-.867.867l6.743,6.743a.613.613,0,0,0,.867,0l12.874-12.874a.613.613,0,0,0-.867-.867Z" transform="translate(-103.509 -144.137)"/></g></svg>