<?xml version="1.0" encoding="utf-8"?>
<!-- Generator: Adobe Illustrator 24.0.1, SVG Export Plug-In . SVG Version: 6.00 Build 0)  -->
<svg version="1.1" id="Capa_1" xmlns="http://www.w3.org/2000/svg" xmlns:xlink="http://www.w3.org/1999/xlink" x="0px" y="0px"
	 viewBox="0 0 19 19" style="enable-background:new 0 0 19 19;" xml:space="preserve">
<style type="text/css">
	.st0{fill:#303441;}
</style>
<g>
	<g>
		<g id="마스크_그룹_38" transform="translate(-356 -561)">
			<g id="calendar" transform="translate(356 561)">
				<path id="패스_1269" class="st0" d="M16.6,1.5h-1.7V0.6c0-0.3-0.3-0.6-0.6-0.6c-0.3,0-0.6,0.3-0.6,0.6v0.9H5.3V0.6
					C5.3,0.3,5.1,0,4.7,0C4.4,0,4.2,0.3,4.2,0.6v0.9H2.4C1.1,1.5,0,2.6,0,3.9v12.6C0,17.9,1.1,19,2.4,19h14.1c1.4,0,2.4-1.1,2.5-2.4
					V3.9C19,2.6,17.9,1.5,16.6,1.5z M17.8,16.5c0,0.7-0.6,1.3-1.3,1.3H2.4c-0.7,0-1.3-0.6-1.3-1.3V6.7c0-0.1,0.1-0.2,0.2-0.2h16.3
					c0.1,0,0.2,0.1,0.2,0.2v0L17.8,16.5z"/>
			</g>
		</g>
	</g>
</g>
</svg>
