<?xml version="1.0" encoding="utf-8"?>
<!-- Generator: Adobe Illustrator 24.0.1, SVG Export Plug-In . SVG Version: 6.00 Build 0)  -->
<svg version="1.1" id="Layer_1" xmlns="http://www.w3.org/2000/svg" xmlns:xlink="http://www.w3.org/1999/xlink" x="0px" y="0px"
	 viewBox="0 0 20 20" style="enable-background:new 0 0 20 20;" xml:space="preserve">
<style type="text/css">
	.st0{opacity:0.685;}
</style>
<g>
	<g>
		<g id="마스크_그룹_19" transform="translate(-30 -346)" class="st0">
			<g id="Compass_Map" transform="translate(26.883 342.916)">
				<path id="패스_994" d="M22.8,12.6L21,11.8c-0.3-0.1-0.6,0-0.7,0.3s0,0.6,0.3,0.7l1.4,0.6v8.2L18.1,20v-4
					c0-0.3-0.3-0.5-0.6-0.5c-0.3,0-0.5,0.2-0.5,0.5v3.9l-7.7,1.9v-8.3h0.1l0,0c2.4,2.4,6.3,2.4,8.7,0s2.4-6.3,0-8.7s-6.3-2.4-8.7,0
					c-2,2-2.4,5.1-0.9,7.6l-4.5-2c-0.3-0.1-0.6,0-0.7,0.3c0,0.1,0,0.1,0,0.2v9.4c0,0.2,0.1,0.4,0.3,0.5l5,2.2c0.1,0,0.2,0.1,0.4,0
					l8.7-2.2l4.8,2.1c0.3,0.1,0.6,0,0.7-0.3c0-0.1,0-0.1,0-0.2V13C23.1,12.9,23,12.7,22.8,12.6L22.8,12.6z M10.2,5.7
					c1.9-1.9,5.1-1.9,7,0.1s1.9,5.1-0.1,7s-5.1,1.9-7-0.1c-0.9-0.9-1.4-2.2-1.4-3.5C8.7,7.9,9.2,6.7,10.2,5.7z M4.3,11.8l3.9,1.7
					v8.2L4.3,20V11.8z M10.9,12.6H11l4.3-1.2c0.2-0.1,0.3-0.2,0.4-0.4l1.2-4.3c0.1-0.3,0-0.6-0.3-0.7c-0.1,0-0.2,0-0.3,0L12,7.2
					c-0.2,0.1-0.3,0.2-0.4,0.4l-1.2,4.3C10.3,12.2,10.5,12.5,10.9,12.6C10.8,12.6,10.9,12.6,10.9,12.6L10.9,12.6z M12.6,8.1l3.1-0.8
					l-0.8,3.1l-3.1,0.8L12.6,8.1z"/>
			</g>
		</g>
	</g>
</g>
</svg>
