<?xml version="1.0" encoding="utf-8"?>
<!-- Generator: Adobe Illustrator 24.0.1, SVG Export Plug-In . SVG Version: 6.00 Build 0)  -->
<svg version="1.1" id="Layer_1" xmlns="http://www.w3.org/2000/svg" xmlns:xlink="http://www.w3.org/1999/xlink" x="0px" y="0px"
	 viewBox="0 0 28 28" style="enable-background:new 0 0 28 28;" xml:space="preserve">
<style type="text/css">
	.st0{fill:#CECCCD;}
</style>
<g>
	<path id="패스_1035" class="st0" d="M14,28C6.3,28,0,21.7,0,14S6.3,0,14,0s14,6.3,14,14C28,21.7,21.7,28,14,28z M14,1.8
		C7.2,1.8,1.8,7.2,1.8,14S7.2,26.2,14,26.2S26.2,20.8,26.2,14C26.2,7.2,20.8,1.8,14,1.8z"/>
	<path id="패스_1036" class="st0" d="M12.7,18.7c-0.2,0-0.5-0.1-0.6-0.3l-3.8-3.8c-0.4-0.3-0.4-0.9,0-1.2s0.9-0.4,1.2,0
		c0,0,0,0,0,0l3.2,3.2l7-7c0.3-0.3,0.9-0.3,1.2,0s0.3,0.9,0,1.2l-7.6,7.6C13.1,18.6,12.9,18.7,12.7,18.7z"/>
</g>
</svg>
