<?xml version="1.0" encoding="utf-8"?>
<!-- Generator: Adobe Illustrator 24.0.1, SVG Export Plug-In . SVG Version: 6.00 Build 0)  -->
<svg version="1.1" id="Capa_1" xmlns="http://www.w3.org/2000/svg" xmlns:xlink="http://www.w3.org/1999/xlink" x="0px" y="0px"
	 viewBox="0 0 30 30" style="enable-background:new 0 0 30 30;" xml:space="preserve">
<style type="text/css">
	.st0{fill:#AEAEB0;}
</style>
<g>
	<path class="st0" d="M29.7,21.4c-0.2-0.6-0.9-0.9-1.5-0.7c-0.6,0.2-0.9,0.9-0.7,1.5c0.3,0.8,0.2,1.6-0.3,2.3
		c-0.5,0.7-1.2,1.1-2.1,1.1H4.9c-1.4,0-2.5-1.1-2.5-2.5c0-0.5,0.1-0.9,0.4-1.3L12.9,5.5c0.7-1.2,2.3-1.5,3.5-0.8
		c0.3,0.2,0.6,0.5,0.8,0.8l7.5,12.1c0.3,0.5,1.1,0.7,1.6,0.4c0.5-0.3,0.7-1.1,0.4-1.6L19.1,4.2c-1.4-2.3-4.4-3-6.7-1.6
		c-0.6,0.4-1.2,0.9-1.6,1.6L0.7,20.7c-1.4,2.3-0.7,5.3,1.6,6.7c0.8,0.5,1.7,0.7,2.6,0.7h20.3c1.6,0,3.1-0.8,4-2.1
		C30.1,24.6,30.2,22.9,29.7,21.4z"/>
	<path class="st0" d="M15,21.1C15,21.1,15,21.1,15,21.1c-0.6,0-1.2,0.5-1.2,1.2s0.5,1.2,1.2,1.2c0,0,0,0,0,0c0.6,0,1.2-0.5,1.2-1.2
		C16.2,21.6,15.6,21.1,15,21.1z"/>
	<path class="st0" d="M16.2,9.6c0-0.6-0.5-1.2-1.2-1.2c-0.6,0-1.2,0.5-1.2,1.2c0,0,0,0,0,0v8.6c0,0.6,0.5,1.2,1.2,1.2
		c0.6,0,1.2-0.5,1.2-1.2V9.6z"/>
</g>
</svg>
