<?xml version="1.0" encoding="utf-8"?>
<!-- Generator: Adobe Illustrator 24.0.1, SVG Export Plug-In . SVG Version: 6.00 Build 0)  -->
<svg version="1.1" id="Layer_1" xmlns="http://www.w3.org/2000/svg" xmlns:xlink="http://www.w3.org/1999/xlink" x="0px" y="0px"
	 viewBox="0 0 20 20" style="enable-background:new 0 0 20 20;" xml:space="preserve">
<style type="text/css">
	.st0{fill:#303441;}
</style>
<g>
	<g>
		<g id="icon_bookmark" transform="translate(-378 -138)">
			<path id="패스_1056" class="st0" d="M394.7,158c-0.1,0-0.3,0-0.4-0.1l-6.3-4.4l-6.3,4.4c-0.3,0.2-0.7,0.1-0.9-0.2
				c-0.1-0.1-0.1-0.2-0.1-0.4v-16.1c0-1.8,1.4-3.2,3.2-3.2h0h8.3c1.8,0,3.2,1.4,3.2,3.2v0v16.1C395.3,157.7,395,158,394.7,158z
				 M388,152c0.1,0,0.3,0,0.4,0.1l5.6,3.9v-14.9c0-1-0.8-1.9-1.9-1.9c0,0,0,0,0,0h-8.3c-1,0-1.9,0.8-1.9,1.9c0,0,0,0,0,0l0,0v14.9
				l5.6-3.9C387.7,152,387.9,152,388,152L388,152z"/>
		</g>
	</g>
</g>
</svg>
