<?xml version="1.0" encoding="utf-8"?>
<!-- Generator: Adobe Illustrator 24.0.1, SVG Export Plug-In . SVG Version: 6.00 Build 0)  -->
<svg version="1.1" id="Layer_1" xmlns="http://www.w3.org/2000/svg" xmlns:xlink="http://www.w3.org/1999/xlink" x="0px" y="0px"
	 viewBox="0 0 20 20" style="enable-background:new 0 0 20 20;" xml:space="preserve">
<style type="text/css">
	.st0{opacity:0.685;}
</style>
<g>
	<g>
		<g id="마스크_그룹_17" transform="translate(-30 -286)" class="st0">
			<g id="Icons" transform="translate(27.625 283.625)">
				<path id="패스_988" d="M20.4,22.4h-1v-4.5c0-1.4-1.1-2.5-2.5-2.5h-9c-1.4,0-2.5,1.1-2.5,2.5v4.5h-1v-4.5
					c0-1.9,1.6-3.5,3.5-3.5l0,0h9c1.9,0,3.5,1.6,3.5,3.5l0,0V22.4z"/>
				<path id="패스_989" d="M12.4,13.4c-3,0-5.5-2.5-5.5-5.5s2.5-5.5,5.5-5.5s5.5,2.5,5.5,5.5S15.4,13.4,12.4,13.4L12.4,13.4z
					 M12.4,3.4c-2.5,0-4.5,2-4.5,4.5s2,4.5,4.5,4.5s4.5-2,4.5-4.5l0,0C16.9,5.4,14.9,3.4,12.4,3.4z"/>
			</g>
		</g>
	</g>
</g>
</svg>
