<?xml version="1.0" encoding="utf-8"?>
<!-- Generator: Adobe Illustrator 24.0.1, SVG Export Plug-In . SVG Version: 6.00 Build 0)  -->
<svg version="1.1" id="Layer_1" xmlns="http://www.w3.org/2000/svg" xmlns:xlink="http://www.w3.org/1999/xlink" x="0px" y="0px"
	 viewBox="0 0 20 20" style="enable-background:new 0 0 20 20;" xml:space="preserve">
<style type="text/css">
	.st0{fill:#4F4F4F;}
</style>
<g>
	<g id="마스크_그룹_28" transform="translate(-58 -462)">
		<g id="location_1_" transform="translate(58.402 462)">
			<path id="패스_1048" class="st0" d="M9.6,9.6c1.3,0,2.3-1,2.3-2.3c0-1.3-1-2.3-2.3-2.3S7.3,6,7.3,7.3l0,0
				C7.3,8.6,8.3,9.6,9.6,9.6z M9.6,6.1c0.6,0,1.2,0.5,1.2,1.2s-0.5,1.2-1.2,1.2S8.4,7.9,8.4,7.3c0,0,0,0,0,0
				C8.4,6.6,8.9,6.1,9.6,6.1z"/>
			<path id="패스_1049" class="st0" d="M17.1,13.5h-3.9C15,11.7,16.6,10,16.6,7c0.1-3.8-2.9-6.9-6.7-7C9.8,0,9.7,0,9.6,0
				c-3.8-0.1-6.9,2.9-7,6.7c0,0.1,0,0.2,0,0.3c0,3,1.7,4.7,3.5,6.4H2.1L0,20h19.2L17.1,13.5z M3.7,7C3.6,3.9,6.1,1.3,9.2,1.2
				c0.1,0,0.3,0,0.4,0c3.1-0.1,5.8,2.3,5.9,5.5c0,0.1,0,0.3,0,0.4c0,3.8-3.2,5.1-5.9,8.4c-0.8-0.9-1.6-1.8-2.5-2.6
				C5.2,11.1,3.7,9.6,3.7,7L3.7,7z M2.1,17.4h4.2v-1.2H2.5L3,14.7h4.3v0c0.9,0.8,1.7,1.8,2.3,2.8c0.7-1,1.5-1.9,2.3-2.8v0h4.3
				l0.5,1.6h-3.8v1.2h4.2l0.5,1.4h-16L2.1,17.4z"/>
		</g>
	</g>
</g>
</svg>
