<?xml version="1.0" encoding="utf-8"?>
<!-- Generator: Adobe Illustrator 24.0.1, SVG Export Plug-In . SVG Version: 6.00 Build 0)  -->
<svg version="1.1" id="Layer_1" xmlns="http://www.w3.org/2000/svg" xmlns:xlink="http://www.w3.org/1999/xlink" x="0px" y="0px"
	 viewBox="0 0 15 15" style="enable-background:new 0 0 15 15;" xml:space="preserve">
<style type="text/css">
	.st0{fill:#FE7262;}
</style>
<g>
	<path class="st0" d="M12.1,11.6V6.9c0-2.6-2-4.6-4.6-4.6C5,2.3,2.9,4.4,2.8,6.9v4.7c-1.1,0.5-1.8,1.6-1.9,2.9l0,0.5H14v-0.5
		C14,13.2,13.2,12.1,12.1,11.6z M7.5,3.3c2,0,3.6,1.6,3.6,3.6v4.2H3.7l0-4.2C3.8,4.9,5.5,3.3,7.5,3.3z M1.9,14
		c0.3-1,1.2-1.8,2.2-1.8h6.6c1.1,0,2,0.8,2.3,1.8H1.9z"/>
	
		<rect x="8.8" y="0.6" transform="matrix(4.789019e-02 -0.9989 0.9989 4.789019e-02 8.3426 10.8144)" class="st0" width="2" height="1"/>
	
		<rect x="12.2" y="3.9" transform="matrix(0.995 -9.959993e-02 9.959993e-02 0.995 -0.3672 1.3319)" class="st0" width="1.9" height="1"/>
	<rect x="11.1" y="1.7" transform="matrix(0.7316 -0.6818 0.6818 0.7316 1.7795 8.79)" class="st0" width="2" height="1"/>
</g>
</svg>
