<?xml version="1.0" encoding="utf-8"?>
<!-- Generator: Adobe Illustrator 24.0.1, SVG Export Plug-In . SVG Version: 6.00 Build 0)  -->
<svg version="1.1" id="Layer_1" xmlns="http://www.w3.org/2000/svg" xmlns:xlink="http://www.w3.org/1999/xlink" x="0px" y="0px"
	 viewBox="0 0 28 28" style="enable-background:new 0 0 28 28;" xml:space="preserve">
<style type="text/css">
	.st0{fill:#F4A100;}
	.st1{fill:#FAFAFA;}
</style>
<g>
	<path id="패스_1037" class="st0" d="M14,0C6.3,0,0,6.3,0,14s6.3,14,14,14s14-6.3,14-14C28,6.3,21.7,0,14,0z"/>
	<path id="패스_1038" class="st1" d="M20.5,11l-7.6,7.6c-0.5,0.5-1.2,0.5-1.6,0c0,0,0,0,0,0l-3.8-3.8c-0.5-0.5-0.5-1.2,0-1.6
		s1.2-0.5,1.6,0l3,3l6.8-6.8c0.5-0.5,1.2-0.5,1.6,0S21,10.6,20.5,11L20.5,11L20.5,11z"/>
</g>
</svg>
