<?xml version="1.0" encoding="utf-8"?>
<!-- Generator: Adobe Illustrator 24.0.1, SVG Export Plug-In . SVG Version: 6.00 Build 0)  -->
<svg version="1.1" id="Layer_1" xmlns="http://www.w3.org/2000/svg" xmlns:xlink="http://www.w3.org/1999/xlink" x="0px" y="0px"
	 viewBox="0 0 12 12" style="enable-background:new 0 0 12 12;" xml:space="preserve">
<style type="text/css">
	.st0{fill:#F4A100;}
</style>
<g>
	<path id="다각형_3" class="st0" d="M4.9,0.8c0.3-0.6,1-0.9,1.6-0.6C6.8,0.3,7,0.5,7.1,0.8l0.8,1.8c0.2,0.4,0.6,0.7,1,0.7l2,0.2
		C11.6,3.7,12.1,4.3,12,5c0,0.3-0.2,0.5-0.4,0.7l-1.6,1.5C9.8,7.5,9.6,7.9,9.7,8.4l0.4,2.1c0.1,0.7-0.3,1.3-1,1.5
		c-0.3,0.1-0.6,0-0.9-0.2l-1.6-1c-0.4-0.2-0.9-0.2-1.3,0l-1.6,1c-0.6,0.3-1.4,0.2-1.7-0.4c-0.2-0.3-0.2-0.6-0.2-0.9l0.4-2.1
		c0.1-0.4-0.1-0.8-0.4-1.1L0.4,5.7c-0.5-0.5-0.5-1.3,0-1.8c0.2-0.2,0.5-0.3,0.7-0.4l2-0.2c0.4-0.1,0.8-0.3,1-0.7L4.9,0.8z"/>
</g>
</svg>
