<?xml version="1.0" encoding="utf-8"?>
<!-- Generator: Adobe Illustrator 24.0.1, SVG Export Plug-In . SVG Version: 6.00 Build 0)  -->
<svg version="1.1" id="Layer_1" xmlns="http://www.w3.org/2000/svg" xmlns:xlink="http://www.w3.org/1999/xlink" x="0px" y="0px"
	 viewBox="0 0 12 12" style="enable-background:new 0 0 12 12;" xml:space="preserve">
<style type="text/css">
	.st0{fill:#AEAEB0;}
</style>
<g>
	<g>
		<g id="icon_like" transform="translate(-247 -215)">
			<path id="thumbs-up" class="st0" d="M247.5,226.5h9.1c0.8,0,1.5-0.6,1.6-1.3l0.7-3.8c0.1-0.5,0-1-0.3-1.3
				c-0.3-0.4-0.8-0.6-1.3-0.6h-2.6v-2.2c0-1.1-1.2-1.6-2.2-1.6c-0.3,0-0.5,0.2-0.5,0.5l0,0c0.1,0.8-0.1,1.6-0.4,2.3l-1.5,1.5h-2.5
				c-0.3,0-0.5,0.2-0.5,0.5v5.5C247,226.2,247.2,226.5,247.5,226.5z M250.8,220.7l1.5-1.5c0.5-0.7,0.7-1.6,0.7-2.5
				c0.3,0.1,0.6,0.2,0.6,0.5v2.7c0,0.3,0.2,0.5,0.5,0.5h3.1c0.2,0,0.3,0.1,0.5,0.2c0.1,0.1,0.1,0.3,0.1,0.4l-0.7,3.8
				c-0.1,0.3-0.3,0.5-0.6,0.4h-5.8V220.7z M248.1,221h1.6v4.4h-1.6V221z"/>
		</g>
	</g>
</g>
</svg>
