<?xml version="1.0" encoding="utf-8"?>
<!-- Generator: Adobe Illustrator 24.0.1, SVG Export Plug-In . SVG Version: 6.00 Build 0)  -->
<svg version="1.1" id="Layer_1" xmlns="http://www.w3.org/2000/svg" xmlns:xlink="http://www.w3.org/1999/xlink" x="0px" y="0px"
	 viewBox="0 0 20 20" style="enable-background:new 0 0 20 20;" xml:space="preserve">
<style type="text/css">
	.st0{opacity:0.685;}
</style>
<g>
	<g>
		<g id="마스크_그룹_25" transform="translate(-30 -707)" class="st0">
			<g id="settings_1_" transform="translate(30 707)">
				<g id="그룹_233">
					<g id="그룹_232">
						<path id="패스_1016" d="M18.7,7.8h-1.6c-0.1-0.4-0.3-0.9-0.5-1.3l1.1-1.2c0.5-0.5,0.5-1.3,0-1.8l-1.2-1.2
							c-0.5-0.5-1.3-0.5-1.8,0l-1.1,1.1c-0.4-0.2-0.8-0.4-1.3-0.5V1.3c0-0.7-0.6-1.3-1.3-1.3H9.1C8.4,0,7.8,0.6,7.8,1.3v1.6
							C7.4,3.1,7,3.2,6.5,3.5L5.4,2.3c-0.5-0.5-1.3-0.5-1.8,0L2.3,3.5c-0.5,0.5-0.5,1.3,0,1.8l1.1,1.1C3.2,7,3.1,7.4,2.9,7.8H1.3
							C0.6,7.8,0,8.4,0,9.1v1.7c0,0.7,0.6,1.3,1.3,1.3h1.6c0.1,0.4,0.3,0.9,0.5,1.3l-1.1,1.2c-0.5,0.5-0.5,1.3,0,1.8l1.2,1.2
							c0.5,0.5,1.3,0.5,1.8,0l1.1-1.1c0.4,0.2,0.8,0.4,1.3,0.5v1.6c0,0.7,0.6,1.3,1.3,1.3h1.7c0.7,0,1.3-0.6,1.3-1.3v-1.6
							c0.4-0.1,0.9-0.3,1.3-0.5l1.2,1.1c0.5,0.5,1.3,0.5,1.8,0l1.2-1.2c0.5-0.5,0.5-1.3,0-1.8l-1.1-1.2c0.2-0.4,0.4-0.8,0.5-1.3h1.6
							c0.7,0,1.3-0.6,1.3-1.3V9.1C20,8.4,19.4,7.8,18.7,7.8z M19.1,10.9c0,0.2-0.2,0.4-0.4,0.4l0,0h-2c-0.2,0-0.4,0.1-0.4,0.3
							c-0.2,0.6-0.4,1.2-0.7,1.7c-0.1,0.2-0.1,0.4,0.1,0.5l1.4,1.4c0.2,0.2,0.2,0.4,0,0.6l-1.2,1.2c-0.2,0.2-0.4,0.2-0.6,0l-1.4-1.4
							c-0.1-0.1-0.4-0.2-0.5-0.1c-0.5,0.3-1.1,0.5-1.7,0.7c-0.2,0-0.3,0.2-0.3,0.4v2c0,0.2-0.2,0.4-0.4,0.4l0,0H9.1
							c-0.2,0-0.4-0.2-0.4-0.4v-2c0-0.2-0.1-0.4-0.3-0.4c-0.6-0.2-1.2-0.4-1.7-0.7c-0.1,0-0.1-0.1-0.2-0.1c-0.1,0-0.2,0-0.3,0.1
							l-1.4,1.4c-0.2,0.2-0.4,0.2-0.6,0l-1.2-1.2c-0.2-0.2-0.2-0.4,0-0.6l1.4-1.4c0.1-0.1,0.2-0.4,0.1-0.5c-0.3-0.5-0.5-1.1-0.7-1.7
							c0-0.2-0.2-0.3-0.4-0.3h-2c-0.2,0-0.4-0.2-0.4-0.4V9.1c0-0.2,0.2-0.4,0.4-0.4h2c0.2,0,0.4-0.1,0.4-0.3
							c0.2-0.6,0.4-1.2,0.7-1.7c0.1-0.2,0.1-0.4-0.1-0.5L2.9,4.8c-0.2-0.2-0.2-0.4,0-0.6l1.2-1.2c0.2-0.2,0.4-0.2,0.6,0l1.4,1.4
							c0.1,0.1,0.4,0.2,0.5,0.1c0.5-0.3,1.1-0.5,1.7-0.7c0.2,0,0.3-0.2,0.3-0.4v-2c0-0.2,0.2-0.4,0.4-0.4h1.7c0.2,0,0.4,0.2,0.4,0.4
							v0v2c0,0.2,0.1,0.4,0.3,0.4c0.6,0.2,1.2,0.4,1.7,0.7c0.2,0.1,0.4,0.1,0.5-0.1l1.4-1.4c0.2-0.2,0.4-0.2,0.6,0l1.2,1.2
							c0.2,0.2,0.2,0.4,0,0.6l-1.4,1.4c-0.1,0.1-0.2,0.4-0.1,0.5c0.3,0.5,0.5,1.1,0.7,1.7c0,0.2,0.2,0.3,0.4,0.3h2
							c0.2,0,0.4,0.2,0.4,0.4l0,0L19.1,10.9z"/>
					</g>
				</g>
				<g id="그룹_235">
					<g id="그룹_234">
						<path id="패스_1017" d="M10,6.1c-2.2,0-3.9,1.8-3.9,3.9s1.8,3.9,3.9,3.9s3.9-1.8,3.9-3.9C13.9,7.8,12.2,6.1,10,6.1z M10,13
							c-1.7,0-3-1.4-3-3s1.4-3,3-3c1.7,0,3,1.4,3,3C13,11.7,11.7,13,10,13L10,13z"/>
					</g>
				</g>
			</g>
		</g>
	</g>
</g>
</svg>
