<?xml version="1.0" encoding="utf-8"?>
<!-- Generator: Adobe Illustrator 24.0.1, SVG Export Plug-In . SVG Version: 6.00 Build 0)  -->
<svg version="1.1" id="Capa_1" xmlns="http://www.w3.org/2000/svg" xmlns:xlink="http://www.w3.org/1999/xlink" x="0px" y="0px"
	 viewBox="0 0 30 30" style="enable-background:new 0 0 30 30;" xml:space="preserve">
<style type="text/css">
	.st0{fill:#AEAEB0;}
</style>
<g id="그룹_354" transform="translate(-282 -265)">
	<g id="settings_2_" transform="translate(282 265)">
		<path id="패스_1150" class="st0" d="M15,30c-1.8,0-3.3-1.5-3.3-3.3v-1c-0.7-0.2-1.4-0.5-2-0.8L9,25.6c-1.3,1.3-3.4,1.3-4.6,0
			c-1.3-1.3-1.3-3.4,0-4.6c0,0,0,0,0,0l0.7-0.7c-0.3-0.6-0.6-1.3-0.8-2h-1C1.5,18.3,0,16.8,0,15s1.5-3.3,3.3-3.3h1
			c0.2-0.7,0.5-1.4,0.8-2L4.4,9c-1.3-1.3-1.3-3.4,0-4.6s3.4-1.3,4.6,0l0.7,0.7c0.6-0.3,1.3-0.6,2-0.8v-1C11.7,1.5,13.2,0,15,0
			c0.2,0,0.4,0,0.7,0.1c1.5,0.3,2.6,1.7,2.6,3.2v1c0.7,0.2,1.4,0.5,2,0.8L21,4.4c1.3-1.3,3.4-1.3,4.6,0c1.3,1.3,1.3,3.4,0,4.6
			c0,0,0,0,0,0l-0.7,0.7c0.3,0.6,0.6,1.3,0.8,2h1c1.8,0,3.3,1.5,3.3,3.3s-1.5,3.3-3.3,3.3h-1c-0.2,0.7-0.5,1.4-0.8,2l0.7,0.7
			c1.3,1.3,1.3,3.4,0,4.6s-3.4,1.3-4.6,0l0,0l-0.7-0.7c-0.6,0.3-1.3,0.6-2,0.8v1c0,1.6-1.1,2.9-2.6,3.2l0,0C15.4,30,15.2,30,15,30z
			 M15.5,29L15.5,29z M9.6,22.8c0.2,0,0.4,0,0.5,0.1c0.9,0.5,1.8,0.9,2.8,1.2c0.4,0.1,0.7,0.5,0.7,0.9v1.7c0,0.8,0.6,1.4,1.4,1.4
			c0.1,0,0.2,0,0.3,0c0.7-0.1,1.1-0.7,1.1-1.4V25c0-0.4,0.3-0.8,0.7-0.9c1-0.2,1.9-0.6,2.8-1.2c0.4-0.2,0.8-0.2,1.2,0.1l1.2,1.2
			c0.5,0.5,1.4,0.5,2,0s0.5-1.4,0-2l-1.2-1.2c-0.3-0.3-0.4-0.8-0.1-1.2c0.5-0.9,0.9-1.8,1.2-2.8c0.1-0.4,0.5-0.7,0.9-0.7h1.7
			c0.8,0,1.4-0.6,1.4-1.4s-0.6-1.4-1.4-1.4l0,0H25c-0.4,0-0.8-0.3-0.9-0.7c-0.2-1-0.6-1.9-1.2-2.8c-0.2-0.4-0.2-0.8,0.1-1.2l1.2-1.2
			c0.5-0.5,0.5-1.4,0-2s-1.4-0.5-2,0l-1.2,1.2C20.8,7.2,20.3,7.3,20,7c-0.9-0.5-1.8-0.9-2.8-1.2c-0.4-0.1-0.7-0.5-0.7-0.9V3.3
			c0-0.7-0.5-1.2-1.1-1.4c-0.1,0-0.2,0-0.3,0c-0.8,0-1.4,0.6-1.4,1.4V5c0,0.4-0.3,0.8-0.7,0.9c-1,0.2-1.9,0.6-2.8,1.2
			C9.7,7.3,9.2,7.2,8.9,6.9L7.7,5.7c-0.5-0.5-1.4-0.5-2,0s-0.5,1.4,0,2l1.2,1.2C7.2,9.2,7.3,9.7,7,10.1c-0.5,0.9-0.9,1.8-1.2,2.8
			c-0.1,0.4-0.5,0.7-0.9,0.7H3.3c-0.8,0-1.4,0.6-1.4,1.4s0.6,1.4,1.4,1.4H5c0.4,0,0.8,0.3,0.9,0.7c0.2,1,0.6,1.9,1.2,2.8
			c0.2,0.4,0.2,0.9-0.1,1.2l-1.2,1.2c-0.5,0.5-0.5,1.4,0,2s1.4,0.5,2,0l1.2-1.2C9.1,22.9,9.3,22.8,9.6,22.8L9.6,22.8z"/>
		<path id="패스_1151" class="st0" d="M15,21.6c-3.6,0-6.5-3-6.5-6.6c0-3.6,2.9-6.4,6.5-6.5c0.2,0,0.4,0,0.6,0
			c3.6,0.3,6.3,3.5,6,7.1c-0.3,3.2-2.8,5.7-6,6C15.4,21.6,15.2,21.6,15,21.6z M15,10.3c-2.6,0-4.7,2.2-4.6,4.8
			c0,2.5,2.1,4.6,4.6,4.6c0.1,0,0.3,0,0.4,0c2.6-0.2,4.5-2.5,4.3-5.1c-0.2-2.3-2-4.1-4.3-4.3C15.3,10.3,15.1,10.3,15,10.3L15,10.3z"
			/>
	</g>
</g>
</svg>
