<?xml version="1.0" encoding="utf-8"?>
<!-- Generator: Adobe Illustrator 24.0.1, SVG Export Plug-In . SVG Version: 6.00 Build 0)  -->
<svg version="1.1" id="Layer_1" xmlns="http://www.w3.org/2000/svg" xmlns:xlink="http://www.w3.org/1999/xlink" x="0px" y="0px"
	 viewBox="0 0 9 9" style="enable-background:new 0 0 9 9;" xml:space="preserve">
<style type="text/css">
	.st0{fill:#303441;}
</style>
<path class="st0" d="M8.2,3.7H5.3V0.8C5.3,0.4,5,0,4.5,0C4,0,3.7,0.4,3.7,0.8v2.9H0.8C0.4,3.7,0,4,0,4.5C0,5,0.4,5.3,0.8,5.3h2.9
	v2.9C3.7,8.6,4,9,4.5,9C5,9,5.3,8.6,5.3,8.2V5.3h2.9C8.6,5.3,9,5,9,4.5C9,4,8.6,3.7,8.2,3.7z"/>
</svg>
