<?xml version="1.0" encoding="utf-8"?>
<!-- Generator: Adobe Illustrator 24.0.1, SVG Export Plug-In . SVG Version: 6.00 Build 0)  -->
<svg version="1.1" id="Layer_1" xmlns="http://www.w3.org/2000/svg" xmlns:xlink="http://www.w3.org/1999/xlink" x="0px" y="0px"
	 viewBox="0 0 20 20" style="enable-background:new 0 0 20 20;" xml:space="preserve">
<style type="text/css">
	.st0{opacity:0.685;}
</style>
<g>
	<g>
		<g id="마스크_그룹_24" transform="translate(-30 -647)" class="st0">
			<g id="headphones_1_" transform="translate(30 647)">
				<g id="그룹_231">
					<path id="패스_1015" d="M16.8,6.8C16.8,3.1,13.8,0,10,0S3.2,3.1,3.2,6.8C2,6.9,1.2,7.9,1.3,9.1c0,0,0,0,0,0v3.6
						c-0.1,1.2,0.8,2.2,1.9,2.3c0.1,0,0.2,0,0.3,0h1.1c0.2,0,0.4-0.2,0.4-0.4l0,0V7.2C5,7,4.9,6.8,4.6,6.8l0,0H3.9
						c0-3.4,2.7-6.1,6.1-6.1s6.1,2.7,6.1,6.1h-0.7C15.2,6.8,15,7,15,7.2l0,0v7.3c0,0.2,0.2,0.4,0.4,0.4l0,0h0.7
						c-0.1,2.6-1.4,3.2-3.9,3.3V18c0-0.4-0.3-0.8-0.8-0.8l0,0H9.1c-0.4,0-0.8,0.3-0.8,0.8l0,0v1.2c0,0.4,0.3,0.8,0.8,0.8
						c0,0,0,0,0,0h2.4c0.4,0,0.8-0.3,0.8-0.8l0,0V19c2.4-0.1,4.5-0.6,4.6-4.1c1.1-0.1,2-1.1,1.9-2.2c0,0,0,0,0,0V9.1
						C18.8,8,18,7,16.8,6.8C16.9,6.8,16.9,6.8,16.8,6.8z M4.3,7.6v6.6H3.5c-0.8,0.1-1.4-0.5-1.5-1.2c0-0.1,0-0.2,0-0.3V9.1
						C1.9,8.3,2.5,7.6,3.2,7.6c0.1,0,0.2,0,0.3,0H4.3z M11.5,18.7v0.6H9.1V18h2.4V18.7z M18,12.7c0.1,0.8-0.5,1.4-1.2,1.5
						c-0.1,0-0.2,0-0.3,0h-0.7V7.6h0.7C17.2,7.5,17.9,8,18,8.8c0,0.1,0,0.2,0,0.3L18,12.7z"/>
				</g>
			</g>
		</g>
	</g>
</g>
</svg>
