<?xml version="1.0" encoding="utf-8"?>
<!-- Generator: Adobe Illustrator 24.0.1, SVG Export Plug-In . SVG Version: 6.00 Build 0)  -->
<svg version="1.1" id="Capa_1" xmlns="http://www.w3.org/2000/svg" xmlns:xlink="http://www.w3.org/1999/xlink" x="0px" y="0px"
	 viewBox="0 0 20 20" style="enable-background:new 0 0 20 20;" xml:space="preserve">
<style type="text/css">
	.st0{fill:#AEAEB0;}
</style>
<g>
	<g>
		<g>
			<path class="st0" d="M2.2,12.2C1,12.2,0,11.2,0,10c0-1.2,1-2.2,2.2-2.2s2.2,1,2.2,2.2C4.4,11.2,3.4,12.2,2.2,12.2z"/>
		</g>
		<g>
			<path class="st0" d="M9.9,12.2c-1.2,0-2.2-1-2.2-2.2c0-1.2,1-2.2,2.2-2.2c1.2,0,2.2,1,2.2,2.2C12.1,11.2,11.1,12.2,9.9,12.2z"/>
		</g>
		<g>
			<path class="st0" d="M17.8,12.2c-1.2,0-2.2-1-2.2-2.2c0-1.2,1-2.2,2.2-2.2S20,8.8,20,10C20,11.2,19,12.2,17.8,12.2z"/>
		</g>
	</g>
</g>
</svg>
