<?xml version="1.0" encoding="utf-8"?>
<!-- Generator: Adobe Illustrator 24.0.1, SVG Export Plug-In . SVG Version: 6.00 Build 0)  -->
<svg version="1.1" id="Layer_1" xmlns="http://www.w3.org/2000/svg" xmlns:xlink="http://www.w3.org/1999/xlink" x="0px" y="0px"
	 viewBox="0 0 20 20" style="enable-background:new 0 0 20 20;" xml:space="preserve">
<style type="text/css">
	.st0{fill:#CECCCD;}
</style>
<g id="icon_close" transform="translate(-378 -32)">
	<g id="타원_115">
		<path class="st0" d="M388,32c-5.5,0-10,4.5-10,10s4.5,10,10,10s10-4.5,10-10S393.5,32,388,32z M391.9,44.5c0.4,0.4,0.4,1,0,1.4
			c-0.2,0.2-0.4,0.3-0.7,0.3s-0.5-0.1-0.7-0.3l-2.4-2.4l-2.4,2.4c-0.2,0.2-0.5,0.3-0.7,0.3s-0.5-0.1-0.7-0.3c-0.4-0.4-0.4-1,0-1.4
			l2.4-2.4l-2.4-2.4c-0.4-0.4-0.4-1,0-1.4c0.4-0.4,1-0.4,1.4,0l2.4,2.4l2.4-2.4c0.4-0.4,1-0.4,1.4,0c0.4,0.4,0.4,1,0,1.4l-2.4,2.4
			L391.9,44.5z"/>
	</g>
</g>
</svg>
