<?xml version="1.0" encoding="utf-8"?>
<!-- Generator: Adobe Illustrator 24.0.1, SVG Export Plug-In . SVG Version: 6.00 Build 0)  -->
<svg version="1.1" id="Layer_1" xmlns="http://www.w3.org/2000/svg" xmlns:xlink="http://www.w3.org/1999/xlink" x="0px" y="0px"
	 viewBox="0 0 20 20" style="enable-background:new 0 0 20 20;" xml:space="preserve">
<style type="text/css">
	.st0{fill:#303441;}
</style>
<path class="st0" d="M16.5,13.1c-1.1,0-2,0.5-2.7,1.3l-7.1-3.5c0.1-0.3,0.1-0.5,0.1-0.8c0-0.3,0-0.6-0.1-0.8l7.1-3.5
	c0.6,0.8,1.6,1.3,2.7,1.3c1.9,0,3.4-1.6,3.5-3.5C20,1.5,18.5,0,16.5,0c-1.9,0-3.5,1.5-3.5,3.5c0,0.3,0,0.6,0.1,0.8L6.1,7.8
	C5.5,7,4.5,6.5,3.5,6.5C1.5,6.5,0,8.1,0,10c0,1.9,1.5,3.5,3.5,3.5c1.1,0,2-0.5,2.6-1.3l7.1,3.5c-0.1,0.3-0.1,0.5-0.1,0.8
	c0,1.9,1.5,3.5,3.5,3.5c1.9,0,3.4-1.6,3.5-3.5C20,14.6,18.5,13.1,16.5,13.1z M16.5,1.5c1.1,0,1.9,0.9,1.9,1.9c0,1.1-0.9,1.9-1.9,1.9
	c-1.1,0-1.9-0.9-1.9-1.9S15.5,1.5,16.5,1.5z M3.5,11.9c-1.1,0-1.9-0.9-1.9-1.9s0.9-1.9,1.9-1.9c1.1,0,1.9,0.9,1.9,1.9
	C5.4,11.1,4.5,11.9,3.5,11.9z M16.5,18.5c-1.1,0-1.9-0.9-1.9-1.9s0.9-1.9,1.9-1.9c1.1,0,1.9,0.9,1.9,1.9
	C18.5,17.6,17.6,18.5,16.5,18.5z"/>
</svg>
