<?xml version="1.0" encoding="utf-8"?>
<!-- Generator: Adobe Illustrator 24.0.1, SVG Export Plug-In . SVG Version: 6.00 Build 0)  -->
<svg version="1.1" id="Layer_1" xmlns="http://www.w3.org/2000/svg" xmlns:xlink="http://www.w3.org/1999/xlink" x="0px" y="0px"
	 viewBox="0 0 16 16" style="enable-background:new 0 0 16 16;" xml:space="preserve">
<style type="text/css">
	.st0{fill:#AEAEB0;}
</style>
<g id="icon-sportsbattle" transform="translate(-487.93 -147.126)">
	<g id="그룹_8">
		<path id="패스_56" class="st0" d="M499.7,152.5c-1.5,0-2.7-1.2-2.7-2.7s1.2-2.7,2.7-2.7s2.7,1.2,2.7,2.7
			S501.1,152.5,499.7,152.5z M499.7,148.2c-0.9,0-1.6,0.7-1.6,1.6s0.7,1.6,1.6,1.6s1.6-0.7,1.6-1.6S500.5,148.2,499.7,148.2z"/>
	</g>
	<g id="그룹_9">
		<path id="패스_57" class="st0" d="M499.7,163.1h-7.5c-2.4,0-4.3-1.9-4.3-4.3v-3.2c0-2.4,1.9-4.3,4.3-4.3c1.1,0,2.2,0.4,3,1.2
			c0.3,0.3,0.5,0.6,0.7,1c1.1-2.1,3.7-2.8,5.8-1.7c0.3,0.2,0.7,0.4,0.9,0.7c0.8,0.8,1.3,1.9,1.3,3v3.2
			C503.9,161.2,502,163.1,499.7,163.1z M492.2,152.5c-1.8,0-3.2,1.4-3.2,3.2v3.2c0,1.8,1.4,3.2,3.2,3.2h7.5c1.8,0,3.2-1.4,3.2-3.2
			v-3.2c0-1.8-1.4-3.2-3.2-3.2s-3.2,1.4-3.2,3.2h-1.1C495.4,153.9,494,152.5,492.2,152.5z"/>
	</g>
	<g id="그룹_10">
		<path id="패스_58" class="st0" d="M492.2,152.5c-1.5,0-2.7-1.2-2.7-2.7s1.2-2.7,2.7-2.7c1.5,0,2.7,1.2,2.7,2.7
			S493.7,152.5,492.2,152.5z M492.2,148.2c-0.9,0-1.6,0.7-1.6,1.6s0.7,1.6,1.6,1.6s1.6-0.7,1.6-1.6S493.1,148.2,492.2,148.2z"/>
	</g>
	<g id="그룹_13">
		<g id="그룹_11">
			<path id="패스_59" class="st0" d="M493.7,161l-1.7-4.5h1l1.2,3.5l1.2-3.5h1l-1.7,4.5H493.7z"/>
		</g>
		<g id="그룹_12">
			<path id="패스_60" class="st0" d="M498.2,161.1c-0.3,0-0.5,0-0.7-0.1c-0.2-0.1-0.4-0.2-0.6-0.4c-0.2-0.2-0.3-0.4-0.3-0.6
				l0.9-0.2c0,0.2,0.1,0.3,0.3,0.4c0.1,0.1,0.3,0.2,0.5,0.1c0.1,0,0.2,0,0.4-0.1c0.1,0,0.2-0.1,0.2-0.2c0.1-0.1,0.1-0.2,0.1-0.3
				c0-0.1-0.1-0.3-0.2-0.3c-0.2-0.1-0.3-0.2-0.5-0.2l-0.2,0c-0.4-0.1-0.7-0.2-1-0.5c-0.2-0.2-0.3-0.5-0.3-0.8c0-0.2,0-0.4,0.1-0.6
				c0.1-0.2,0.2-0.3,0.3-0.4c0.1-0.1,0.3-0.2,0.5-0.3c0.2-0.1,0.4-0.1,0.6-0.1c0.2,0,0.5,0,0.7,0.1c0.2,0.1,0.4,0.2,0.6,0.4
				c0.2,0.2,0.3,0.4,0.3,0.6l-0.9,0.2c0-0.2-0.1-0.3-0.3-0.4c-0.1-0.1-0.3-0.1-0.4-0.1c-0.1,0-0.2,0-0.3,0.1c-0.1,0-0.2,0.1-0.2,0.2
				c-0.1,0.1-0.1,0.2-0.1,0.3c0,0.1,0.1,0.3,0.2,0.3c0.2,0.1,0.3,0.2,0.5,0.2l0.2,0c0.4,0.1,0.7,0.2,1,0.5c0.2,0.2,0.3,0.5,0.3,0.9
				c0,0.2,0,0.4-0.1,0.6c-0.1,0.2-0.2,0.3-0.3,0.5c-0.2,0.1-0.3,0.2-0.5,0.3C498.7,161,498.5,161.1,498.2,161.1z"/>
		</g>
	</g>
</g>
</svg>
