<?xml version="1.0" encoding="utf-8"?>
<!-- Generator: Adobe Illustrator 24.0.1, SVG Export Plug-In . SVG Version: 6.00 Build 0)  -->
<svg version="1.1" id="Capa_1" xmlns="http://www.w3.org/2000/svg" xmlns:xlink="http://www.w3.org/1999/xlink" x="0px" y="0px"
	 viewBox="0 0 27 27" style="enable-background:new 0 0 27 27;" xml:space="preserve">
<style type="text/css">
	.st0{fill:#707070;}
</style>
<g>
	<path class="st0" d="M26.8,11.4c-0.1-0.7-0.2-1.3-0.5-2c-0.1-0.4-0.3-0.8-0.5-1.2c-0.2-0.4-0.4-0.8-0.6-1.2c0,0,0,0,0,0
		c-1.2-2.3-3.1-4.2-5.4-5.4c0,0,0,0,0,0c-0.4-0.2-0.8-0.4-1.2-0.6c-0.4-0.2-0.8-0.3-1.2-0.5c-0.6-0.2-1.3-0.3-2-0.5
		C14.9,0,14.2,0,13.5,0s-1.4,0-2.1,0.2c-0.7,0.1-1.3,0.2-2,0.5C9.1,0.7,8.7,0.9,8.2,1.1C7.8,1.2,7.5,1.4,7.1,1.6c0,0,0,0,0,0
		C4.8,2.9,2.9,4.8,1.6,7.1c0,0,0,0,0,0C1.4,7.5,1.2,7.8,1.1,8.2C0.9,8.7,0.7,9.1,0.6,9.5c-0.2,0.6-0.3,1.3-0.5,2
		C0,12.1,0,12.8,0,13.5s0,1.4,0.2,2.1c0.1,0.7,0.2,1.3,0.5,2c0.1,0.4,0.3,0.8,0.5,1.2c0.2,0.4,0.4,0.8,0.6,1.2c0,0,0,0,0,0
		c1.2,2.3,3.1,4.2,5.4,5.4c0,0,0,0,0,0c0.4,0.2,0.8,0.4,1.2,0.6c0.4,0.2,0.8,0.3,1.2,0.5c0.6,0.2,1.3,0.3,2,0.5
		c0.7,0.1,1.4,0.2,2.1,0.2s1.4,0,2.1-0.2c0.7-0.1,1.3-0.2,2-0.5c0.4-0.1,0.8-0.3,1.2-0.5c0.4-0.2,0.8-0.4,1.2-0.6c0,0,0,0,0,0
		c2.3-1.2,4.2-3.1,5.4-5.4c0,0,0,0,0,0c0.2-0.4,0.4-0.8,0.6-1.2c0.2-0.4,0.3-0.8,0.5-1.2c0.2-0.6,0.3-1.3,0.5-2
		c0.1-0.7,0.2-1.4,0.2-2.1S27,12.1,26.8,11.4z M13.5,26C6.6,26,1,20.4,1,13.5S6.6,1,13.5,1S26,6.6,26,13.5S20.4,26,13.5,26z"/>
	<rect x="8" y="9.5" class="st0" width="12" height="1"/>
	<rect x="8" y="13.5" class="st0" width="12" height="1"/>
	<rect x="8" y="17.5" class="st0" width="12" height="1"/>
</g>
</svg>
