<?xml version="1.0" encoding="utf-8"?>
<!-- Generator: Adobe Illustrator 24.0.1, SVG Export Plug-In . SVG Version: 6.00 Build 0)  -->
<svg version="1.1" id="Layer_1" xmlns="http://www.w3.org/2000/svg" xmlns:xlink="http://www.w3.org/1999/xlink" x="0px" y="0px"
	 viewBox="0 0 12 12" style="enable-background:new 0 0 12 12;" xml:space="preserve">
<style type="text/css">
	.st0{fill:#AEAEB0;}
</style>
<g>
	<g>
		<g id="icon_bubble" transform="translate(-303 -215)">
			<g id="chat_1_" transform="translate(303 215)">
				<g id="그룹_265">
					<g id="그룹_264">
						<path id="패스_1053" class="st0" d="M11,7.2C10.9,7,10.6,6.8,10.4,7c-0.2,0.1-0.3,0.4-0.2,0.6l0.6,1.4L9,8.2
							c-0.1-0.1-0.3-0.1-0.4,0C8.1,8.4,7.5,8.5,6.9,8.5C4.7,8.6,2.8,6.9,2.7,4.7c0.1-2.2,2-3.9,4.2-3.8c2.2-0.1,4.1,1.6,4.2,3.8
							c0,0.2,0,0.4,0,0.5c0,0.3,0.1,0.5,0.4,0.5c0.3,0,0.5-0.1,0.5-0.4c0,0,0,0,0,0c0-0.2,0-0.5,0-0.7c0-1.3-0.6-2.5-1.5-3.4
							C9.5,0.5,8.2,0,6.9,0C5.5,0,4.2,0.5,3.3,1.4c-0.9,0.8-1.4,1.8-1.5,3C0.7,5,0,6.2,0,7.5C0,8.3,0.3,9,0.7,9.7L0,11.4
							c-0.1,0.2,0,0.5,0.3,0.6c0.1,0,0.2,0,0.4,0l2-0.9c0.5,0.2,1,0.3,1.6,0.3h0c0.8,0,1.5-0.2,2.2-0.6C7,10.4,7.5,10,7.9,9.4
							c0.3-0.1,0.7-0.2,1-0.3l2.5,1.1c0.2,0.1,0.5,0,0.6-0.2c0-0.1,0.1-0.2,0-0.4L11,7.2z M4.2,10.4L4.2,10.4c-0.5,0-1-0.1-1.4-0.3
							c-0.1-0.1-0.3-0.1-0.4,0l-1.1,0.5l0.4-0.9c0.1-0.2,0-0.3-0.1-0.5C1.2,8.8,0.9,8.1,0.9,7.5c0-0.8,0.3-1.5,0.9-2
							C2,6.5,2.5,7.3,3.2,8c0.9,0.9,2.1,1.4,3.4,1.4C6,10.1,5.1,10.4,4.2,10.4z"/>
						<circle id="타원_97" class="st0" cx="6.8" cy="4.8" r="0.5"/>
						<circle id="타원_98" class="st0" cx="8.7" cy="4.8" r="0.5"/>
						<circle id="타원_99" class="st0" cx="5" cy="4.8" r="0.5"/>
					</g>
				</g>
			</g>
		</g>
	</g>
</g>
</svg>
