<?xml version="1.0" encoding="utf-8"?>
<!-- Generator: Adobe Illustrator 24.0.1, SVG Export Plug-In . SVG Version: 6.00 Build 0)  -->
<svg version="1.1" id="Layer_1" xmlns="http://www.w3.org/2000/svg" xmlns:xlink="http://www.w3.org/1999/xlink" x="0px" y="0px"
	 viewBox="0 0 20 20" style="enable-background:new 0 0 20 20;" xml:space="preserve">
<style type="text/css">
	.st0{opacity:0.685;}
</style>
<g>
	<g>
		<g id="마스크_그룹_21" transform="translate(-30 -467)" class="st0">
			<g id="gift_1_" transform="translate(30 467)">
				<g id="그룹_230">
					<g id="그룹_229">
						<path id="패스_1001" d="M15.7,4.5c0-1.1-0.9-2-2-2c-0.5,0-1.1,0.2-1.4,0.6L9.6,5.6L7,3C6.2,2.2,5,2.2,4.2,3
							C3.4,3.8,3.4,5,4.1,5.8H2.1v5h1.1v6.8h12.9v-6.8h1.1v-5h-1.9C15.5,5.4,15.7,4.9,15.7,4.5z M12.8,3.5c0.5-0.5,1.3-0.5,1.9,0
							s0.5,1.3,0,1.9c-0.2,0.2-0.6,0.4-0.9,0.4h-3.2L12.8,3.5z M5.1,3.2c0.2-0.1,0.3-0.1,0.5-0.1c0.3,0,0.7,0.1,0.9,0.4l2.2,2.3H5.6
							c-0.7,0-1.3-0.6-1.3-1.3C4.3,3.9,4.6,3.4,5.1,3.2z M2.9,10.1V6.5h5v3.6H2.9z M8.2,16.9H3.9v-6.1h4.3V16.9z M10.4,16.9H8.9
							v-6.1h1.4L10.4,16.9z M10.7,10.1H8.6V6.5h2.1L10.7,10.1z M15.4,16.9h-4.3v-6.1h4.3L15.4,16.9z M16.4,6.5v3.6h-5V6.5H16.4z"/>
						<rect id="사각형_114" x="18.2" y="2.9" width="0.7" height="0.7"/>
						<rect id="사각형_115" x="18.2" y="5.1" width="0.7" height="0.7"/>
						<rect id="사각형_116" x="19.3" y="4" width="0.7" height="0.7"/>
						<rect id="사각형_117" x="17.1" y="4" width="0.7" height="0.7"/>
						<rect id="사각형_118" x="0.7" y="3.3" width="0.7" height="0.7"/>
						<rect id="사각형_119" x="0.7" y="4.7" width="0.7" height="0.7"/>
						<rect id="사각형_120" x="1.4" y="4" width="0.7" height="0.7"/>
						<rect id="사각형_121" x="0" y="4" width="0.7" height="0.7"/>
					</g>
				</g>
			</g>
		</g>
	</g>
</g>
</svg>
