<?xml version="1.0" encoding="utf-8"?>
<!-- Generator: Adobe Illustrator 24.0.1, SVG Export Plug-In . SVG Version: 6.00 Build 0)  -->
<svg version="1.1" id="Layer_1" xmlns="http://www.w3.org/2000/svg" xmlns:xlink="http://www.w3.org/1999/xlink" x="0px" y="0px"
	 viewBox="0 0 16 16" style="enable-background:new 0 0 16 16;" xml:space="preserve">
<style type="text/css">
	.st0{fill:#AEAEB0;}
</style>
<g id="icon-exercise" transform="translate(-464 -147)">
	<g id="타원_2">
		<path class="st0" d="M472,163c-4.4,0-8-3.6-8-8c0-4.4,3.6-8,8-8c4.4,0,8,3.6,8,8C480,159.4,476.4,163,472,163z M472,147.9
			c-3.9,0-7.1,3.2-7.1,7.1s3.2,7.1,7.1,7.1s7.1-3.2,7.1-7.1S475.9,147.9,472,147.9z"/>
	</g>
	<g id="패스_49">
		<path class="st0" d="M467.6,160.8l-0.9-0.1c0.8-11.5,11-11.1,11.1-11.1l-0.1,0.9C477.3,150.5,468.3,150.2,467.6,160.8z"/>
	</g>
	<g id="패스_50">
		<path class="st0" d="M477.5,154.1c-1.9,0-3.3-0.5-4.2-1.6c-1.7-2-0.8-5-0.8-5.2l0.9,0.3c0,0-0.8,2.7,0.6,4.3
			c1,1.1,2.7,1.5,5.3,1.1l0.1,0.9C478.7,154,478.1,154.1,477.5,154.1z"/>
	</g>
	<g id="패스_51">
		<path class="st0" d="M470.9,162.5l-0.6-0.7c1.1-1,1.6-2.7,1.5-4.5c-0.1-1.7-0.8-3.1-1.9-3.8c-2.5-1.7-4.8,0.4-4.9,0.4l-0.6-0.7
			c0,0,3-2.6,6.1-0.5c1.3,0.9,2.2,2.5,2.3,4.5C472.8,159.4,472.1,161.4,470.9,162.5z"/>
	</g>
	<g id="패스_52">
		<path class="st0" d="M477,160.4c-2.9-6.8-9.5-11.2-9.5-11.2l0.5-0.8c0.3,0.2,6.8,4.5,9.9,11.6L477,160.4z"/>
	</g>
</g>
</svg>
