<?xml version="1.0" encoding="utf-8"?>
<!-- Generator: Adobe Illustrator 24.0.1, SVG Export Plug-In . SVG Version: 6.00 Build 0)  -->
<svg version="1.1" id="Layer_1" xmlns="http://www.w3.org/2000/svg" xmlns:xlink="http://www.w3.org/1999/xlink" x="0px" y="0px"
	 viewBox="0 0 20 20" style="enable-background:new 0 0 20 20;" xml:space="preserve">
<style type="text/css">
	.st0{fill:#303441;}
</style>
<g id="notification" transform="translate(-7.58 -6)">
	<g id="그룹_44" transform="translate(13.006 21.051)">
		<path class="st0" d="M1.7,0.3H1.3c0.1,0,0.1,0,0.2,0C1.6,0.3,1.6,0.3,1.7,0.3z"/>
		<path class="st0" d="M7.9,0.3H7.4c0,0,0.1,0,0.2,0C7.7,0.3,7.8,0.3,7.9,0.3z"/>
	</g>
	<g id="그룹_47" transform="translate(9.448 13.32)">
		<path class="st0" d="M2.2,2.8L2.2,2.8C2.2,2.9,2.2,2.9,2.2,2.8L2.2,2.8C2.2,2.8,2.2,2.8,2.2,2.8z"/>
	</g>
	<g id="그룹_49" transform="translate(9.072 21.051)">
		<path class="st0" d="M17.3-2c0,0-0.1-0.1-0.1-0.1C16.4-2.8,16-3.8,16-4.9v-1.8c0,0,0,0,0-0.1c0-3.8-2.9-7.1-6.7-7.4v-0.1
			c0-0.4-0.4-0.8-0.8-0.7c-0.4,0-0.8,0.4-0.7,0.8v0c-3.5,0.4-6.3,3.1-6.7,6.7C1-7.3,1-7,1-6.8v1.9c0,1-0.4,2.1-1.2,2.8
			c0,0-0.1,0.1-0.1,0.1C-0.7-1.6-0.9-1-0.9-0.5c0,1.3,1,2.3,2.3,2.3h3.3c0.4,1.7,1.9,3,3.8,3.1c1.8,0,3.4-1.3,3.8-3.1h3.3
			c0.6,0,1.2-0.3,1.6-0.7C18.1,0.3,18.1-1.1,17.3-2z M8.6,3.4c-1,0-1.9-0.6-2.2-1.5h4.3C10.3,2.7,9.5,3.3,8.6,3.4z M15.6,0.3H1.4
			l0,0c0,0,0,0,0,0h0C1.2,0.3,1,0.2,0.9,0.1C0.6-0.2,0.6-0.7,0.9-1C0.9-1,1-1.1,1-1.1c1-1,1.5-2.3,1.6-3.6c0,0,0,0,0,0
			c0,0,0,0,0-0.1v-0.1c0,0,0,0,0,0v-1.9c0-0.2,0-0.4,0-0.6c0.3-3,2.8-5.3,5.9-5.3h0c3.2,0,5.9,2.6,5.9,5.9v1.9
			c0,1.5,0.6,2.9,1.7,3.9c0.1,0.1,0.2,0.3,0.2,0.5C16.4,0,16,0.3,15.6,0.3z"/>
	</g>
</g>
</svg>
