<?xml version="1.0" encoding="utf-8"?>
<!-- Generator: Adobe Illustrator 24.0.1, SVG Export Plug-In . SVG Version: 6.00 Build 0)  -->
<svg version="1.1" id="Layer_1" xmlns="http://www.w3.org/2000/svg" xmlns:xlink="http://www.w3.org/1999/xlink" x="0px" y="0px"
	 viewBox="0 0 20 20" style="enable-background:new 0 0 20 20;" xml:space="preserve">
<style type="text/css">
	.st0{fill:#F4A100;}
	.st1{fill:none;stroke:#F4A100;}
	.st2{fill:#FAFAFA;}
</style>
<g id="icon-checkbox-square" transform="translate(-208 -570)">
	<g id="사각형_130" transform="translate(208 570)">
		<path class="st0" d="M3,0h14c1.7,0,3,1.3,3,3v14c0,1.7-1.3,3-3,3H3c-1.7,0-3-1.3-3-3V3C0,1.3,1.3,0,3,0z"/>
		<path class="st1" d="M3,0.5h14c1.4,0,2.5,1.1,2.5,2.5v14c0,1.4-1.1,2.5-2.5,2.5H3c-1.4,0-2.5-1.1-2.5-2.5V3C0.5,1.6,1.6,0.5,3,0.5
			z"/>
	</g>
	<g id="check" transform="translate(259.264 404.954)">
		<path id="패스_1038" class="st2" d="M-36.5,172.5L-42,178c-0.3,0.3-0.9,0.3-1.2,0l-2.8-2.8c-0.3-0.4-0.3-0.9,0.1-1.2
			c0.3-0.3,0.8-0.3,1.1,0l2.2,2.2l4.9-4.9c0.3-0.4,0.8-0.4,1.2-0.1c0.4,0.3,0.4,0.8,0.1,1.2C-36.4,172.4-36.5,172.5-36.5,172.5
			L-36.5,172.5z"/>
	</g>
</g>
</svg>
