<?xml version="1.0" encoding="utf-8"?>
<!-- Generator: Adobe Illustrator 24.0.1, SVG Export Plug-In . SVG Version: 6.00 Build 0)  -->
<svg version="1.1" id="Layer_1" xmlns="http://www.w3.org/2000/svg" xmlns:xlink="http://www.w3.org/1999/xlink" x="0px" y="0px"
	 viewBox="0 0 20 20" style="enable-background:new 0 0 20 20;" xml:space="preserve">
<style type="text/css">
	.st0{fill:#4F4F4F;}
</style>
<g>
	<g>
		<g id="마스크_그룹_37" transform="translate(-0.108 -0.378)">
			<g id="photo-camera" transform="translate(-0.027 1.784)">
				<g id="그룹_526" transform="translate(0 0)">
					<g id="그룹_525">
						<path id="패스_1267" class="st0" d="M18,2.9h-3l-0.6-2.3C14.3,0.2,14,0,13.7,0H6.6C6.2,0,6,0.2,5.9,0.6L5.3,2.9h-3
							c-1.2,0-2.1,1-2.1,2.1c0,0,0,0,0,0v10c0,1.2,1,2.1,2.1,2.1H18c1.2,0,2.1-1,2.1-2.1l0,0V5C20.1,3.8,19.2,2.9,18,2.9
							C18,2.9,18,2.9,18,2.9z M18.7,15c0,0.4-0.3,0.7-0.7,0.7H2.3c-0.4,0-0.7-0.3-0.7-0.7V5c0-0.4,0.3-0.7,0.7-0.7l0,0h3.6
							c0.3,0,0.6-0.2,0.7-0.5l0.6-2.3h6l0.6,2.3c0.1,0.3,0.4,0.5,0.7,0.5H18c0.4,0,0.7,0.3,0.7,0.7c0,0,0,0,0,0V15L18.7,15z"/>
					</g>
				</g>
				<g id="그룹_528" transform="translate(6.516 6.516)">
					<g id="그룹_527">
						<path id="패스_1268" class="st0" d="M3.6-0.1C1.6-0.1,0,1.5,0,3.5s1.6,3.6,3.6,3.6s3.6-1.6,3.6-3.6S5.6-0.1,3.6-0.1L3.6-0.1
							z M3.6,5.7c-1.2,0-2.1-1-2.1-2.1c0-1.2,1-2.1,2.1-2.1s2.1,1,2.1,2.1S4.8,5.7,3.6,5.7L3.6,5.7z"/>
					</g>
				</g>
			</g>
		</g>
	</g>
</g>
</svg>
