<?xml version="1.0" encoding="utf-8"?>
<!-- Generator: Adobe Illustrator 24.0.1, SVG Export Plug-In . SVG Version: 6.00 Build 0)  -->
<svg version="1.1" id="Layer_1" xmlns="http://www.w3.org/2000/svg" xmlns:xlink="http://www.w3.org/1999/xlink" x="0px" y="0px"
	 viewBox="0 0 24 24" style="enable-background:new 0 0 24 24;" xml:space="preserve">
<style type="text/css">
	.st0{fill:#AEAEB0;}
</style>
<g id="maps" transform="translate(-1.06 -0.301)">
	<path id="패스_903" class="st0" d="M13.1,19.1c-0.2,0-0.4-0.1-0.6-0.2c-0.3-0.3-6.3-6.4-6.3-11.9c0.1-3.8,3.3-6.8,7.1-6.6
		c3.6,0.1,6.5,3,6.6,6.6c0,3.2-2.1,6.7-3.8,9c-0.2,0.4-0.7,0.5-1.1,0.2c-0.4-0.2-0.5-0.7-0.2-1.1c0,0,0-0.1,0.1-0.1
		c1.6-2.1,3.5-5.2,3.5-8c0-2.9-2.4-5.3-5.3-5.3S7.8,4,7.8,6.9c0,4.9,5.8,10.7,5.8,10.7c0.3,0.3,0.3,0.8,0,1.1
		C13.5,19,13.3,19.1,13.1,19.1L13.1,19.1z"/>
	<path id="패스_904" class="st0" d="M13.1,19.1c-0.2,0-0.4-0.1-0.6-0.2c-0.3-0.3-6.3-6.4-6.3-11.9c0.1-3.8,3.3-6.8,7.1-6.6
		c3.6,0.1,6.5,3,6.6,6.6c0,3.2-2.1,6.7-3.8,9c-0.2,0.4-0.7,0.5-1.1,0.2c-0.4-0.2-0.5-0.7-0.2-1.1c0,0,0-0.1,0.1-0.1
		c1.6-2.1,3.5-5.2,3.5-8c0-2.9-2.4-5.3-5.3-5.3S7.8,4,7.8,6.9c0,4.9,5.8,10.7,5.8,10.7c0.3,0.3,0.3,0.8,0,1.1
		C13.5,19,13.3,19.1,13.1,19.1L13.1,19.1z"/>
	<path id="패스_905" class="st0" d="M13.1,8.9c-1.3,0-2.4-1.1-2.4-2.4s1.1-2.4,2.4-2.4c1.3,0,2.4,1.1,2.4,2.4S14.4,8.9,13.1,8.9
		L13.1,8.9z M13.1,5.7c-0.4,0-0.8,0.4-0.8,0.8c0,0.4,0.4,0.8,0.8,0.8c0.4,0,0.8-0.4,0.8-0.8C13.9,6.1,13.5,5.7,13.1,5.7
		C13.1,5.7,13.1,5.7,13.1,5.7z"/>
	<path id="패스_906" class="st0" d="M13.1,24.3c-6.6,0-11.3-2.5-11.3-6.1c0-2.2,1.3-3.8,3.9-4.8c0.4-0.2,0.9,0,1.1,0.4
		c0.2,0.4,0,0.9-0.4,1.1c0,0,0,0,0,0c-2.6,1-2.9,2.4-2.9,3.3c0,2.2,3.6,4.4,9.7,4.4s9.7-2.3,9.7-4.4c0-1-0.3-2.3-2.9-3.3
		c-0.4-0.1-0.6-0.6-0.5-1c0.1-0.4,0.6-0.6,1-0.5c0,0,0,0,0,0c2.6,1,3.9,2.6,3.9,4.8C24.4,21.8,19.6,24.3,13.1,24.3z"/>
</g>
</svg>
