<?xml version="1.0" encoding="utf-8"?>
<!-- Generator: Adobe Illustrator 24.0.1, SVG Export Plug-In . SVG Version: 6.00 Build 0)  -->
<svg version="1.1" id="Layer_1" xmlns="http://www.w3.org/2000/svg" xmlns:xlink="http://www.w3.org/1999/xlink" x="0px" y="0px"
	 viewBox="0 0 18 18" style="enable-background:new 0 0 18 18;" xml:space="preserve">
<style type="text/css">
	.st0{fill:#787878;}
</style>
<g>
	<g>
		<g id="마스크_그룹_35" transform="translate(-40 -1608)">
			<g id="pin_4_" transform="translate(40 1608)">
				<g id="그룹_514">
					<path id="패스_1266" class="st0" d="M9,0C5.3,0,2.3,3,2.2,6.8c0,5,6.2,10.9,6.5,11.1c0.1,0.1,0.4,0.1,0.5,0
						c0.3-0.2,6.5-6.2,6.5-11.1C15.7,3,12.7,0,9,0z M9,10.5c-2.1,0-3.8-1.7-3.8-3.8S6.9,3,9,3s3.8,1.7,3.8,3.8
						C12.7,8.8,11.1,10.5,9,10.5z"/>
				</g>
			</g>
		</g>
	</g>
</g>
</svg>
