<?xml version="1.0" encoding="utf-8"?>
<!-- Generator: Adobe Illustrator 24.0.1, SVG Export Plug-In . SVG Version: 6.00 Build 0)  -->
<svg version="1.1" id="Layer_1" xmlns="http://www.w3.org/2000/svg" xmlns:xlink="http://www.w3.org/1999/xlink" x="0px" y="0px"
	 viewBox="0 0 8 8" style="enable-background:new 0 0 8 8;" xml:space="preserve">
<style type="text/css">
	.st0{fill:#FFFFFF;}
</style>
<g id="icon_closed" transform="translate(1.414 1.414)">
	<g id="선_21">
		<path class="st0" d="M-0.6,6.6c-0.2,0-0.4-0.1-0.6-0.2c-0.3-0.3-0.3-0.9,0-1.2l6.3-6.3c0.3-0.3,0.9-0.3,1.2,0s0.3,0.9,0,1.2L0,6.3
			C-0.1,6.5-0.3,6.6-0.6,6.6z"/>
	</g>
	<g id="선_22">
		<path class="st0" d="M5.7,6.6c-0.2,0-0.4-0.1-0.6-0.2L-1.2,0c-0.3-0.3-0.3-0.9,0-1.2s0.9-0.3,1.2,0l6.3,6.3c0.3,0.3,0.3,0.9,0,1.2
			C6.2,6.5,6,6.6,5.7,6.6z"/>
	</g>
</g>
</svg>
