<?xml version="1.0" encoding="utf-8"?>
<!-- Generator: Adobe Illustrator 24.0.1, SVG Export Plug-In . SVG Version: 6.00 Build 0)  -->
<svg version="1.1" id="Layer_1" xmlns="http://www.w3.org/2000/svg" xmlns:xlink="http://www.w3.org/1999/xlink" x="0px" y="0px"
	 viewBox="0 0 20 20" style="enable-background:new 0 0 20 20;" xml:space="preserve">
<style type="text/css">
	.st0{opacity:0.685;}
</style>
<g>
	<g>
		<g id="마스크_그룹_18" transform="translate(-30 -227)" class="st0">
			<g id="route" transform="translate(30 227)">
				<path id="패스_990" d="M3.7,11.6c-0.6,0.3-0.7,1-0.4,1.6s1,0.7,1.6,0.4c0.2-0.1,0.4-0.4,0.5-0.6h3c0.6,0,1.2,0.5,1.2,1.2
					c0,0.6-0.5,1.2-1.2,1.2H3.8c-1.1,0-2,0.9-2,2s0.9,2,2,2h3.9C7.9,19.2,8,19,8,18.8s-0.2-0.4-0.4-0.4H3.8c-0.6,0-1.2-0.5-1.2-1.2
					c0-0.6,0.5-1.2,1.2-1.2h4.7c1.1,0,2-0.9,2-2s-0.9-2-2-2h-3c-0.1-0.3-0.3-0.5-0.5-0.6l3-4.9c1.3-2,0.8-4.6-1.2-6S2-0.1,0.7,1.9
					c-1,1.4-1,3.3,0,4.8L3.7,11.6z M4.3,13c-0.2,0-0.4-0.2-0.4-0.4s0.2-0.4,0.4-0.4c0.2,0,0.4,0.2,0.4,0.4C4.7,12.8,4.5,13,4.3,13z
					 M4.3,0.8c1.9,0,3.5,1.6,3.5,3.5c0,0.7-0.2,1.4-0.6,2l0,0L4.3,11L1.4,6.2c-1.1-1.6-0.6-3.8,1-4.9C2.9,1,3.6,0.8,4.3,0.8z"/>
				<path id="패스_991" d="M4.3,6.3c1.1,0,2-0.9,2-2s-0.9-2-2-2s-2,0.9-2,2C2.3,5.4,3.2,6.2,4.3,6.3z M4.3,3.1
					c0.6,0,1.2,0.5,1.2,1.2S4.9,5.5,4.3,5.5S3.1,4.9,3.1,4.3l0,0C3.1,3.7,3.7,3.1,4.3,3.1z"/>
				<path id="패스_992" d="M15.7,6.5c-2.4,0-4.3,1.9-4.3,4.3c0,0.8,0.3,1.7,0.7,2.4l3,4.7c-0.2,0.1-0.4,0.4-0.5,0.6h-3.4
					c-0.2,0-0.4,0.2-0.4,0.4s0.2,0.4,0.4,0.4h3.4c0.2,0.6,0.9,0.9,1.5,0.7c0.6-0.2,0.9-0.9,0.7-1.5c-0.1-0.3-0.3-0.5-0.5-0.6l3-4.7
					c1.3-2,0.8-4.6-1.2-6C17.4,6.7,16.5,6.5,15.7,6.5L15.7,6.5z M15.7,19.2c-0.2,0-0.4-0.2-0.4-0.4c0-0.2,0.2-0.4,0.4-0.4
					s0.4,0.2,0.4,0.4S15.9,19.2,15.7,19.2L15.7,19.2z M18.6,12.7l-2.9,4.6l-2.9-4.6c-1.1-1.6-0.6-3.8,1-4.9s3.8-0.6,4.9,1
					C19.4,10,19.4,11.6,18.6,12.7L18.6,12.7z"/>
				<path id="패스_993" d="M15.7,8.8c-1.1,0-2,0.9-2,2s0.9,2,2,2s2-0.9,2-2S16.8,8.8,15.7,8.8z M15.7,12c-0.6,0-1.2-0.5-1.2-1.2
					s0.5-1.2,1.2-1.2c0.6,0,1.2,0.5,1.2,1.2l0,0C16.9,11.4,16.3,12,15.7,12L15.7,12z"/>
				<circle id="타원_91" cx="9.4" cy="18.8" r="0.4"/>
			</g>
		</g>
	</g>
</g>
</svg>
