<?xml version="1.0" encoding="utf-8"?>
<!-- Generator: Adobe Illustrator 24.0.1, SVG Export Plug-In . SVG Version: 6.00 Build 0)  -->
<svg version="1.1" id="Layer_1" xmlns="http://www.w3.org/2000/svg" xmlns:xlink="http://www.w3.org/1999/xlink" x="0px" y="0px"
	 viewBox="0 0 18 18" style="enable-background:new 0 0 18 18;" xml:space="preserve">
<style type="text/css">
	.st0{fill:#787878;}
</style>
<g>
	<g id="마스크_그룹_34" transform="translate(-20 -1517)">
		<g id="phone-call" transform="translate(20.019 1517)">
			<g id="그룹_513" transform="translate(0 0)">
				<path id="패스_1265" class="st0" d="M17.5,13.2L15,10.7c-0.6-0.7-1.7-0.7-2.4,0c-0.2,0.2-0.3,0.4-0.4,0.7
					c-0.3,0.8-1.1,1.3-2,1.1C8,11.6,6.3,9.9,5.6,7.7C5.3,6.9,5.8,6,6.6,5.8c0.9-0.3,1.3-1.2,1-2.1C7.6,3.4,7.5,3.2,7.3,3L4.8,0.5
					C4.1-0.2,3-0.2,2.3,0.5L0.6,2.2C-1.1,4,0.8,8.7,5,12.9s9,6.2,10.8,4.4l1.7-1.7C18.1,15,18.1,13.9,17.5,13.2z"/>
			</g>
		</g>
	</g>
</g>
</svg>
