<?xml version="1.0" encoding="utf-8"?>
<!-- Generator: Adobe Illustrator 24.0.1, SVG Export Plug-In . SVG Version: 6.00 Build 0)  -->
<svg version="1.1" id="Layer_1" xmlns="http://www.w3.org/2000/svg" xmlns:xlink="http://www.w3.org/1999/xlink" x="0px" y="0px"
	 viewBox="0 0 24 24" style="enable-background:new 0 0 24 24;" xml:space="preserve">
<style type="text/css">
	.st0{fill:#AEAEB0;}
</style>
<g>
	<path class="st0" d="M23.3,7.9C22.9,7,22.5,6.1,22,5.3c0,0,0,0,0,0C21.1,4,20,2.9,18.7,2c0,0,0,0,0,0c-0.8-0.5-1.7-1-2.6-1.3
		C14.8,0.3,13.5,0,12,0S9.2,0.3,7.9,0.7C7,1.1,6.1,1.5,5.3,2c0,0,0,0,0,0C4,2.9,2.9,4,2,5.3c0,0,0,0,0,0C1.5,6.1,1.1,7,0.7,7.9
		C0.3,9.2,0,10.5,0,12s0.3,2.8,0.7,4.1C1.1,17,1.5,17.9,2,18.7c0,0,0,0,0,0C2.9,20,4,21.1,5.3,22c0,0,0,0,0,0c0.8,0.5,1.7,1,2.6,1.3
		C9.2,23.7,10.5,24,12,24s2.8-0.3,4.1-0.7c0.9-0.3,1.8-0.8,2.6-1.3c0,0,0,0,0,0c1.3-0.9,2.4-2,3.2-3.2c0,0,0,0,0,0
		c0.5-0.8,1-1.7,1.3-2.6c0.5-1.3,0.7-2.7,0.7-4.1S23.7,9.2,23.3,7.9z M12,23C5.9,23,1,18.1,1,12S5.9,1,12,1s11,4.9,11,11
		S18.1,23,12,23z"/>
	<path class="st0" d="M16.3,6.4c-0.6-0.6-1.6-0.6-2.3,0L13.4,7l-6,6l-1.3,4c0,0.1,0,0.2,0.1,0.3c0.1,0.1,0.1,0.1,0.2,0.1h0.1l4-1.3
		l6.6-6.6c0.6-0.6,0.6-1.6,0-2.3L16.3,6.4z M6.8,16.8l1-2.9l1.9,1.9L6.8,16.8z M10.3,15.5l-2.2-2.2l5.6-5.6l2.2,2.2L10.3,15.5z
		 M16.7,9.1l-0.3,0.3l-2.2-2.2l0.3-0.3c0.4-0.4,1-0.4,1.4,0l0.9,0.9C17.1,8.1,17.1,8.7,16.7,9.1z"/>
</g>
</svg>
