<?xml version="1.0" encoding="utf-8"?>
<!-- Generator: Adobe Illustrator 24.0.1, SVG Export Plug-In . SVG Version: 6.00 Build 0)  -->
<svg version="1.1" id="Capa_1" xmlns="http://www.w3.org/2000/svg" xmlns:xlink="http://www.w3.org/1999/xlink" x="0px" y="0px"
	 viewBox="0 0 28 28" style="enable-background:new 0 0 28 28;" xml:space="preserve">
<style type="text/css">
	.st0{fill:#F4A100;}
</style>
<g id="icon_change" transform="translate(-193 -241)">
	<path class="st0" d="M207,241c-7.7,0-14,6.3-14,14s6.3,14,14,14s14-6.3,14-14S214.7,241,207,241z M201.3,251.7l2.3-2.3
		c0.1-0.1,0.2-0.2,0.4-0.2c0.2,0,0.3,0.1,0.4,0.2c0.2,0.2,0.2,0.6,0,0.8l-1.3,1.3h9.1c0.3,0,0.6,0.3,0.6,0.6c0,0.3-0.3,0.6-0.6,0.6
		h-9.1l1.3,1.3c0.2,0.2,0.2,0.6,0,0.8c-0.2,0.2-0.6,0.2-0.8,0l-2.3-2.3C201.1,252.3,201.1,251.9,201.3,251.7z M212.7,258.3l-2.3,2.3
		c0,0,0,0,0,0c-0.2,0.2-0.6,0.2-0.8,0c-0.2-0.2-0.2-0.6,0-0.8l1.3-1.3h-9.1c-0.3,0-0.6-0.3-0.6-0.6c0-0.3,0.3-0.6,0.6-0.6h9.1
		l-1.3-1.3c-0.1-0.1-0.2-0.2-0.2-0.4c0-0.3,0.2-0.6,0.6-0.6c0.2,0,0.3,0.1,0.4,0.2l2.3,2.3C212.9,257.7,212.9,258.1,212.7,258.3z"/>
</g>
</svg>
