<?xml version="1.0" encoding="utf-8"?>
<!-- Generator: Adobe Illustrator 24.0.1, SVG Export Plug-In . SVG Version: 6.00 Build 0)  -->
<svg version="1.1" id="Layer_1" xmlns="http://www.w3.org/2000/svg" xmlns:xlink="http://www.w3.org/1999/xlink" x="0px" y="0px"
	 viewBox="0 0 20 20" style="enable-background:new 0 0 20 20;" xml:space="preserve">
<style type="text/css">
	.st0{opacity:0.685;}
</style>
<g>
	<g>
		<g id="마스크_그룹_20" transform="translate(-30 -406)" class="st0">
			<g id="Wedding_Vows" transform="translate(26.283 402.283)">
				<path id="패스_995" d="M23.3,19.8h-3V5.9c0-1-0.8-1.7-1.7-1.7h-13c-1,0-1.7,0.8-1.7,1.7v5.7c0,0.2,0.2,0.4,0.4,0.4l0,0h2.2
					v8.3c0,1.7,1.4,3,3,3h11.3c1.7,0,3-1.4,3-3C23.7,20,23.5,19.8,23.3,19.8L23.3,19.8z M4.6,11.1V5.9C4.6,5.4,5,5,5.5,5
					s0.9,0.4,0.9,0.9v5.2H4.6z M7.2,20.2V5.9C7.2,5.6,7.1,5.3,7,5h11.5c0.5,0,0.9,0.4,0.9,0.9v13.9H12c-0.2,0-0.4,0.2-0.4,0.4l0,0
					c0,1.2-1,2.2-2.2,2.2S7.2,21.4,7.2,20.2L7.2,20.2L7.2,20.2z M20.7,22.4h-9.2l0,0c0.5-0.5,0.8-1.1,0.9-1.7h10.4
					C22.6,21.7,21.7,22.4,20.7,22.4L20.7,22.4z"/>
				<path id="패스_996" d="M10.7,12c0.1,0,0.2,0,0.3-0.1l2-2c0.6-0.7,0.6-1.7-0.1-2.4c-0.6-0.6-1.6-0.6-2.2-0.1
					C10,6.8,8.9,6.9,8.3,7.7C7.8,8.3,7.8,9.3,8.4,9.9l2,2C10.4,11.9,10.6,12,10.7,12z M8.9,8.3C9,8.1,9.2,7.9,9.5,7.9h0.1
					c0.3,0,0.5,0.1,0.6,0.3l0.1,0.1c0.2,0.2,0.4,0.2,0.6,0.1c0,0,0,0,0.1-0.1l0.1-0.1c0.3-0.4,0.8-0.4,1.1-0.2
					c0.4,0.3,0.4,0.8,0.2,1.1l-0.1,0.1l-1.7,1.7L9,9.3C8.8,9,8.7,8.6,8.9,8.3z"/>
				<path id="패스_997" d="M14.6,7.6h3v0.9h-3V7.6z"/>
				<path id="패스_998" d="M13.7,10.7h3.9v0.9h-3.9C13.7,11.6,13.7,10.7,13.7,10.7z"/>
				<path id="패스_999" d="M8.9,13.7h8.7v0.9H8.9V13.7z"/>
				<path id="패스_1000" d="M8.9,16.8h8.7v0.9H8.9V16.8z"/>
			</g>
		</g>
	</g>
</g>
</svg>
