<?xml version="1.0" encoding="utf-8"?>
<!-- Generator: Adobe Illustrator 24.0.1, SVG Export Plug-In . SVG Version: 6.00 Build 0)  -->
<svg version="1.1" id="Capa_1" xmlns="http://www.w3.org/2000/svg" xmlns:xlink="http://www.w3.org/1999/xlink" x="0px" y="0px"
	 viewBox="0 0 30 30" style="enable-background:new 0 0 30 30;" xml:space="preserve">
<style type="text/css">
	.st0{fill:#AEAEB0;}
</style>
<g id="그룹_355" transform="translate(-195.004 -265)">
	<g id="manual" transform="translate(192.005 265.005)">
		<path id="패스_1144" class="st0" d="M21,30H11c-2.8,0-5-2.2-5-5V5c0-2.8,2.2-5,5-5c0.6,0,1,0.4,1,1s-0.4,1-1,1C9.3,2,8,3.3,8,5
			v20c0,1.7,1.3,3,3,3h10c0.6,0,1,0.4,1,1S21.6,30,21,30L21,30z"/>
		<path id="패스_1145" class="st0" d="M25,30c-0.6,0-1-0.4-1-1s0.4-1,1-1c1.7,0,3-1.3,3-3V5c0-1.7-1.3-3-3-3H15c-0.6,0-1-0.4-1-1
			s0.4-1,1-1h10c2.8,0,5,2.2,5,5v20C30,27.8,27.8,30,25,30L25,30z"/>
		<path id="패스_1146" class="st0" d="M22,20h-8c-0.6,0-1-0.4-1-1s0.4-1,1-1h8c0.6,0,1,0.4,1,1S22.5,20,22,20L22,20z"/>
		<path id="패스_1147" class="st0" d="M21,24h-6c-0.6,0-1-0.4-1-1s0.4-1,1-1h6c0.6,0,1,0.4,1,1S21.6,24,21,24L21,24z"/>
		<path id="패스_1148" class="st0" d="M17.6,12.5c-0.6,0-1-0.4-1-1V11c0-1,0.8-1.8,1.8-1.8c0,0,0,0,0,0c0.3,0,0.6-0.3,0.6-0.6
			c0,0,0,0,0,0V7.3c0-0.3-0.3-0.6-0.6-0.6h-0.8C17.3,6.8,17,7,17,7.3c0,0,0,0,0,0c0,0.6-0.5,1-1,1c-0.5,0-1-0.4-1-1
			c0-1.4,1.2-2.6,2.6-2.6h0.8c1.4,0,2.6,1.2,2.6,2.6l0,0v1.2c0,1.4-1.1,2.5-2.4,2.6v0.3C18.6,12.1,18.1,12.5,17.6,12.5L17.6,12.5z"
			/>
		<path id="패스_1149" class="st0" d="M17.6,15.5c-0.6,0-1-0.4-1-1s0.4-1,1-1c0.6,0,1,0.4,1,1S18.1,15.5,17.6,15.5z"/>
	</g>
</g>
</svg>
