<?xml version="1.0" encoding="utf-8"?>
<!-- Generator: Adobe Illustrator 24.0.1, SVG Export Plug-In . SVG Version: 6.00 Build 0)  -->
<svg version="1.1" id="Layer_1" xmlns="http://www.w3.org/2000/svg" xmlns:xlink="http://www.w3.org/1999/xlink" x="0px" y="0px"
	 viewBox="0 0 12 12" style="enable-background:new 0 0 12 12;" xml:space="preserve">
<style type="text/css">
	.st0{fill:#555969;}
</style>
<g>
	<g>
		<g id="icon_lock" transform="translate(-292 -309)">
			<path id="padlock" class="st0" d="M301.4,313.5H301V312c0-1.7-1.3-3-3-3s-3,1.3-3,3v1.5h-0.4c-0.6,0-1.1,0.5-1.1,1.1v5.2
				c0,0.6,0.5,1.1,1.1,1.1h6.9c0.6,0,1.1-0.5,1.1-1.1v-5.2C302.5,314,302,313.5,301.4,313.5z M296,312c0-1.1,0.9-2,2-2s2,0.9,2,2
				v1.5h-4V312z M298.5,317.5v1.1c0,0.3-0.2,0.5-0.5,0.5s-0.5-0.2-0.5-0.5v-1.1c-0.5-0.3-0.6-0.9-0.4-1.4c0.3-0.5,0.9-0.6,1.4-0.4
				c0.5,0.3,0.6,0.9,0.4,1.4C298.8,317.2,298.7,317.4,298.5,317.5z"/>
		</g>
	</g>
</g>
</svg>
