<?xml version="1.0" encoding="utf-8"?>
<!-- Generator: Adobe Illustrator 24.0.1, SVG Export Plug-In . SVG Version: 6.00 Build 0)  -->
<svg version="1.1" id="Layer_1" xmlns="http://www.w3.org/2000/svg" xmlns:xlink="http://www.w3.org/1999/xlink" x="0px" y="0px"
	 viewBox="0 0 12 12" style="enable-background:new 0 0 12 12;" xml:space="preserve">
<style type="text/css">
	.st0{fill:#787878;}
</style>
<g>
	<path id="pen" class="st0" d="M10.6,0.5c-0.6-0.6-1.7-0.6-2.3,0l0,0L7.7,1.1L1.5,7.3l0,0l0,0l0,0l0,0l0,0l0,0l0,0l0,0L0,11.6
		c0,0.1,0,0.2,0.1,0.3C0.2,12,0.2,12,0.3,12h0.1l4.1-1.4l0,0l0,0l0,0l0,0l0,0l0,0l0,0l6.8-6.8c0.6-0.6,0.7-1.7,0.1-2.3l0,0L10.6,0.5
		z M4.5,9.8L2.2,7.5L8,1.7L10.3,4L4.5,9.8z M1.9,8.1l2,2l-3,1L1.9,8.1z M11.1,3.2l-0.3,0.4L8.4,1.3l0.4-0.4c0.4-0.4,1-0.4,1.4,0l0,0
		l0.9,0.9C11.4,2.2,11.4,2.9,11.1,3.2z"/>
</g>
</svg>
