<?xml version="1.0" encoding="utf-8"?>
<!-- Generator: Adobe Illustrator 24.0.1, SVG Export Plug-In . SVG Version: 6.00 Build 0)  -->
<svg version="1.1" id="Layer_1" xmlns="http://www.w3.org/2000/svg" xmlns:xlink="http://www.w3.org/1999/xlink" x="0px" y="0px"
	 viewBox="0 0 7 7" style="enable-background:new 0 0 7 7;" xml:space="preserve">
<style type="text/css">
	.st0{fill:#AEAEB0;}
</style>
<path class="st0" d="M4.2,3.5l2.7-2.7C7,0.6,7,0.3,6.9,0.1C6.7,0,6.4,0,6.2,0.1L3.5,2.8L0.8,0.1C0.6,0,0.3,0,0.1,0.1S0,0.6,0.1,0.8
	l2.7,2.7L0.1,6.2C0,6.4,0,6.7,0.1,6.9C0.2,7,0.4,7,0.5,7s0.2,0,0.3-0.1l2.7-2.7l2.7,2.7C6.3,7,6.4,7,6.5,7c0.1,0,0.2,0,0.3-0.1
	C7,6.7,7,6.4,6.9,6.2L4.2,3.5z"/>
</svg>
