<?xml version="1.0" encoding="utf-8"?>
<!-- Generator: Adobe Illustrator 24.0.1, SVG Export Plug-In . SVG Version: 6.00 Build 0)  -->
<svg version="1.1" id="Layer_1" xmlns="http://www.w3.org/2000/svg" xmlns:xlink="http://www.w3.org/1999/xlink" x="0px" y="0px"
	 viewBox="0 0 20 20" style="enable-background:new 0 0 20 20;" xml:space="preserve">
<style type="text/css">
	.st0{fill:#4F4F4F;}
</style>
<g>
	<g id="마스크_그룹_27" transform="translate(-58 -403.194)">
		<g id="icon_device" transform="translate(58 403)">
			<g id="그룹_253" transform="translate(0 0)">
				<path id="패스_1041" class="st0" d="M13.2,14.3c-0.3,0-0.5,0.2-0.5,0.5v3.1c0,0.7-0.5,1.2-1.2,1.2H2.3c-0.7,0-1.2-0.5-1.2-1.2
					c0,0,0,0,0,0V2.5c0-0.7,0.5-1.2,1.2-1.2h9.2c0.7,0,1.2,0.5,1.2,1.2c0,0,0,0,0,0v3c0,0.3,0.2,0.5,0.5,0.5c0.3,0,0.5-0.2,0.5-0.5
					v-3c0-1.3-1-2.3-2.3-2.3l0,0H2.3C1,0.2,0,1.2,0,2.5v15.4c0,1.3,1,2.3,2.3,2.3h9.2c1.3,0,2.3-1,2.3-2.3v-3.1
					C13.7,14.5,13.5,14.3,13.2,14.3"/>
				<path id="패스_1042" class="st0" d="M11.5,3.2c0-0.3-0.2-0.5-0.5-0.5c0,0,0,0,0,0H2.7c-0.3,0-0.5,0.2-0.5,0.5v13.9
					c0,0.3,0.2,0.5,0.5,0.5c0,0,0,0,0,0h8.2c0.3,0,0.5-0.2,0.5-0.5v-1.7c0-0.3-0.2-0.5-0.5-0.5c-0.3,0-0.5,0.2-0.5,0.5v1.2H3.3V3.8
					h7.1V5c0,0.3,0.2,0.5,0.5,0.5c0.3,0,0.5-0.2,0.5-0.5V3.2z"/>
				<path id="패스_1043" class="st0" d="M16,13.1c-1.4,0-2.6-1-2.8-2.4H16c0.3,0,0.5-0.2,0.5-0.5V7.3c1.6,0.3,2.6,1.8,2.3,3.4
					C18.6,12.1,17.4,13.1,16,13.1 M15.5,7.3v2.3h-2.3C13.4,8.5,14.3,7.6,15.5,7.3 M16,6.2c-2.2,0-4,1.8-4,4s1.8,4,4,4s4-1.8,4-4
					C20,8,18.2,6.2,16,6.2"/>
				<path id="패스_1044" class="st0" d="M10.9,6.2c-0.3,0-0.5,0.2-0.5,0.5v6.9c0,0.3,0.2,0.5,0.5,0.5c0.3,0,0.5-0.2,0.5-0.5V6.8
					C11.5,6.5,11.2,6.2,10.9,6.2"/>
				<path id="패스_1045" class="st0" d="M8.7,9.2c-0.3,0-0.5,0.2-0.5,0.5v3.9c0,0.3,0.2,0.5,0.5,0.5c0.3,0,0.5-0.2,0.5-0.5V9.7
					C9.3,9.4,9,9.2,8.7,9.2"/>
				<path id="패스_1046" class="st0" d="M6,11.5v2.1c0,0.3,0.2,0.5,0.5,0.5c0.3,0,0.5-0.2,0.5-0.5v-2.1c0-0.3-0.2-0.5-0.5-0.5
					C6.2,10.9,6,11.2,6,11.5"/>
				<path id="패스_1047" class="st0" d="M9.6,5.9c0.1-0.3-0.1-0.6-0.4-0.6c-0.1,0-0.1,0-0.2,0L7.1,5.7C6.8,5.7,6.6,6,6.7,6.3
					C6.7,6.6,7,6.8,7.3,6.7l0.2,0L4.3,9.9c-0.2,0.2-0.2,0.6,0,0.8c0.2,0.2,0.5,0.2,0.7,0l3.2-3.2l0,0.2c0,0.3,0.2,0.6,0.4,0.6
					c0.3,0,0.5-0.1,0.6-0.4L9.6,5.9z"/>
			</g>
		</g>
	</g>
</g>
</svg>
