<?xml version="1.0" encoding="utf-8"?>
<!-- Generator: Adobe Illustrator 24.0.1, SVG Export Plug-In . SVG Version: 6.00 Build 0)  -->
<svg version="1.1" id="Layer_1" xmlns="http://www.w3.org/2000/svg" xmlns:xlink="http://www.w3.org/1999/xlink" x="0px" y="0px"
	 viewBox="0 0 20 20" style="enable-background:new 0 0 20 20;" xml:space="preserve">
<style type="text/css">
	.st0{opacity:0.685;}
</style>
<g>
	<g id="마스크_그룹_23" transform="translate(-30 -587)" class="st0">
		<g id="megaphone_1_" transform="translate(29.921 586.979)">
			<path id="패스_1010" d="M12.9,6.4C11,3.5,8.4,2,7,2.9C6.9,3,6.7,3.2,6.6,3.3c0,0-3.2,6.4-3.2,6.4l-1.8,1.2
				c-1.1,0.8-1.4,2.3-0.7,3.5l0.1,0.1c0.8,1.1,2.3,1.4,3.4,0.7l2.8,4.2c0.5,0.7,1.5,0.9,2.2,0.4c0.4-0.2,0.6-0.6,0.7-1
				c0.1-0.4,0-0.8-0.2-1.2l-2.5-3.7c0,0,5.9-0.5,5.9-0.5c0.2,0,0.4-0.1,0.5-0.2c0.7-0.5,1-1.5,0.7-2.8C14.4,8.9,13.8,7.6,12.9,6.4
				L12.9,6.4z M1.8,14.1l-0.1-0.1c-0.5-0.8-0.3-1.9,0.5-2.4c0,0,0,0,0,0l1.5-1l2,3l-1.5,1C3.4,15,2.3,14.8,1.8,14.1
				C1.8,14.1,1.8,14.1,1.8,14.1L1.8,14.1z M9.4,18c0.2,0.4,0.1,0.9-0.2,1.1c-0.4,0.2-0.9,0.1-1.1-0.2l-2.8-4.2L6.3,14l0.3,0L9.4,18z
				 M6.4,13.2L4.2,9.9l2.1-4.3c0.3,1.4,0.9,2.8,1.7,4c0.8,1.2,1.9,2.3,3.1,3.1L6.4,13.2z M12.9,12.7c-1.1-0.1-2.8-1.3-4.2-3.4
				S6.8,5.1,7.1,4.1C7.2,3.7,7.6,3.4,8,3.4c1,0,2.8,1.2,4.3,3.4c0.8,1.1,1.4,2.3,1.6,3.7C14.2,12.7,12.9,12.7,12.9,12.7L12.9,12.7z"
				/>
			<path id="패스_1011" d="M10.2,6.5c-0.5-0.1-1.1,0-1.6,0.3C8.4,6.9,8.4,7.2,8.5,7.3C8.6,7.5,8.9,7.5,9,7.4
				c0.6-0.4,1.4-0.3,1.8,0.4c0.4,0.6,0.3,1.4-0.4,1.8c-0.2,0.1-0.2,0.4-0.1,0.5c0.1,0.1,0.2,0.2,0.3,0.2c0.1,0,0.2,0,0.2-0.1
				c1-0.6,1.2-1.9,0.6-2.9C11.2,6.9,10.7,6.6,10.2,6.5L10.2,6.5z"/>
			<path id="패스_1012" d="M13.4,3.7L13.4,3.7c0.2,0,0.4-0.1,0.4-0.3l0.3-2.9c0-0.2-0.1-0.4-0.3-0.4c-0.2,0-0.4,0.1-0.4,0.3
				c0,0,0,0,0,0.1l-0.3,2.9C13,3.5,13.2,3.7,13.4,3.7L13.4,3.7z"/>
			<path id="패스_1013" d="M18.4,3.1C18.3,2.9,18,2.9,17.9,3l-2.7,1.8c-0.2,0.1-0.2,0.4-0.1,0.5c0.1,0.1,0.2,0.2,0.3,0.2
				c0.1,0,0.2,0,0.2-0.1l2.7-1.8C18.5,3.5,18.5,3.3,18.4,3.1L18.4,3.1z"/>
			<path id="패스_1014" d="M19.2,7.8l-3.1-0.6c-0.2,0-0.4,0.1-0.4,0.3C15.6,7.8,15.7,8,16,8l3.1,0.6h0.1c0.2,0,0.4-0.2,0.4-0.4
				C19.5,8,19.4,7.8,19.2,7.8L19.2,7.8z"/>
		</g>
	</g>
</g>
</svg>
